AsbirSans-DisplayRegular.ufo
<glyph name="exclam" format="2">
  <advance width="450"/>
  <unicode hex="0021"/>
  <outline>
    <contour>
      <point x="145" y="400" type="line"/>
      <point x="305" y="400" type="line"/>
      <point x="318" y="1490" type="line"/>
      <point x="132" y="1490" type="line"/>
    </contour>
    <contour>
      <point x="225" y="-17" type="curve" smooth="yes"/>
      <point x="295" y="-17"/>
      <point x="350" y="38"/>
      <point x="350" y="108" type="curve" smooth="yes"/>
      <point x="350" y="178"/>
      <point x="295" y="233"/>
      <point x="225" y="233" type="curve" smooth="yes"/>
      <point x="155" y="233"/>
      <point x="100" y="178"/>
      <point x="100" y="108" type="curve" smooth="yes"/>
      <point x="100" y="38"/>
      <point x="155" y="-17"/>
    </contour>
  </outline>
</glyph>
<glyph name="numbersign" format="2">
  <advance width="1228"/>
  <unicode hex="0023"/>
  <outline>
    <contour>
      <point x="680" y="0" type="line"/>
      <point x="826" y="0" type="line"/>
      <point x="1070" y="1490" type="line"/>
      <point x="926" y="1490" type="line"/>
    </contour>
    <contour>
      <point x="2" y="414" type="line"/>
      <point x="1114" y="414" type="line"/>
      <point x="1138" y="558" type="line"/>
      <point x="26" y="558" type="line"/>
    </contour>
    <contour>
      <point x="158" y="0" type="line"/>
      <point x="302" y="0" type="line"/>
      <point x="546" y="1490" type="line"/>
      <point x="402" y="1490" type="line"/>
    </contour>
    <contour>
      <point x="90" y="930" type="line"/>
      <point x="1202" y="930" type="line"/>
      <point x="1224" y="1076" type="line"/>
      <point x="114" y="1076" type="line"/>
    </contour>
  </outline>
</glyph>
<glyph name="dollar" format="2">
  <advance width="1258"/>
  <unicode hex="0024"/>
  <anchor x="633" y="0" name="bottom"/>
  <anchor x="633" y="0" name="cedilla"/>
  <anchor x="624" y="1490" name="top"/>
  <outline>
    <contour>
      <point x="547" y="-222" type="line"/>
      <point x="707" y="-222" type="line"/>
      <point x="707" y="1712" type="line"/>
      <point x="547" y="1712" type="line"/>
    </contour>
    <component base="S"/>
  </outline>
</glyph>
<glyph name="ampersand" format="2">
  <advance width="1246"/>
  <unicode hex="0026"/>
  <outline>
    <contour>
      <point x="546" y="-20" type="curve"/>
      <point x="704" y="-20"/>
      <point x="857" y="41"/>
      <point x="946" y="140" type="curve"/>
      <point x="978" y="184" type="line"/>
      <point x="1096" y="299"/>
      <point x="1158" y="461"/>
      <point x="1158" y="652" type="curve"/>
      <point x="992" y="652" type="line"/>
      <point x="992" y="378"/>
      <point x="782" y="130"/>
      <point x="548" y="130" type="curve" smooth="yes"/>
      <point x="383" y="130"/>
      <point x="248" y="254"/>
      <point x="248" y="394" type="curve" smooth="yes"/>
      <point x="248" y="480"/>
      <point x="298" y="550"/>
      <point x="418" y="640" type="curve" smooth="yes"/>
      <point x="716" y="862" type="line" smooth="yes"/>
      <point x="849" y="961"/>
      <point x="914" y="1069"/>
      <point x="914" y="1192" type="curve" smooth="yes"/>
      <point x="914" y="1376"/>
      <point x="766" y="1504"/>
      <point x="553" y="1504" type="curve" smooth="yes"/>
      <point x="336" y="1504"/>
      <point x="189" y="1371"/>
      <point x="189" y="1168" type="curve" smooth="yes"/>
      <point x="189" y="1042"/>
      <point x="246" y="955"/>
      <point x="474" y="680" type="curve" smooth="yes"/>
      <point x="1038" y="0" type="line"/>
      <point x="1246" y="0" type="line"/>
      <point x="562" y="834" type="line" smooth="yes"/>
      <point x="408" y="1021"/>
      <point x="363" y="1081"/>
      <point x="363" y="1165" type="curve" smooth="yes"/>
      <point x="363" y="1279"/>
      <point x="447" y="1356"/>
      <point x="553" y="1356" type="curve" smooth="yes"/>
      <point x="659" y="1356"/>
      <point x="738" y="1280"/>
      <point x="738" y="1187" type="curve" smooth="yes"/>
      <point x="738" y="1121"/>
      <point x="698" y="1054"/>
      <point x="619" y="995" type="curve" smooth="yes"/>
      <point x="384" y="820" type="line" smooth="yes"/>
      <point x="141" y="639"/>
      <point x="72" y="546"/>
      <point x="72" y="396" type="curve" smooth="yes"/>
      <point x="72" y="148"/>
      <point x="264" y="-20"/>
    </contour>
  </outline>
</glyph>
<glyph name="quotesingle" format="2">
  <advance width="520"/>
  <unicode hex="0027"/>
  <outline>
    <contour>
      <point x="196" y="984" type="line"/>
      <point x="324" y="984" type="line"/>
      <point x="344" y="1490" type="line"/>
      <point x="176" y="1490" type="line"/>
    </contour>
  </outline>
</glyph>
<glyph name="parenleft" format="2">
  <advance width="612"/>
  <unicode hex="0028"/>
  <outline>
    <contour>
      <point x="148" y="592" type="curve" smooth="yes"/>
      <point x="148" y="282"/>
      <point x="232" y="-25"/>
      <point x="390" y="-294" type="curve"/>
      <point x="556" y="-294" type="line"/>
      <point x="394" y="36"/>
      <point x="320" y="314"/>
      <point x="320" y="592" type="curve" smooth="yes"/>
      <point x="320" y="900"/>
      <point x="410" y="1273"/>
      <point x="556" y="1566" type="curve"/>
      <point x="390" y="1566" type="line"/>
      <point x="248" y="1332"/>
      <point x="148" y="931"/>
    </contour>
  </outline>
</glyph>
<glyph name="parenright" format="2">
  <advance width="612"/>
  <unicode hex="0029"/>
  <outline>
    <contour>
      <point x="56" y="-294" type="curve"/>
      <point x="222" y="-294" type="line"/>
      <point x="380" y="-25"/>
      <point x="464" y="282"/>
      <point x="464" y="592" type="curve" smooth="yes"/>
      <point x="464" y="931"/>
      <point x="364" y="1332"/>
      <point x="222" y="1566" type="curve"/>
      <point x="56" y="1566" type="line"/>
      <point x="202" y="1273"/>
      <point x="292" y="900"/>
      <point x="292" y="592" type="curve" smooth="yes"/>
      <point x="292" y="314"/>
      <point x="218" y="36"/>
    </contour>
  </outline>
</glyph>
<glyph name="asterisk" format="2">
  <advance width="960"/>
  <unicode hex="002A"/>
  <outline>
    <contour>
      <point x="410" y="652" type="line"/>
      <point x="550" y="652" type="line"/>
      <point x="538" y="972" type="line"/>
      <point x="808" y="800" type="line"/>
      <point x="878" y="922" type="line"/>
      <point x="594" y="1070" type="line"/>
      <point x="878" y="1218" type="line"/>
      <point x="808" y="1342" type="line"/>
      <point x="538" y="1170" type="line"/>
      <point x="550" y="1490" type="line"/>
      <point x="410" y="1490" type="line"/>
      <point x="422" y="1170" type="line"/>
      <point x="152" y="1342" type="line"/>
      <point x="82" y="1218" type="line"/>
      <point x="366" y="1070" type="line"/>
      <point x="82" y="922" type="line"/>
      <point x="152" y="800" type="line"/>
      <point x="422" y="972" type="line"/>
    </contour>
  </outline>
</glyph>
<glyph name="plus" format="2">
  <advance width="1286"/>
  <unicode hex="002B"/>
  <outline>
    <contour>
      <point x="562" y="96" type="line"/>
      <point x="724" y="96" type="line"/>
      <point x="724" y="1056" type="line"/>
      <point x="562" y="1056" type="line"/>
    </contour>
    <contour>
      <point x="163" y="498" type="line"/>
      <point x="1123" y="498" type="line"/>
      <point x="1123" y="654" type="line"/>
      <point x="163" y="654" type="line"/>
    </contour>
  </outline>
</glyph>
<glyph name="period" format="2">
  <advance width="450"/>
  <unicode hex="002E"/>
  <outline>
    <contour>
      <point x="225" y="-17" type="curve" smooth="yes"/>
      <point x="295" y="-17"/>
      <point x="350" y="38"/>
      <point x="350" y="108" type="curve" smooth="yes"/>
      <point x="350" y="178"/>
      <point x="295" y="233"/>
      <point x="225" y="233" type="curve" smooth="yes"/>
      <point x="155" y="233"/>
      <point x="100" y="178"/>
      <point x="100" y="108" type="curve" smooth="yes"/>
      <point x="100" y="38"/>
      <point x="155" y="-17"/>
    </contour>
  </outline>
</glyph>
<glyph name="slash" format="2">
  <advance width="666"/>
  <unicode hex="002F"/>
  <outline>
    <contour>
      <point x="652" y="1560" type="line"/>
      <point x="494" y="1560" type="line"/>
      <point x="14" y="-224" type="line"/>
      <point x="172" y="-224" type="line"/>
    </contour>
  </outline>
</glyph>
<glyph name="zero" format="2">
  <advance width="1256"/>
  <unicode hex="0030"/>
  <anchor x="628" y="745" name="center"/>
  <anchor x="628" y="1490" name="top"/>
  <outline>
    <contour>
      <point x="628" y="-24" type="curve" smooth="yes"/>
      <point x="958" y="-24"/>
      <point x="1166" y="275"/>
      <point x="1166" y="744" type="curve" smooth="yes"/>
      <point x="1166" y="1215"/>
      <point x="958" y="1514"/>
      <point x="628" y="1514" type="curve" smooth="yes"/>
      <point x="298" y="1514"/>
      <point x="90" y="1215"/>
      <point x="90" y="744" type="curve" smooth="yes"/>
      <point x="90" y="275"/>
      <point x="298" y="-24"/>
    </contour>
    <contour>
      <point x="628" y="136" type="curve" smooth="yes"/>
      <point x="400" y="136"/>
      <point x="260" y="366"/>
      <point x="260" y="744" type="curve" smooth="yes"/>
      <point x="260" y="1124"/>
      <point x="400" y="1354"/>
      <point x="628" y="1354" type="curve" smooth="yes"/>
      <point x="856" y="1354"/>
      <point x="996" y="1124"/>
      <point x="996" y="744" type="curve" smooth="yes"/>
      <point x="996" y="366"/>
      <point x="856" y="136"/>
    </contour>
  </outline>
</glyph>
<glyph name="one" format="2">
  <advance width="740"/>
  <unicode hex="0031"/>
  <outline>
    <contour>
      <point x="418" y="0" type="line"/>
      <point x="592" y="0" type="line"/>
      <point x="592" y="1490" type="line"/>
      <point x="440" y="1490" type="line"/>
      <point x="417" y="1336"/>
      <point x="327" y="1268"/>
      <point x="144" y="1268" type="curve" smooth="yes"/>
      <point x="118" y="1268" type="line"/>
      <point x="118" y="1118" type="line"/>
      <point x="288" y="1118"/>
      <point x="349" y="1118"/>
      <point x="440" y="1118" type="curve"/>
      <point x="418" y="1140" type="line"/>
    </contour>
  </outline>
</glyph>
<glyph name="two" format="2">
  <advance width="1149"/>
  <unicode hex="0032"/>
  <anchor x="660" y="607" name="cross"/>
  <anchor x="570" y="1490" name="top"/>
  <outline>
    <contour>
      <point x="85" y="0" type="line"/>
      <point x="1064" y="0" type="line"/>
      <point x="1064" y="160" type="line"/>
      <point x="329" y="160" type="line"/>
      <point x="329" y="162" type="line"/>
      <point x="732" y="528" type="line" smooth="yes"/>
      <point x="951" y="727"/>
      <point x="1055" y="871"/>
      <point x="1055" y="1063" type="curve" smooth="yes"/>
      <point x="1055" y="1328"/>
      <point x="858" y="1514"/>
      <point x="579" y="1514" type="curve" smooth="yes"/>
      <point x="284" y="1514"/>
      <point x="91" y="1305"/>
      <point x="91" y="1008" type="curve"/>
      <point x="259" y="1008" type="line"/>
      <point x="259" y="1220"/>
      <point x="376" y="1354"/>
      <point x="580" y="1354" type="curve" smooth="yes"/>
      <point x="769" y="1354"/>
      <point x="885" y="1240"/>
      <point x="885" y="1056" type="curve" smooth="yes"/>
      <point x="885" y="903"/>
      <point x="804" y="808"/>
      <point x="615" y="635" type="curve" smooth="yes"/>
      <point x="85" y="151" type="line"/>
    </contour>
  </outline>
</glyph>
<glyph name="three" format="2">
  <advance width="1226"/>
  <unicode hex="0033"/>
  <anchor x="616" y="1490" name="top"/>
  <outline>
    <contour>
      <point x="620" y="-24" type="curve" smooth="yes"/>
      <point x="916" y="-24"/>
      <point x="1136" y="159"/>
      <point x="1136" y="420" type="curve" smooth="yes"/>
      <point x="1136" y="596"/>
      <point x="1012" y="735"/>
      <point x="822" y="767" type="curve"/>
      <point x="822" y="770" type="line"/>
      <point x="988" y="821"/>
      <point x="1090" y="945"/>
      <point x="1090" y="1096" type="curve" smooth="yes"/>
      <point x="1090" y="1339"/>
      <point x="883" y="1514"/>
      <point x="609" y="1514" type="curve" smooth="yes"/>
      <point x="327" y="1514"/>
      <point x="128" y="1326"/>
      <point x="128" y="1056" type="curve"/>
      <point x="302" y="1056" type="line"/>
      <point x="302" y="1244"/>
      <point x="418" y="1356"/>
      <point x="608" y="1356" type="curve" smooth="yes"/>
      <point x="793" y="1356"/>
      <point x="914" y="1254"/>
      <point x="914" y="1086" type="curve" smooth="yes"/>
      <point x="914" y="940"/>
      <point x="784" y="844"/>
      <point x="592" y="844" type="curve" smooth="yes"/>
      <point x="472" y="844" type="line"/>
      <point x="472" y="684" type="line"/>
      <point x="592" y="684" type="line" smooth="yes"/>
      <point x="811" y="684"/>
      <point x="960" y="579"/>
      <point x="960" y="420" type="curve" smooth="yes"/>
      <point x="960" y="245"/>
      <point x="820" y="134"/>
      <point x="616" y="134" type="curve" smooth="yes"/>
      <point x="403" y="134"/>
      <point x="278" y="257"/>
      <point x="278" y="468" type="curve"/>
      <point x="96" y="468" type="line"/>
      <point x="96" y="177"/>
      <point x="312" y="-24"/>
    </contour>
  </outline>
</glyph>
<glyph name="four" format="2">
  <advance width="1265"/>
  <unicode hex="0034"/>
  <outline>
    <contour>
      <point x="52" y="360" type="line"/>
      <point x="1213" y="360" type="line"/>
      <point x="1213" y="520" type="line"/>
      <point x="256" y="520" type="line"/>
      <point x="256" y="522" type="line"/>
      <point x="957" y="1490" type="line"/>
      <point x="765" y="1490" type="line"/>
      <point x="52" y="508" type="line"/>
    </contour>
    <contour>
      <point x="813" y="0" type="line"/>
      <point x="985" y="0" type="line"/>
      <point x="985" y="930" type="line"/>
      <point x="813" y="930" type="line"/>
      <point x="813" y="474" type="line"/>
      <point x="813" y="404" type="line"/>
    </contour>
  </outline>
</glyph>
<glyph name="five" format="2">
  <advance width="1181"/>
  <unicode hex="0035"/>
  <outline>
    <contour>
      <point x="593" y="-20" type="curve" smooth="yes"/>
      <point x="891" y="-20"/>
      <point x="1091" y="190"/>
      <point x="1091" y="490" type="curve" smooth="yes"/>
      <point x="1091" y="785"/>
      <point x="902" y="996"/>
      <point x="628" y="996" type="curve" smooth="yes"/>
      <point x="488" y="996"/>
      <point x="372" y="948"/>
      <point x="278" y="847" type="curve"/>
      <point x="276" y="847" type="line"/>
      <point x="312" y="1330" type="line"/>
      <point x="1009" y="1330" type="line"/>
      <point x="1009" y="1490" type="line"/>
      <point x="149" y="1490" type="line"/>
      <point x="99" y="640" type="line"/>
      <point x="272" y="640" type="line"/>
      <point x="318" y="767"/>
      <point x="442" y="834"/>
      <point x="606" y="834" type="curve" smooth="yes"/>
      <point x="791" y="834"/>
      <point x="917" y="689"/>
      <point x="917" y="488" type="curve" smooth="yes"/>
      <point x="917" y="286"/>
      <point x="786" y="140"/>
      <point x="593" y="140" type="curve" smooth="yes"/>
      <point x="411" y="140"/>
      <point x="276" y="263"/>
      <point x="260" y="432" type="curve"/>
      <point x="80" y="432" type="line"/>
      <point x="91" y="174"/>
      <point x="306" y="-20"/>
    </contour>
  </outline>
</glyph>
<glyph name="six" format="2">
  <advance width="1196"/>
  <unicode hex="0036"/>
  <outline>
    <contour>
      <point x="608" y="-24" type="curve" smooth="yes"/>
      <point x="901" y="-24"/>
      <point x="1106" y="182"/>
      <point x="1106" y="476" type="curve" smooth="yes"/>
      <point x="1106" y="759"/>
      <point x="907" y="970"/>
      <point x="638" y="970" type="curve" smooth="yes"/>
      <point x="478" y="970"/>
      <point x="332" y="895"/>
      <point x="264" y="780" type="curve"/>
      <point x="262" y="780" type="line"/>
      <point x="262" y="1113"/>
      <point x="385" y="1354"/>
      <point x="643" y="1354" type="curve" smooth="yes"/>
      <point x="794" y="1354"/>
      <point x="890" y="1262"/>
      <point x="918" y="1118" type="curve"/>
      <point x="1094" y="1118" type="line"/>
      <point x="1066" y="1355"/>
      <point x="891" y="1514"/>
      <point x="632" y="1514" type="curve" smooth="yes"/>
      <point x="258" y="1514"/>
      <point x="90" y="1183"/>
      <point x="90" y="682" type="curve" smooth="yes"/>
      <point x="90" y="232"/>
      <point x="278" y="-24"/>
    </contour>
    <contour>
      <point x="608" y="136" type="curve" smooth="yes"/>
      <point x="430" y="136"/>
      <point x="286" y="287"/>
      <point x="286" y="474" type="curve" smooth="yes"/>
      <point x="286" y="660"/>
      <point x="433" y="810"/>
      <point x="614" y="810" type="curve" smooth="yes"/>
      <point x="793" y="810"/>
      <point x="932" y="664"/>
      <point x="932" y="476" type="curve" smooth="yes"/>
      <point x="932" y="287"/>
      <point x="788" y="136"/>
    </contour>
  </outline>
</glyph>
<glyph name="seven" format="2">
  <advance width="1056"/>
  <unicode hex="0037"/>
  <outline>
    <contour>
      <point x="153" y="0" type="line"/>
      <point x="342" y="0" type="line"/>
      <point x="1006" y="1320" type="line"/>
      <point x="1006" y="1490" type="line"/>
      <point x="50" y="1490" type="line"/>
      <point x="50" y="1330" type="line"/>
      <point x="825" y="1330" type="line"/>
      <point x="825" y="1329" type="line"/>
    </contour>
  </outline>
</glyph>
<glyph name="eight" format="2">
  <advance width="1192"/>
  <unicode hex="0038"/>
  <outline>
    <contour>
      <point x="596" y="-24" type="curve" smooth="yes"/>
      <point x="891" y="-24"/>
      <point x="1102" y="151"/>
      <point x="1102" y="396" type="curve" smooth="yes"/>
      <point x="1102" y="593"/>
      <point x="962" y="756"/>
      <point x="782" y="779" type="curve"/>
      <point x="782" y="778" type="line"/>
      <point x="934" y="806"/>
      <point x="1046" y="939"/>
      <point x="1046" y="1114" type="curve" smooth="yes"/>
      <point x="1046" y="1344"/>
      <point x="854" y="1514"/>
      <point x="596" y="1514" type="curve" smooth="yes"/>
      <point x="336" y="1514"/>
      <point x="144" y="1344"/>
      <point x="144" y="1114" type="curve" smooth="yes"/>
      <point x="144" y="938"/>
      <point x="255" y="806"/>
      <point x="410" y="778" type="curve"/>
      <point x="410" y="779" type="line"/>
      <point x="229" y="757"/>
      <point x="90" y="595"/>
      <point x="90" y="396" type="curve" smooth="yes"/>
      <point x="90" y="151"/>
      <point x="300" y="-24"/>
    </contour>
    <contour>
      <point x="596" y="136" type="curve" smooth="yes"/>
      <point x="396" y="136"/>
      <point x="266" y="242"/>
      <point x="266" y="404" type="curve" smooth="yes"/>
      <point x="266" y="571"/>
      <point x="404" y="692"/>
      <point x="596" y="692" type="curve" smooth="yes"/>
      <point x="787" y="692"/>
      <point x="924" y="571"/>
      <point x="924" y="404" type="curve" smooth="yes"/>
      <point x="924" y="241"/>
      <point x="795" y="136"/>
    </contour>
    <contour>
      <point x="596" y="846" type="curve" smooth="yes"/>
      <point x="431" y="846"/>
      <point x="318" y="950"/>
      <point x="318" y="1102" type="curve" smooth="yes"/>
      <point x="318" y="1254"/>
      <point x="430" y="1356"/>
      <point x="596" y="1356" type="curve" smooth="yes"/>
      <point x="761" y="1356"/>
      <point x="872" y="1254"/>
      <point x="872" y="1102" type="curve" smooth="yes"/>
      <point x="872" y="949"/>
      <point x="760" y="846"/>
    </contour>
  </outline>
</glyph>
<glyph name="nine" format="2">
  <advance width="1196"/>
  <unicode hex="0039"/>
  <outline>
    <contour>
      <point x="560" y="-24" type="curve" smooth="yes"/>
      <point x="934" y="-24"/>
      <point x="1106" y="307"/>
      <point x="1106" y="808" type="curve" smooth="yes"/>
      <point x="1106" y="1258"/>
      <point x="918" y="1514"/>
      <point x="588" y="1514" type="curve" smooth="yes"/>
      <point x="295" y="1514"/>
      <point x="90" y="1312"/>
      <point x="90" y="1018" type="curve" smooth="yes"/>
      <point x="90" y="735"/>
      <point x="289" y="528"/>
      <point x="558" y="528" type="curve" smooth="yes"/>
      <point x="718" y="528"/>
      <point x="860" y="595"/>
      <point x="928" y="710" type="curve"/>
      <point x="930" y="710" type="line"/>
      <point x="930" y="377"/>
      <point x="806" y="136"/>
      <point x="548" y="136" type="curve" smooth="yes"/>
      <point x="397" y="136"/>
      <point x="298" y="228"/>
      <point x="270" y="372" type="curve"/>
      <point x="94" y="372" type="line"/>
      <point x="122" y="135"/>
      <point x="301" y="-24"/>
    </contour>
    <contour>
      <point x="582" y="688" type="curve" smooth="yes"/>
      <point x="403" y="688"/>
      <point x="264" y="830"/>
      <point x="264" y="1018" type="curve" smooth="yes"/>
      <point x="264" y="1207"/>
      <point x="408" y="1354"/>
      <point x="588" y="1354" type="curve" smooth="yes"/>
      <point x="766" y="1354"/>
      <point x="910" y="1207"/>
      <point x="910" y="1020" type="curve" smooth="yes"/>
      <point x="910" y="834"/>
      <point x="763" y="688"/>
    </contour>
  </outline>
</glyph>
<glyph name="less" format="2">
  <advance width="1286"/>
  <unicode hex="003C"/>
  <outline>
    <contour>
      <point x="150" y="524" type="line"/>
      <point x="1088" y="46" type="line"/>
      <point x="1088" y="232" type="line"/>
      <point x="368" y="578" type="line"/>
      <point x="374" y="568" type="line"/>
      <point x="374" y="596" type="line"/>
      <point x="368" y="584" type="line"/>
      <point x="1088" y="930" type="line"/>
      <point x="1088" y="1118" type="line"/>
      <point x="150" y="640" type="line"/>
    </contour>
  </outline>
</glyph>
<glyph name="equal" format="2">
  <advance width="1286"/>
  <unicode hex="003D"/>
  <outline>
    <contour>
      <point x="194" y="718" type="line"/>
      <point x="1090" y="718" type="line"/>
      <point x="1090" y="876" type="line"/>
      <point x="194" y="876" type="line"/>
    </contour>
    <contour>
      <point x="194" y="288" type="line"/>
      <point x="1090" y="288" type="line"/>
      <point x="1090" y="446" type="line"/>
      <point x="194" y="446" type="line"/>
    </contour>
  </outline>
</glyph>
<glyph name="greater" format="2">
  <advance width="1286"/>
  <unicode hex="003E"/>
  <outline>
    <contour>
      <point x="1136" y="524" type="line"/>
      <point x="1136" y="640" type="line"/>
      <point x="198" y="1118" type="line"/>
      <point x="198" y="930" type="line"/>
      <point x="918" y="584" type="line"/>
      <point x="912" y="596" type="line"/>
      <point x="912" y="568" type="line"/>
      <point x="918" y="578" type="line"/>
      <point x="198" y="232" type="line"/>
      <point x="198" y="46" type="line"/>
    </contour>
  </outline>
</glyph>
<glyph name="question" format="2">
  <advance width="1073"/>
  <unicode hex="003F"/>
  <outline>
    <contour>
      <point x="421" y="400" type="line"/>
      <point x="595" y="400" type="line"/>
      <point x="595" y="496" type="line" smooth="yes"/>
      <point x="595" y="629"/>
      <point x="635" y="667"/>
      <point x="769" y="760" type="curve" smooth="yes"/>
      <point x="908" y="856"/>
      <point x="983" y="982"/>
      <point x="983" y="1126" type="curve" smooth="yes"/>
      <point x="983" y="1354"/>
      <point x="799" y="1514"/>
      <point x="536" y="1514" type="curve" smooth="yes"/>
      <point x="253" y="1514"/>
      <point x="64" y="1329"/>
      <point x="64" y="1050" type="curve"/>
      <point x="243" y="1050" type="line"/>
      <point x="243" y="1243"/>
      <point x="351" y="1356"/>
      <point x="536" y="1356" type="curve" smooth="yes"/>
      <point x="705" y="1356"/>
      <point x="809" y="1268"/>
      <point x="809" y="1126" type="curve" smooth="yes"/>
      <point x="809" y="1038"/>
      <point x="770" y="951"/>
      <point x="657" y="869" type="curve" smooth="yes"/>
      <point x="521" y="770"/>
      <point x="421" y="733"/>
      <point x="421" y="512" type="curve" smooth="yes"/>
    </contour>
    <contour>
      <point x="508" y="-17" type="curve" smooth="yes"/>
      <point x="578" y="-17"/>
      <point x="633" y="38"/>
      <point x="633" y="108" type="curve" smooth="yes"/>
      <point x="633" y="178"/>
      <point x="578" y="233"/>
      <point x="508" y="233" type="curve" smooth="yes"/>
      <point x="438" y="233"/>
      <point x="383" y="178"/>
      <point x="383" y="108" type="curve" smooth="yes"/>
      <point x="383" y="38"/>
      <point x="438" y="-17"/>
    </contour>
  </outline>
</glyph>
<glyph name="at" format="2">
  <advance width="1994"/>
  <unicode hex="0040"/>
  <outline>
    <contour>
      <point x="1015" y="-402" type="curve" smooth="yes"/>
      <point x="1231" y="-402"/>
      <point x="1404" y="-345"/>
      <point x="1486" y="-313" type="curve"/>
      <point x="1434" y="-168" type="line"/>
      <point x="1344" y="-200"/>
      <point x="1202" y="-248"/>
      <point x="1015" y="-248" type="curve" smooth="yes"/>
      <point x="551" y="-248"/>
      <point x="260" y="51"/>
      <point x="260" y="527" type="curve" smooth="yes"/>
      <point x="260" y="1004"/>
      <point x="551" y="1304"/>
      <point x="1015" y="1304" type="curve" smooth="yes"/>
      <point x="1457" y="1304"/>
      <point x="1742" y="1019"/>
      <point x="1742" y="544" type="curve" smooth="yes"/>
      <point x="1742" y="312"/>
      <point x="1668" y="188"/>
      <point x="1528" y="188" type="curve" smooth="yes"/>
      <point x="1442" y="188"/>
      <point x="1400" y="241"/>
      <point x="1400" y="342" type="curve" smooth="yes"/>
      <point x="1400" y="992" type="line"/>
      <point x="1240" y="992" type="line"/>
      <point x="1240" y="889" type="line"/>
      <point x="1239" y="889" type="line"/>
      <point x="1200" y="950"/>
      <point x="1112" y="1016"/>
      <point x="977" y="1016" type="curve" smooth="yes"/>
      <point x="738" y="1016"/>
      <point x="548" y="812"/>
      <point x="548" y="528" type="curve" smooth="yes"/>
      <point x="548" y="271"/>
      <point x="704" y="41"/>
      <point x="967" y="41" type="curve" smooth="yes"/>
      <point x="1124" y="41"/>
      <point x="1219" y="124"/>
      <point x="1255" y="220" type="curve"/>
      <point x="1256" y="220" type="line"/>
      <point x="1268" y="158"/>
      <point x="1318" y="36"/>
      <point x="1517" y="36" type="curve" smooth="yes"/>
      <point x="1768" y="36"/>
      <point x="1904" y="227"/>
      <point x="1904" y="552" type="curve" smooth="yes"/>
      <point x="1904" y="1098"/>
      <point x="1537" y="1458"/>
      <point x="1015" y="1458" type="curve" smooth="yes"/>
      <point x="472" y="1458"/>
      <point x="90" y="1074"/>
      <point x="90" y="527" type="curve" smooth="yes"/>
      <point x="90" y="-18"/>
      <point x="472" y="-402"/>
    </contour>
    <contour>
      <point x="987" y="192" type="curve" smooth="yes"/>
      <point x="818" y="192"/>
      <point x="718" y="311"/>
      <point x="718" y="528" type="curve" smooth="yes"/>
      <point x="718" y="745"/>
      <point x="818" y="864"/>
      <point x="987" y="864" type="curve" smooth="yes"/>
      <point x="1158" y="864"/>
      <point x="1248" y="743"/>
      <point x="1248" y="528" type="curve" smooth="yes"/>
      <point x="1248" y="313"/>
      <point x="1158" y="192"/>
    </contour>
  </outline>
</glyph>
<glyph name="A" format="2">
  <advance width="1338"/>
  <unicode hex="0041"/>
  <anchor x="672" y="0" name="bottom"/>
  <anchor x="1318" y="0" name="ogonek"/>
  <anchor x="499" y="1490" name="tonos"/>
  <anchor x="672" y="1490" name="top"/>
  <outline>
    <contour>
      <point x="20" y="0" type="line"/>
      <point x="208" y="0" type="line"/>
      <point x="530" y="898" type="line" smooth="yes"/>
      <point x="573" y="1017"/>
      <point x="619" y="1154"/>
      <point x="698" y="1402" type="curve"/>
      <point x="646" y="1402" type="line"/>
      <point x="725" y="1154"/>
      <point x="771" y="1017"/>
      <point x="813" y="898" type="curve" smooth="yes"/>
      <point x="1126" y="0" type="line"/>
      <point x="1318" y="0" type="line"/>
      <point x="774" y="1490" type="line"/>
      <point x="570" y="1490" type="line"/>
    </contour>
    <contour>
      <point x="304" y="418" type="line"/>
      <point x="1034" y="418" type="line"/>
      <point x="1034" y="578" type="line"/>
      <point x="304" y="578" type="line"/>
    </contour>
  </outline>
</glyph>
<glyph name="B" format="2">
  <advance width="1307"/>
  <unicode hex="0042"/>
  <anchor x="636" y="0" name="bottom"/>
  <anchor x="272" y="419" name="cross"/>
  <anchor x="628" y="1490" name="top"/>
  <anchor x="148" y="1490" name="topl"/>
  <outline>
    <contour>
      <point x="148" y="0" type="line"/>
      <point x="694" y="0" type="line" smooth="yes"/>
      <point x="1052" y="0"/>
      <point x="1227" y="163"/>
      <point x="1227" y="418" type="curve" smooth="yes"/>
      <point x="1227" y="631"/>
      <point x="1093" y="742"/>
      <point x="924" y="770" type="curve"/>
      <point x="924" y="772" type="line"/>
      <point x="1076" y="823"/>
      <point x="1166" y="923"/>
      <point x="1166" y="1094" type="curve" smooth="yes"/>
      <point x="1166" y="1337"/>
      <point x="985" y="1490"/>
      <point x="686" y="1490" type="curve" smooth="yes"/>
      <point x="148" y="1490" type="line"/>
    </contour>
    <contour>
      <point x="328" y="160" type="line"/>
      <point x="328" y="678" type="line"/>
      <point x="704" y="678" type="line" smooth="yes"/>
      <point x="922" y="678"/>
      <point x="1044" y="576"/>
      <point x="1044" y="411" type="curve" smooth="yes"/>
      <point x="1044" y="246"/>
      <point x="919" y="160"/>
      <point x="694" y="160" type="curve" smooth="yes"/>
    </contour>
    <contour>
      <point x="328" y="836" type="line"/>
      <point x="328" y="1330" type="line"/>
      <point x="693" y="1330" type="line" smooth="yes"/>
      <point x="878" y="1330"/>
      <point x="988" y="1235"/>
      <point x="988" y="1083" type="curve" smooth="yes"/>
      <point x="988" y="931"/>
      <point x="878" y="836"/>
      <point x="693" y="836" type="curve" smooth="yes"/>
    </contour>
  </outline>
</glyph>
<glyph name="C" format="2">
  <advance width="1479"/>
  <unicode hex="0043"/>
  <anchor x="758" y="0" name="cedilla"/>
  <anchor x="769" y="745" name="center"/>
  <anchor x="758" y="1490" name="top"/>
  <anchor x="1393" y="1008" name="topr"/>
  <outline>
    <contour>
      <point x="779" y="-24" type="curve" smooth="yes"/>
      <point x="1091" y="-24"/>
      <point x="1339" y="170"/>
      <point x="1393" y="480" type="curve"/>
      <point x="1210" y="480" type="line"/>
      <point x="1159" y="264"/>
      <point x="994" y="144"/>
      <point x="779" y="144" type="curve" smooth="yes"/>
      <point x="465" y="144"/>
      <point x="270" y="390"/>
      <point x="270" y="744" type="curve" smooth="yes"/>
      <point x="270" y="1100"/>
      <point x="465" y="1346"/>
      <point x="779" y="1346" type="curve" smooth="yes"/>
      <point x="996" y="1346"/>
      <point x="1161" y="1225"/>
      <point x="1209" y="1008" type="curve"/>
      <point x="1393" y="1008" type="line"/>
      <point x="1338" y="1319"/>
      <point x="1091" y="1514"/>
      <point x="779" y="1514" type="curve" smooth="yes"/>
      <point x="366" y="1514"/>
      <point x="90" y="1195"/>
      <point x="90" y="744" type="curve" smooth="yes"/>
      <point x="90" y="296"/>
      <point x="367" y="-24"/>
    </contour>
  </outline>
</glyph>
<glyph name="D" format="2">
  <advance width="1412"/>
  <unicode hex="0044"/>
  <anchor x="590" y="0" name="bottom"/>
  <anchor x="350" y="745" name="cross"/>
  <anchor x="584" y="1490" name="top"/>
  <anchor x="148" y="1490" name="topl"/>
  <outline>
    <contour>
      <point x="608" y="0" type="line" smooth="yes"/>
      <point x="1062" y="0"/>
      <point x="1322" y="282"/>
      <point x="1322" y="748" type="curve" smooth="yes"/>
      <point x="1322" y="1210"/>
      <point x="1062" y="1490"/>
      <point x="628" y="1490" type="curve" smooth="yes"/>
      <point x="242" y="1490" type="line"/>
      <point x="242" y="1330" type="line"/>
      <point x="616" y="1330" type="line" smooth="yes"/>
      <point x="966" y="1330"/>
      <point x="1142" y="1108"/>
      <point x="1142" y="748" type="curve" smooth="yes"/>
      <point x="1142" y="384"/>
      <point x="966" y="160"/>
      <point x="596" y="160" type="curve" smooth="yes"/>
      <point x="250" y="160" type="line"/>
      <point x="250" y="0" type="line"/>
    </contour>
    <contour>
      <point x="328" y="1490" type="line"/>
      <point x="148" y="1490" type="line"/>
      <point x="148" y="0" type="line"/>
      <point x="328" y="0" type="line"/>
    </contour>
  </outline>
</glyph>
<glyph name="E" format="2">
  <advance width="1187"/>
  <unicode hex="0045"/>
  <anchor x="632" y="0" name="bottom"/>
  <anchor x="643" y="0" name="cedilla"/>
  <anchor x="1117" y="0" name="ogonek"/>
  <anchor x="148" y="1490" name="tonos"/>
  <anchor x="632" y="1490" name="top"/>
  <outline>
    <contour>
      <point x="148" y="0" type="line"/>
      <point x="1117" y="0" type="line"/>
      <point x="1117" y="160" type="line"/>
      <point x="328" y="160" type="line"/>
      <point x="328" y="683" type="line"/>
      <point x="1059" y="683" type="line"/>
      <point x="1059" y="843" type="line"/>
      <point x="328" y="843" type="line"/>
      <point x="328" y="1330" type="line"/>
      <point x="1117" y="1330" type="line"/>
      <point x="1117" y="1490" type="line"/>
      <point x="148" y="1490" type="line"/>
    </contour>
  </outline>
</glyph>
<glyph name="F" format="2">
  <advance width="1135"/>
  <unicode hex="0046"/>
  <anchor x="238" y="0" name="bottom"/>
  <anchor x="238" y="350" name="cross"/>
  <anchor x="148" y="0" name="lfthook"/>
  <anchor x="617" y="1490" name="top"/>
  <outline>
    <contour>
      <point x="148" y="0" type="line"/>
      <point x="328" y="0" type="line"/>
      <point x="328" y="683" type="line"/>
      <point x="1025" y="683" type="line"/>
      <point x="1025" y="843" type="line"/>
      <point x="328" y="843" type="line"/>
      <point x="328" y="1330" type="line"/>
      <point x="1085" y="1330" type="line"/>
      <point x="1085" y="1490" type="line"/>
      <point x="148" y="1490" type="line"/>
    </contour>
  </outline>
</glyph>
<glyph name="G" format="2">
  <advance width="1521"/>
  <unicode hex="0047"/>
  <anchor x="760" y="0" name="bottom"/>
  <anchor x="1152" y="392" name="cross"/>
  <anchor x="760" y="1490" name="top"/>
  <anchor x="1391" y="1008" name="topr"/>
  <outline>
    <contour>
      <point x="771" y="-24" type="curve" smooth="yes"/>
      <point x="1126" y="-24"/>
      <point x="1328" y="235"/>
      <point x="1328" y="496" type="curve" smooth="yes"/>
      <point x="1328" y="608" type="line"/>
      <point x="1227" y="608" type="line"/>
      <point x="1227" y="320"/>
      <point x="1020" y="144"/>
      <point x="771" y="144" type="curve" smooth="yes"/>
      <point x="473" y="144"/>
      <point x="270" y="390"/>
      <point x="270" y="744" type="curve" smooth="yes"/>
      <point x="270" y="1100"/>
      <point x="473" y="1346"/>
      <point x="771" y="1346" type="curve" smooth="yes"/>
      <point x="990" y="1346"/>
      <point x="1163" y="1208"/>
      <point x="1209" y="1008" type="curve"/>
      <point x="1391" y="1008" type="line"/>
      <point x="1339" y="1306"/>
      <point x="1087" y="1514"/>
      <point x="771" y="1514" type="curve" smooth="yes"/>
      <point x="374" y="1514"/>
      <point x="90" y="1195"/>
      <point x="90" y="744" type="curve" smooth="yes"/>
      <point x="90" y="296"/>
      <point x="375" y="-24"/>
    </contour>
    <contour>
      <point x="1257" y="0" type="line"/>
      <point x="1401" y="0" type="line"/>
      <point x="1401" y="745" type="line"/>
      <point x="832" y="745" type="line"/>
      <point x="832" y="585" type="line"/>
      <point x="1227" y="585" type="line"/>
      <point x="1227" y="279" type="line"/>
    </contour>
  </outline>
</glyph>
<glyph name="H" format="2">
  <advance width="1450"/>
  <unicode hex="0048"/>
  <anchor x="725" y="0" name="bottom"/>
  <anchor x="237" y="0" name="cedilla"/>
  <anchor x="1302" y="0" name="cyrtic"/>
  <anchor x="1122" y="0" name="lfthook"/>
  <anchor x="1304" y="0" name="right"/>
  <anchor x="148" y="1490" name="tonos"/>
  <anchor x="725" y="1490" name="top"/>
  <outline>
    <contour>
      <point x="148" y="0" type="line"/>
      <point x="328" y="0" type="line"/>
      <point x="328" y="683" type="line"/>
      <point x="1122" y="683" type="line"/>
      <point x="1122" y="0" type="line"/>
      <point x="1302" y="0" type="line"/>
      <point x="1302" y="1490" type="line"/>
      <point x="1122" y="1490" type="line"/>
      <point x="1122" y="843" type="line"/>
      <point x="328" y="843" type="line"/>
      <point x="328" y="1490" type="line"/>
      <point x="148" y="1490" type="line"/>
    </contour>
  </outline>
</glyph>
<glyph name="I" format="2">
  <advance width="476"/>
  <unicode hex="0049"/>
  <anchor x="238" y="0" name="bottom"/>
  <anchor x="238" y="768" name="cross"/>
  <anchor x="328" y="0" name="ogonek"/>
  <anchor x="344" y="0" name="right"/>
  <anchor x="148" y="1490" name="tonos"/>
  <anchor x="238" y="1490" name="top"/>
  <outline>
    <contour>
      <point x="328" y="1490" type="line"/>
      <point x="148" y="1490" type="line"/>
      <point x="148" y="0" type="line"/>
      <point x="328" y="0" type="line"/>
    </contour>
  </outline>
</glyph>
<glyph name="J" format="2">
  <advance width="1095"/>
  <unicode hex="004A"/>
  <anchor x="865" y="884" name="cross"/>
  <anchor x="865" y="1490" name="top"/>
  <outline>
    <contour>
      <point x="515" y="-20" type="curve" smooth="yes"/>
      <point x="774" y="-20"/>
      <point x="955" y="139"/>
      <point x="955" y="424" type="curve" smooth="yes"/>
      <point x="955" y="1490" type="line"/>
      <point x="775" y="1490" type="line"/>
      <point x="775" y="424" type="line" smooth="yes"/>
      <point x="775" y="239"/>
      <point x="671" y="140"/>
      <point x="515" y="140" type="curve" smooth="yes"/>
      <point x="359" y="140"/>
      <point x="255" y="239"/>
      <point x="255" y="424" type="curve" smooth="yes"/>
      <point x="255" y="504" type="line"/>
      <point x="75" y="504" type="line"/>
      <point x="75" y="424" type="line" smooth="yes"/>
      <point x="75" y="139"/>
      <point x="256" y="-20"/>
    </contour>
  </outline>
</glyph>
<glyph name="K" format="2">
  <advance width="1299"/>
  <unicode hex="004B"/>
  <anchor x="664" y="0" name="bottom"/>
  <anchor x="664" y="1490" name="top"/>
  <outline>
    <contour>
      <point x="270" y="426" type="line"/>
      <point x="629" y="812" type="line"/>
      <point x="638" y="812" type="line"/>
      <point x="1274" y="1490" type="line"/>
      <point x="1036" y="1490" type="line"/>
      <point x="584" y="1004" type="line" smooth="yes"/>
      <point x="477" y="889"/>
      <point x="374" y="777"/>
      <point x="270" y="662" type="curve"/>
    </contour>
    <contour>
      <point x="148" y="0" type="line"/>
      <point x="328" y="0" type="line"/>
      <point x="328" y="567" type="line"/>
      <point x="328" y="655" type="line"/>
      <point x="328" y="971" type="line"/>
      <point x="328" y="1490" type="line"/>
      <point x="148" y="1490" type="line"/>
    </contour>
    <contour>
      <point x="1061" y="0" type="line"/>
      <point x="1274" y="0" type="line"/>
      <point x="625" y="907" type="line"/>
      <point x="514" y="765" type="line"/>
    </contour>
  </outline>
</glyph>
<glyph name="M" format="2">
  <advance width="1756"/>
  <unicode hex="004D"/>
  <anchor x="878" y="0" name="bottom"/>
  <anchor x="1604" y="0" name="cyrtic"/>
  <anchor x="878" y="1490" name="top"/>
  <outline>
    <contour>
      <point x="148" y="0" type="line"/>
      <point x="326" y="0" type="line"/>
      <point x="326" y="864" type="line" smooth="yes"/>
      <point x="326" y="992"/>
      <point x="322" y="1163"/>
      <point x="318" y="1312" type="curve"/>
      <point x="284" y="1312" type="line"/>
      <point x="355" y="1124"/>
      <point x="419" y="956"/>
      <point x="456" y="864" type="curve" smooth="yes"/>
      <point x="804" y="0" type="line"/>
      <point x="952" y="0" type="line"/>
      <point x="1298" y="864" type="line" smooth="yes"/>
      <point x="1335" y="956"/>
      <point x="1396" y="1124"/>
      <point x="1464" y="1312" type="curve"/>
      <point x="1439" y="1312" type="line"/>
      <point x="1435" y="1163"/>
      <point x="1431" y="992"/>
      <point x="1431" y="864" type="curve" smooth="yes"/>
      <point x="1431" y="0" type="line"/>
      <point x="1608" y="0" type="line"/>
      <point x="1608" y="1490" type="line"/>
      <point x="1362" y="1490" type="line"/>
      <point x="990" y="528" type="line" smooth="yes"/>
      <point x="957" y="442"/>
      <point x="887" y="258"/>
      <point x="861" y="180" type="curve"/>
      <point x="902" y="180" type="line"/>
      <point x="874" y="258"/>
      <point x="805" y="442"/>
      <point x="771" y="528" type="curve" smooth="yes"/>
      <point x="393" y="1490" type="line"/>
      <point x="148" y="1490" type="line"/>
    </contour>
  </outline>
</glyph>
<glyph name="N" format="2">
  <advance width="1454"/>
  <unicode hex="004E"/>
  <anchor x="727" y="0" name="bottom"/>
  <anchor x="148" y="0" name="lfthook"/>
  <anchor x="1306" y="0" name="lfthook2"/>
  <anchor x="727" y="1490" name="top"/>
  <outline>
    <contour>
      <point x="148" y="0" type="line"/>
      <point x="328" y="0" type="line"/>
      <point x="328" y="864" type="line" smooth="yes"/>
      <point x="328" y="940"/>
      <point x="325" y="1099"/>
      <point x="316" y="1332" type="curve"/>
      <point x="295" y="1284" type="line"/>
      <point x="413" y="1085"/>
      <point x="507" y="931"/>
      <point x="551" y="862" type="curve" smooth="yes"/>
      <point x="1097" y="0" type="line"/>
      <point x="1306" y="0" type="line"/>
      <point x="1306" y="1490" type="line"/>
      <point x="1126" y="1490" type="line"/>
      <point x="1126" y="528" type="line" smooth="yes"/>
      <point x="1126" y="466"/>
      <point x="1130" y="279"/>
      <point x="1135" y="174" type="curve"/>
      <point x="1152" y="210" type="line"/>
      <point x="1087" y="325"/>
      <point x="1008" y="458"/>
      <point x="969" y="520" type="curve" smooth="yes"/>
      <point x="355" y="1490" type="line"/>
      <point x="148" y="1490" type="line"/>
    </contour>
  </outline>
</glyph>
<glyph name="O" format="2">
  <advance width="1534"/>
  <unicode hex="004F"/>
  <anchor x="767" y="0" name="bottom"/>
  <anchor x="767" y="745" name="center"/>
  <anchor x="1444" y="744" name="ogonek"/>
  <anchor x="257" y="1490" name="tonos"/>
  <anchor x="767" y="1490" name="top"/>
  <anchor x="767" y="1514" name="tophorn"/>
  <outline>
    <contour>
      <point x="767" y="-24" type="curve" smooth="yes"/>
      <point x="1162" y="-24"/>
      <point x="1444" y="297"/>
      <point x="1444" y="744" type="curve" smooth="yes"/>
      <point x="1444" y="1193"/>
      <point x="1162" y="1514"/>
      <point x="767" y="1514" type="curve" smooth="yes"/>
      <point x="372" y="1514"/>
      <point x="90" y="1193"/>
      <point x="90" y="744" type="curve" smooth="yes"/>
      <point x="90" y="297"/>
      <point x="372" y="-24"/>
    </contour>
    <contour>
      <point x="767" y="144" type="curve" smooth="yes"/>
      <point x="496" y="144"/>
      <point x="270" y="358"/>
      <point x="270" y="744" type="curve" smooth="yes"/>
      <point x="270" y="1132"/>
      <point x="496" y="1346"/>
      <point x="767" y="1346" type="curve" smooth="yes"/>
      <point x="1037" y="1346"/>
      <point x="1264" y="1132"/>
      <point x="1264" y="744" type="curve" smooth="yes"/>
      <point x="1264" y="358"/>
      <point x="1037" y="144"/>
    </contour>
  </outline>
</glyph>
<glyph name="P" format="2">
  <advance width="1253"/>
  <unicode hex="0050"/>
  <anchor x="114" y="1490" name="tonos"/>
  <anchor x="616" y="1490" name="top"/>
  <anchor x="148" y="1490" name="topl"/>
  <outline>
    <contour>
      <point x="148" y="0" type="line"/>
      <point x="328" y="0" type="line"/>
      <point x="328" y="1330" type="line"/>
      <point x="676" y="1330" type="line" smooth="yes"/>
      <point x="883" y="1330"/>
      <point x="1010" y="1219"/>
      <point x="1010" y="1038" type="curve" smooth="yes"/>
      <point x="1010" y="857"/>
      <point x="883" y="745"/>
      <point x="676" y="745" type="curve" smooth="yes"/>
      <point x="238" y="745" type="line"/>
      <point x="238" y="585" type="line"/>
      <point x="674" y="585" type="line" smooth="yes"/>
      <point x="985" y="585"/>
      <point x="1188" y="760"/>
      <point x="1188" y="1038" type="curve" smooth="yes"/>
      <point x="1188" y="1316"/>
      <point x="993" y="1490"/>
      <point x="682" y="1490" type="curve" smooth="yes"/>
      <point x="148" y="1490" type="line"/>
    </contour>
  </outline>
</glyph>
<glyph name="Q" format="2">
  <advance width="1534"/>
  <unicode hex="0051"/>
  <anchor x="767" y="0" name="bottom"/>
  <anchor x="767" y="745" name="center"/>
  <anchor x="1444" y="744" name="ogonek"/>
  <anchor x="257" y="1490" name="tonos"/>
  <anchor x="767" y="1490" name="top"/>
  <anchor x="767" y="1514" name="tophorn"/>
  <outline>
    <contour>
      <point x="690" y="466" type="line"/>
      <point x="942" y="134" type="line"/>
      <point x="984" y="78" type="line"/>
      <point x="1146" y="-140" type="line"/>
      <point x="1344" y="-140" type="line"/>
      <point x="1096" y="190" type="line"/>
      <point x="1054" y="248" type="line"/>
      <point x="888" y="466" type="line"/>
    </contour>
    <component base="O"/>
  </outline>
</glyph>
<glyph name="R" format="2">
  <advance width="1295"/>
  <unicode hex="0052"/>
  <anchor x="651" y="0" name="bottom"/>
  <anchor x="642" y="1490" name="top"/>
  <outline>
    <contour>
      <point x="148" y="0" type="line"/>
      <point x="328" y="0" type="line"/>
      <point x="328" y="1330" type="line"/>
      <point x="695" y="1330" type="line" smooth="yes"/>
      <point x="902" y="1330"/>
      <point x="1029" y="1219"/>
      <point x="1029" y="1038" type="curve" smooth="yes"/>
      <point x="1029" y="857"/>
      <point x="903" y="745"/>
      <point x="697" y="745" type="curve" smooth="yes"/>
      <point x="248" y="745" type="line"/>
      <point x="248" y="585" type="line"/>
      <point x="687" y="585" type="line" smooth="yes"/>
      <point x="997" y="585"/>
      <point x="1207" y="759"/>
      <point x="1207" y="1038" type="curve" smooth="yes"/>
      <point x="1207" y="1316"/>
      <point x="1012" y="1490"/>
      <point x="701" y="1490" type="curve" smooth="yes"/>
      <point x="148" y="1490" type="line"/>
    </contour>
    <contour>
      <point x="1015" y="0" type="line"/>
      <point x="1225" y="0" type="line"/>
      <point x="859" y="670" type="line"/>
      <point x="655" y="670" type="line"/>
    </contour>
  </outline>
</glyph>
<glyph name="S" format="2">
  <advance width="1258"/>
  <unicode hex="0053"/>
  <anchor x="633" y="0" name="bottom"/>
  <anchor x="633" y="0" name="cedilla"/>
  <anchor x="624" y="1490" name="top"/>
  <outline>
    <contour>
      <point x="640" y="-24" type="curve" smooth="yes"/>
      <point x="964" y="-24"/>
      <point x="1180" y="151"/>
      <point x="1180" y="410" type="curve" smooth="yes"/>
      <point x="1180" y="618"/>
      <point x="1044" y="746"/>
      <point x="754" y="818" type="curve" smooth="yes"/>
      <point x="585" y="860" type="line" smooth="yes"/>
      <point x="369" y="914"/>
      <point x="286" y="981"/>
      <point x="286" y="1097" type="curve" smooth="yes"/>
      <point x="286" y="1245"/>
      <point x="423" y="1349"/>
      <point x="616" y="1349" type="curve" smooth="yes"/>
      <point x="818" y="1349"/>
      <point x="949" y="1236"/>
      <point x="960" y="1050" type="curve"/>
      <point x="1138" y="1050" type="line"/>
      <point x="1130" y="1336"/>
      <point x="932" y="1514"/>
      <point x="622" y="1514" type="curve" smooth="yes"/>
      <point x="311" y="1514"/>
      <point x="108" y="1345"/>
      <point x="108" y="1088" type="curve" smooth="yes"/>
      <point x="108" y="885"/>
      <point x="234" y="767"/>
      <point x="538" y="692" type="curve" smooth="yes"/>
      <point x="705" y="651" type="line" smooth="yes"/>
      <point x="920" y="598"/>
      <point x="1000" y="526"/>
      <point x="1000" y="402" type="curve" smooth="yes"/>
      <point x="1000" y="242"/>
      <point x="857" y="140"/>
      <point x="640" y="140" type="curve" smooth="yes"/>
      <point x="401" y="140"/>
      <point x="262" y="267"/>
      <point x="262" y="480" type="curve"/>
      <point x="78" y="480" type="line"/>
      <point x="78" y="170"/>
      <point x="296" y="-24"/>
    </contour>
  </outline>
</glyph>
<glyph name="T" format="2">
  <advance width="1250"/>
  <unicode hex="0054"/>
  <anchor x="626" y="0" name="bottom"/>
  <anchor x="716" y="0" name="bottomr"/>
  <anchor x="627" y="0" name="cedilla"/>
  <anchor x="626" y="768" name="cross"/>
  <anchor x="716" y="0" name="cyrtic"/>
  <anchor x="666" y="0" name="right"/>
  <anchor x="626" y="1490" name="top"/>
  <outline>
    <contour>
      <point x="50" y="1330" type="line"/>
      <point x="536" y="1330" type="line"/>
      <point x="536" y="0" type="line"/>
      <point x="716" y="0" type="line"/>
      <point x="716" y="1330" type="line"/>
      <point x="1200" y="1330" type="line"/>
      <point x="1200" y="1490" type="line"/>
      <point x="50" y="1490" type="line"/>
    </contour>
  </outline>
</glyph>
<glyph name="U" format="2">
  <advance width="1440"/>
  <unicode hex="0055"/>
  <anchor x="720" y="0" name="bottom"/>
  <anchor x="1300" y="506" name="ogonek"/>
  <anchor x="804" y="0" name="right"/>
  <anchor x="1120" y="1490" name="rtophorn"/>
  <anchor x="720" y="1490" name="top"/>
  <outline>
    <contour>
      <point x="720" y="-24" type="curve" smooth="yes"/>
      <point x="1071" y="-24"/>
      <point x="1300" y="200"/>
      <point x="1300" y="506" type="curve" smooth="yes"/>
      <point x="1300" y="1490" type="line"/>
      <point x="1120" y="1490" type="line"/>
      <point x="1120" y="520" type="line" smooth="yes"/>
      <point x="1120" y="302"/>
      <point x="969" y="144"/>
      <point x="720" y="144" type="curve" smooth="yes"/>
      <point x="471" y="144"/>
      <point x="320" y="302"/>
      <point x="320" y="520" type="curve" smooth="yes"/>
      <point x="320" y="1490" type="line"/>
      <point x="140" y="1490" type="line"/>
      <point x="140" y="506" type="line" smooth="yes"/>
      <point x="140" y="200"/>
      <point x="369" y="-24"/>
    </contour>
  </outline>
</glyph>
<glyph name="V" format="2">
  <advance width="1338"/>
  <unicode hex="0056"/>
  <anchor x="669" y="0" name="bottom"/>
  <anchor x="669" y="1490" name="top"/>
  <outline>
    <contour>
      <point x="570" y="0" type="line"/>
      <point x="774" y="0" type="line"/>
      <point x="1318" y="1490" type="line"/>
      <point x="1130" y="1490" type="line"/>
      <point x="816" y="592" type="line" smooth="yes"/>
      <point x="782" y="494"/>
      <point x="729" y="336"/>
      <point x="650" y="88" type="curve"/>
      <point x="700" y="88" type="line"/>
      <point x="619" y="336"/>
      <point x="567" y="494"/>
      <point x="532" y="592" type="curve" smooth="yes"/>
      <point x="210" y="1490" type="line"/>
      <point x="20" y="1490" type="line"/>
    </contour>
  </outline>
</glyph>
<glyph name="W" format="2">
  <advance width="1944"/>
  <unicode hex="0057"/>
  <anchor x="972" y="0" name="bottom"/>
  <anchor x="972" y="1490" name="top"/>
  <outline>
    <contour>
      <point x="426" y="0" type="line"/>
      <point x="638" y="0" type="line"/>
      <point x="898" y="960" type="line" smooth="yes"/>
      <point x="934" y="1093"/>
      <point x="962" y="1227"/>
      <point x="990" y="1360" type="curve"/>
      <point x="952" y="1360" type="line"/>
      <point x="980" y="1227"/>
      <point x="1009" y="1093"/>
      <point x="1045" y="960" type="curve" smooth="yes"/>
      <point x="1306" y="0" type="line"/>
      <point x="1516" y="0" type="line"/>
      <point x="1924" y="1490" type="line"/>
      <point x="1740" y="1490" type="line"/>
      <point x="1500" y="560" type="line"/>
      <point x="1463" y="416"/>
      <point x="1428" y="272"/>
      <point x="1399" y="128" type="curve"/>
      <point x="1423" y="128" type="line"/>
      <point x="1393" y="272"/>
      <point x="1358" y="416"/>
      <point x="1320" y="560" type="curve"/>
      <point x="1076" y="1490" type="line"/>
      <point x="868" y="1490" type="line"/>
      <point x="622" y="560" type="line"/>
      <point x="584" y="416"/>
      <point x="550" y="272"/>
      <point x="521" y="128" type="curve"/>
      <point x="542" y="128" type="line"/>
      <point x="513" y="272"/>
      <point x="480" y="416"/>
      <point x="443" y="560" type="curve"/>
      <point x="202" y="1490" type="line"/>
      <point x="20" y="1490" type="line"/>
    </contour>
  </outline>
</glyph>
<glyph name="X" format="2">
  <advance width="1322"/>
  <unicode hex="0058"/>
  <anchor x="661" y="0" name="bottom"/>
  <anchor x="661" y="765" name="cross"/>
  <anchor x="1248" y="0" name="cyrtic"/>
  <anchor x="661" y="1490" name="top"/>
  <outline>
    <contour>
      <point x="25" y="0" type="line"/>
      <point x="229" y="0" type="line"/>
      <point x="496" y="384" type="line" smooth="yes"/>
      <point x="559" y="475"/>
      <point x="621" y="565"/>
      <point x="682" y="656" type="curve"/>
      <point x="642" y="656" type="line"/>
      <point x="702" y="565"/>
      <point x="762" y="475"/>
      <point x="825" y="384" type="curve" smooth="yes"/>
      <point x="1090" y="0" type="line"/>
      <point x="1297" y="0" type="line"/>
      <point x="722" y="836" type="line"/>
      <point x="722" y="703" type="line"/>
      <point x="1270" y="1490" type="line"/>
      <point x="1067" y="1490" type="line"/>
      <point x="843" y="1168" type="line" smooth="yes"/>
      <point x="776" y="1072"/>
      <point x="712" y="976"/>
      <point x="648" y="880" type="curve"/>
      <point x="677" y="880" type="line"/>
      <point x="614" y="976"/>
      <point x="550" y="1072"/>
      <point x="485" y="1168" type="curve" smooth="yes"/>
      <point x="265" y="1490" type="line"/>
      <point x="57" y="1490" type="line"/>
      <point x="605" y="696" type="line"/>
      <point x="605" y="829" type="line"/>
    </contour>
  </outline>
</glyph>
<glyph name="Y" format="2">
  <advance width="1316"/>
  <unicode hex="0059"/>
  <anchor x="658" y="0" name="bottom"/>
  <anchor x="658" y="392" name="cross"/>
  <anchor x="748" y="0" name="ogonek"/>
  <anchor x="20" y="1490" name="tonos"/>
  <anchor x="658" y="1490" name="top"/>
  <outline>
    <contour>
      <point x="568" y="0" type="line"/>
      <point x="748" y="0" type="line"/>
      <point x="748" y="614" type="line"/>
      <point x="1296" y="1490" type="line"/>
      <point x="1089" y="1490" type="line"/>
      <point x="791" y="1008" type="line" smooth="yes"/>
      <point x="732" y="912"/>
      <point x="676" y="816"/>
      <point x="621" y="720" type="curve"/>
      <point x="698" y="720" type="line"/>
      <point x="642" y="816"/>
      <point x="587" y="912"/>
      <point x="527" y="1008" type="curve" smooth="yes"/>
      <point x="228" y="1490" type="line"/>
      <point x="20" y="1490" type="line"/>
      <point x="568" y="614" type="line"/>
    </contour>
  </outline>
</glyph>
<glyph name="Z" format="2">
  <advance width="1256"/>
  <unicode hex="005A"/>
  <anchor x="628" y="0" name="bottom"/>
  <anchor x="1198" y="0" name="bottomr"/>
  <anchor x="628" y="745" name="cross"/>
  <anchor x="628" y="1490" name="top"/>
  <outline>
    <contour>
      <point x="58" y="0" type="line"/>
      <point x="1198" y="0" type="line"/>
      <point x="1198" y="160" type="line"/>
      <point x="520" y="160" type="line" smooth="yes"/>
      <point x="411" y="160"/>
      <point x="302" y="160"/>
      <point x="193" y="160" type="curve"/>
      <point x="216" y="96" type="line"/>
      <point x="290" y="184"/>
      <point x="360" y="271"/>
      <point x="428" y="359" type="curve" smooth="yes"/>
      <point x="1190" y="1338" type="line"/>
      <point x="1190" y="1490" type="line"/>
      <point x="90" y="1490" type="line"/>
      <point x="90" y="1330" type="line"/>
      <point x="720" y="1330" type="line" smooth="yes"/>
      <point x="832" y="1330"/>
      <point x="943" y="1330"/>
      <point x="1055" y="1330" type="curve"/>
      <point x="1032" y="1394" type="line"/>
      <point x="965" y="1314"/>
      <point x="899" y="1233"/>
      <point x="837" y="1153" type="curve" smooth="yes"/>
      <point x="58" y="152" type="line"/>
    </contour>
  </outline>
</glyph>
<glyph name="bracketleft" format="2">
  <advance width="612"/>
  <unicode hex="005B"/>
  <anchor x="244" y="636" name="cross"/>
  <outline>
    <contour>
      <point x="159" y="-294" type="line"/>
      <point x="533" y="-294" type="line"/>
      <point x="533" y="-148" type="line"/>
      <point x="329" y="-148" type="line"/>
      <point x="329" y="1420" type="line"/>
      <point x="533" y="1420" type="line"/>
      <point x="533" y="1566" type="line"/>
      <point x="159" y="1566" type="line"/>
    </contour>
  </outline>
</glyph>
<glyph name="backslash" format="2">
  <advance width="666"/>
  <unicode hex="005C"/>
  <outline>
    <contour>
      <point x="494" y="-224" type="line"/>
      <point x="652" y="-224" type="line"/>
      <point x="172" y="1560" type="line"/>
      <point x="14" y="1560" type="line"/>
    </contour>
  </outline>
</glyph>
<glyph name="bracketright" format="2">
  <advance width="612"/>
  <unicode hex="005D"/>
  <anchor x="368" y="636" name="cross"/>
  <outline>
    <contour>
      <point x="79" y="-294" type="line"/>
      <point x="453" y="-294" type="line"/>
      <point x="453" y="1566" type="line"/>
      <point x="79" y="1566" type="line"/>
      <point x="79" y="1420" type="line"/>
      <point x="283" y="1420" type="line"/>
      <point x="283" y="-148" type="line"/>
      <point x="79" y="-148" type="line"/>
    </contour>
  </outline>
</glyph>
<glyph name="asciicircum" format="2">
  <advance width="896"/>
  <unicode hex="005E"/>
  <outline>
    <contour>
      <point x="422" y="1362" type="line"/>
      <point x="422" y="1288" type="line"/>
      <point x="474" y="1288" type="line"/>
      <point x="474" y="1362" type="line"/>
    </contour>
    <contour>
      <point x="50" y="814" type="line"/>
      <point x="224" y="814" type="line"/>
      <point x="456" y="1318" type="line"/>
      <point x="440" y="1318" type="line"/>
      <point x="674" y="814" type="line"/>
      <point x="846" y="814" type="line"/>
      <point x="546" y="1442" type="line"/>
      <point x="350" y="1442" type="line"/>
    </contour>
  </outline>
</glyph>
<glyph name="underscore" format="2">
  <advance width="930"/>
  <unicode hex="005F"/>
  <anchor x="465" y="242" name="_bottom"/>
  <outline>
    <contour>
      <point x="930" y="0" type="line"/>
      <point x="0" y="0" type="line"/>
      <point x="0" y="-160" type="line"/>
      <point x="930" y="-160" type="line"/>
    </contour>
  </outline>
</glyph>
<glyph name="a" format="2">
  <advance width="1160"/>
  <unicode hex="0061"/>
  <anchor x="558" y="0" name="bottom"/>
  <anchor x="1034" y="0" name="bottomr"/>
  <anchor x="1034" y="0" name="ogonek"/>
  <anchor x="558" y="1056" name="top"/>
  <anchor x="1034" y="1056" name="topr"/>
  <outline>
    <contour>
      <point x="530" y="-20" type="curve" smooth="yes"/>
      <point x="667" y="-20"/>
      <point x="788" y="38"/>
      <point x="864" y="160" type="curve"/>
      <point x="866" y="160" type="line"/>
      <point x="866" y="0" type="line"/>
      <point x="1034" y="0" type="line"/>
      <point x="1034" y="1056" type="line"/>
      <point x="866" y="1056" type="line"/>
      <point x="866" y="900" type="line"/>
      <point x="864" y="900" type="line"/>
      <point x="796" y="1018"/>
      <point x="667" y="1076"/>
      <point x="530" y="1076" type="curve" smooth="yes"/>
      <point x="255" y="1076"/>
      <point x="72" y="854"/>
      <point x="72" y="528" type="curve" smooth="yes"/>
      <point x="72" y="203"/>
      <point x="255" y="-20"/>
    </contour>
    <contour>
      <point x="556" y="133" type="curve" smooth="yes"/>
      <point x="373" y="133"/>
      <point x="244" y="269"/>
      <point x="244" y="528" type="curve" smooth="yes"/>
      <point x="244" y="787"/>
      <point x="373" y="924"/>
      <point x="556" y="924" type="curve" smooth="yes"/>
      <point x="752" y="924"/>
      <point x="876" y="767"/>
      <point x="876" y="528" type="curve" smooth="yes"/>
      <point x="876" y="289"/>
      <point x="752" y="133"/>
    </contour>
  </outline>
</glyph>
<glyph name="b" format="2">
  <advance width="1158"/>
  <unicode hex="0062"/>
  <anchor x="608" y="0" name="bottom"/>
  <anchor x="296" y="1262" name="cross"/>
  <anchor x="644" y="1262" name="top"/>
  <anchor x="126" y="1490" name="topbar"/>
  <outline>
    <contour>
      <point x="628" y="-20" type="curve" smooth="yes"/>
      <point x="903" y="-20"/>
      <point x="1086" y="203"/>
      <point x="1086" y="528" type="curve" smooth="yes"/>
      <point x="1086" y="854"/>
      <point x="903" y="1076"/>
      <point x="628" y="1076" type="curve" smooth="yes"/>
      <point x="491" y="1076"/>
      <point x="366" y="1018"/>
      <point x="298" y="900" type="curve"/>
      <point x="296" y="900" type="line"/>
      <point x="296" y="1490" type="line"/>
      <point x="126" y="1490" type="line"/>
      <point x="126" y="0" type="line"/>
      <point x="292" y="0" type="line"/>
      <point x="292" y="160" type="line"/>
      <point x="294" y="160" type="line"/>
      <point x="370" y="38"/>
      <point x="491" y="-20"/>
    </contour>
    <contour>
      <point x="602" y="133" type="curve" smooth="yes"/>
      <point x="406" y="133"/>
      <point x="282" y="289"/>
      <point x="282" y="528" type="curve" smooth="yes"/>
      <point x="282" y="767"/>
      <point x="406" y="924"/>
      <point x="602" y="924" type="curve" smooth="yes"/>
      <point x="785" y="924"/>
      <point x="914" y="787"/>
      <point x="914" y="528" type="curve" smooth="yes"/>
      <point x="914" y="269"/>
      <point x="785" y="133"/>
    </contour>
  </outline>
</glyph>
<glyph name="e" format="2">
  <advance width="1098"/>
  <unicode hex="0065"/>
  <anchor x="550" y="0" name="bottom"/>
  <anchor x="556" y="0" name="cedilla"/>
  <anchor x="1012" y="316" name="ogonek"/>
  <anchor x="550" y="1056" name="top"/>
  <outline>
    <contour>
      <point x="562" y="-24" type="curve" smooth="yes"/>
      <point x="792" y="-24"/>
      <point x="972" y="114"/>
      <point x="1012" y="316" type="curve"/>
      <point x="842" y="316" type="line"/>
      <point x="810" y="206"/>
      <point x="712" y="130"/>
      <point x="562" y="130" type="curve" smooth="yes"/>
      <point x="355" y="130"/>
      <point x="240" y="283"/>
      <point x="240" y="502" type="curve" smooth="yes"/>
      <point x="240" y="574" type="line" smooth="yes"/>
      <point x="240" y="789"/>
      <point x="362" y="928"/>
      <point x="550" y="928" type="curve" smooth="yes"/>
      <point x="739" y="928"/>
      <point x="862" y="789"/>
      <point x="862" y="574" type="curve"/>
      <point x="935" y="625" type="line"/>
      <point x="162" y="625" type="line"/>
      <point x="162" y="479" type="line"/>
      <point x="1030" y="479" type="line"/>
      <point x="1030" y="526" type="line" smooth="yes"/>
      <point x="1030" y="854"/>
      <point x="844" y="1080"/>
      <point x="550" y="1080" type="curve" smooth="yes"/>
      <point x="270" y="1080"/>
      <point x="72" y="847"/>
      <point x="72" y="526" type="curve" smooth="yes"/>
      <point x="72" y="208"/>
      <point x="252" y="-24"/>
    </contour>
  </outline>
</glyph>
<glyph name="f" format="2">
  <advance width="627"/>
  <unicode hex="0066"/>
  <anchor x="288" y="0" name="bottom"/>
  <anchor x="288" y="768" name="cross"/>
  <anchor x="367" y="1490" name="top"/>
  <outline>
    <contour>
      <point x="587" y="1056" type="line"/>
      <point x="15" y="1056" type="line"/>
      <point x="15" y="910" type="line"/>
      <point x="587" y="910" type="line"/>
    </contour>
    <component base="_part.f_base" xOffset="3"/>
  </outline>
</glyph>
<glyph name="g" format="2">
  <advance width="1158"/>
  <unicode hex="0067"/>
  <anchor x="566" y="-432" name="bottom"/>
  <anchor x="952" y="564" name="cross"/>
  <anchor x="554" y="1056" name="top"/>
  <anchor x="1032" y="1056" name="topr"/>
  <outline>
    <contour>
      <point x="568" y="-432" type="curve" smooth="yes"/>
      <point x="814" y="-432"/>
      <point x="1032" y="-312"/>
      <point x="1032" y="0" type="curve" smooth="yes"/>
      <point x="1032" y="1056" type="line"/>
      <point x="866" y="1056" type="line"/>
      <point x="866" y="891" type="line"/>
      <point x="865" y="891" type="line"/>
      <point x="792" y="1021"/>
      <point x="667" y="1076"/>
      <point x="530" y="1076" type="curve" smooth="yes"/>
      <point x="255" y="1076"/>
      <point x="72" y="854"/>
      <point x="72" y="528" type="curve" smooth="yes"/>
      <point x="72" y="203"/>
      <point x="255" y="-20"/>
      <point x="530" y="-20" type="curve" smooth="yes"/>
      <point x="669" y="-20"/>
      <point x="785" y="37"/>
      <point x="863" y="160" type="curve"/>
      <point x="864" y="160" type="line"/>
      <point x="864" y="0" type="line" smooth="yes"/>
      <point x="864" y="-180"/>
      <point x="752" y="-282"/>
      <point x="568" y="-282" type="curve" smooth="yes"/>
      <point x="432" y="-282"/>
      <point x="328" y="-226"/>
      <point x="298" y="-112" type="curve"/>
      <point x="124" y="-112" type="line"/>
      <point x="150" y="-320"/>
      <point x="330" y="-432"/>
    </contour>
    <contour>
      <point x="556" y="133" type="curve" smooth="yes"/>
      <point x="373" y="133"/>
      <point x="244" y="269"/>
      <point x="244" y="528" type="curve" smooth="yes"/>
      <point x="244" y="787"/>
      <point x="373" y="924"/>
      <point x="556" y="924" type="curve" smooth="yes"/>
      <point x="752" y="924"/>
      <point x="876" y="767"/>
      <point x="876" y="528" type="curve" smooth="yes"/>
      <point x="876" y="289"/>
      <point x="752" y="133"/>
    </contour>
  </outline>
</glyph>
<glyph name="h" format="2">
  <advance width="1120"/>
  <unicode hex="0068"/>
  <anchor x="560" y="0" name="bottom"/>
  <anchor x="211" y="0" name="cedilla"/>
  <anchor x="296" y="1262" name="cross"/>
  <anchor x="824" y="0" name="lfthook"/>
  <anchor x="211" y="1490" name="top"/>
  <outline>
    <contour>
      <point x="296" y="618" type="line" smooth="yes"/>
      <point x="296" y="831"/>
      <point x="420" y="920"/>
      <point x="574" y="920" type="curve" smooth="yes"/>
      <point x="732" y="920"/>
      <point x="824" y="827"/>
      <point x="824" y="644" type="curve" smooth="yes"/>
      <point x="824" y="0" type="line"/>
      <point x="994" y="0" type="line"/>
      <point x="994" y="656" type="line" smooth="yes"/>
      <point x="994" y="937"/>
      <point x="819" y="1076"/>
      <point x="606" y="1076" type="curve" smooth="yes"/>
      <point x="439" y="1076"/>
      <point x="313" y="990"/>
      <point x="244" y="800" type="curve"/>
      <point x="296" y="800" type="line"/>
      <point x="296" y="1490" type="line"/>
      <point x="126" y="1490" type="line"/>
      <point x="126" y="0" type="line"/>
      <point x="296" y="0" type="line"/>
    </contour>
  </outline>
</glyph>
<glyph name="k" format="2">
  <advance width="1039"/>
  <unicode hex="006B"/>
  <anchor x="544" y="0" name="bottom"/>
  <anchor x="211" y="1490" name="top"/>
  <outline>
    <contour>
      <point x="285" y="380" type="line"/>
      <point x="479" y="556" type="line"/>
      <point x="495" y="556" type="line"/>
      <point x="1009" y="1056" type="line"/>
      <point x="789" y="1056" type="line"/>
      <point x="298" y="581" type="line"/>
      <point x="285" y="581" type="line"/>
    </contour>
    <contour>
      <point x="126" y="0" type="line"/>
      <point x="296" y="0" type="line"/>
      <point x="296" y="1490" type="line"/>
      <point x="126" y="1490" type="line"/>
    </contour>
    <contour>
      <point x="827" y="0" type="line"/>
      <point x="1043" y="0" type="line"/>
      <point x="517" y="636" type="line"/>
      <point x="397" y="518" type="line"/>
    </contour>
  </outline>
</glyph>
<glyph name="m" format="2">
  <advance width="1718"/>
  <unicode hex="006D"/>
  <anchor x="859" y="0" name="bottom"/>
  <anchor x="1422" y="0" name="lfthook"/>
  <anchor x="860" y="1056" name="top"/>
  <outline>
    <contour>
      <point x="126" y="0" type="line"/>
      <point x="296" y="0" type="line"/>
      <point x="296" y="644" type="line" smooth="yes"/>
      <point x="296" y="826"/>
      <point x="418" y="920"/>
      <point x="551" y="920" type="curve" smooth="yes"/>
      <point x="679" y="920"/>
      <point x="774" y="836"/>
      <point x="774" y="710" type="curve" smooth="yes"/>
      <point x="774" y="0" type="line"/>
      <point x="944" y="0" type="line"/>
      <point x="944" y="672" type="line" smooth="yes"/>
      <point x="944" y="815"/>
      <point x="1038" y="920"/>
      <point x="1193" y="920" type="curve" smooth="yes"/>
      <point x="1314" y="920"/>
      <point x="1422" y="856"/>
      <point x="1422" y="692" type="curve" smooth="yes"/>
      <point x="1422" y="0" type="line"/>
      <point x="1592" y="0" type="line"/>
      <point x="1592" y="692" type="line" smooth="yes"/>
      <point x="1592" y="952"/>
      <point x="1434" y="1076"/>
      <point x="1241" y="1076" type="curve" smooth="yes"/>
      <point x="1062" y="1076"/>
      <point x="934" y="970"/>
      <point x="888" y="840" type="curve"/>
      <point x="923" y="840" type="line"/>
      <point x="895" y="967"/>
      <point x="770" y="1076"/>
      <point x="605" y="1076" type="curve" smooth="yes"/>
      <point x="461" y="1076"/>
      <point x="332" y="993"/>
      <point x="271" y="840" type="curve"/>
      <point x="292" y="840" type="line"/>
      <point x="292" y="1056" type="line"/>
      <point x="126" y="1056" type="line"/>
    </contour>
  </outline>
</glyph>
<glyph name="o" format="2">
  <advance width="1124"/>
  <unicode hex="006F"/>
  <anchor x="562" y="0" name="bottom"/>
  <anchor x="562" y="528" name="center"/>
  <anchor x="1052" y="526" name="ogonek"/>
  <anchor x="562" y="1056" name="top"/>
  <anchor x="562" y="1080" name="tophorn"/>
  <outline>
    <contour>
      <point x="562" y="-24" type="curve" smooth="yes"/>
      <point x="855" y="-24"/>
      <point x="1052" y="204"/>
      <point x="1052" y="526" type="curve" smooth="yes"/>
      <point x="1052" y="850"/>
      <point x="855" y="1080"/>
      <point x="562" y="1080" type="curve" smooth="yes"/>
      <point x="269" y="1080"/>
      <point x="72" y="850"/>
      <point x="72" y="526" type="curve" smooth="yes"/>
      <point x="72" y="204"/>
      <point x="269" y="-24"/>
    </contour>
    <contour>
      <point x="562" y="130" type="curve" smooth="yes"/>
      <point x="362" y="130"/>
      <point x="244" y="286"/>
      <point x="244" y="526" type="curve" smooth="yes"/>
      <point x="244" y="768"/>
      <point x="363" y="926"/>
      <point x="562" y="926" type="curve" smooth="yes"/>
      <point x="761" y="926"/>
      <point x="880" y="767"/>
      <point x="880" y="526" type="curve" smooth="yes"/>
      <point x="880" y="287"/>
      <point x="762" y="130"/>
    </contour>
  </outline>
</glyph>
<glyph name="p" format="2">
  <advance width="1158"/>
  <unicode hex="0070"/>
  <anchor x="210" y="-418" name="bottom"/>
  <anchor x="212" y="-162" name="cross"/>
  <anchor x="646" y="1056" name="top"/>
  <anchor x="296" y="1056" name="topr"/>
  <outline>
    <contour>
      <point x="126" y="-418" type="line"/>
      <point x="296" y="-418" type="line"/>
      <point x="296" y="160" type="line"/>
      <point x="298" y="160" type="line"/>
      <point x="374" y="38"/>
      <point x="491" y="-20"/>
      <point x="628" y="-20" type="curve" smooth="yes"/>
      <point x="903" y="-20"/>
      <point x="1086" y="203"/>
      <point x="1086" y="528" type="curve" smooth="yes"/>
      <point x="1086" y="854"/>
      <point x="903" y="1076"/>
      <point x="628" y="1076" type="curve" smooth="yes"/>
      <point x="491" y="1076"/>
      <point x="362" y="1018"/>
      <point x="294" y="900" type="curve"/>
      <point x="292" y="900" type="line"/>
      <point x="292" y="1056" type="line"/>
      <point x="126" y="1056" type="line"/>
    </contour>
    <contour>
      <point x="602" y="133" type="curve" smooth="yes"/>
      <point x="406" y="133"/>
      <point x="282" y="289"/>
      <point x="282" y="528" type="curve" smooth="yes"/>
      <point x="282" y="767"/>
      <point x="406" y="924"/>
      <point x="602" y="924" type="curve" smooth="yes"/>
      <point x="785" y="924"/>
      <point x="914" y="787"/>
      <point x="914" y="528" type="curve" smooth="yes"/>
      <point x="914" y="269"/>
      <point x="785" y="133"/>
    </contour>
  </outline>
</glyph>
<glyph name="r" format="2">
  <advance width="660"/>
  <unicode hex="0072"/>
  <anchor x="210" y="0" name="bottom"/>
  <anchor x="296" y="0" name="bottomr"/>
  <anchor x="212" y="536" name="cross"/>
  <anchor x="367" y="1056" name="top"/>
  <outline>
    <contour>
      <point x="126" y="0" type="line"/>
      <point x="296" y="0" type="line"/>
      <point x="296" y="650" type="line" smooth="yes"/>
      <point x="296" y="829"/>
      <point x="397" y="908"/>
      <point x="514" y="908" type="curve" smooth="yes"/>
      <point x="563" y="908"/>
      <point x="604" y="900"/>
      <point x="618" y="896" type="curve"/>
      <point x="618" y="1066" type="line"/>
      <point x="604" y="1068"/>
      <point x="577" y="1072"/>
      <point x="546" y="1072" type="curve" smooth="yes"/>
      <point x="414" y="1072"/>
      <point x="331" y="999"/>
      <point x="292" y="890" type="curve"/>
      <point x="288" y="890" type="line"/>
      <point x="288" y="1056" type="line"/>
      <point x="126" y="1056" type="line"/>
    </contour>
  </outline>
</glyph>
<glyph name="s" format="2">
  <advance width="972"/>
  <unicode hex="0073"/>
  <anchor x="487" y="0" name="bottom"/>
  <anchor x="494" y="0" name="cedilla"/>
  <anchor x="76" y="316" name="rthook"/>
  <anchor x="487" y="1056" name="top"/>
  <outline>
    <contour>
      <point x="494" y="-24" type="curve" smooth="yes"/>
      <point x="724" y="-24"/>
      <point x="898" y="92"/>
      <point x="898" y="288" type="curve" smooth="yes"/>
      <point x="898" y="440"/>
      <point x="806" y="533"/>
      <point x="604" y="581" type="curve" smooth="yes"/>
      <point x="434" y="621" type="line" smooth="yes"/>
      <point x="332" y="645"/>
      <point x="270" y="692"/>
      <point x="270" y="772" type="curve" smooth="yes"/>
      <point x="270" y="862"/>
      <point x="353" y="934"/>
      <point x="483" y="934" type="curve" smooth="yes"/>
      <point x="619" y="934"/>
      <point x="706" y="852"/>
      <point x="708" y="740" type="curve"/>
      <point x="874" y="740" type="line"/>
      <point x="868" y="950"/>
      <point x="703" y="1080"/>
      <point x="483" y="1080" type="curve" smooth="yes"/>
      <point x="257" y="1080"/>
      <point x="100" y="952"/>
      <point x="100" y="772" type="curve" smooth="yes"/>
      <point x="100" y="618"/>
      <point x="202" y="518"/>
      <point x="398" y="472" type="curve" smooth="yes"/>
      <point x="568" y="432" type="line" smooth="yes"/>
      <point x="662" y="410"/>
      <point x="727" y="364"/>
      <point x="727" y="284" type="curve" smooth="yes"/>
      <point x="727" y="190"/>
      <point x="636" y="122"/>
      <point x="490" y="122" type="curve" smooth="yes"/>
      <point x="342" y="122"/>
      <point x="256" y="190"/>
      <point x="244" y="316" type="curve"/>
      <point x="76" y="316" type="line"/>
      <point x="90" y="86"/>
      <point x="268" y="-24"/>
    </contour>
  </outline>
</glyph>
<glyph name="t" format="2">
  <advance width="560"/>
  <unicode hex="0074"/>
  <anchor x="310" y="0" name="bottom"/>
  <anchor x="324" y="0" name="cedilla"/>
  <anchor x="510" y="0" name="lfthook"/>
  <anchor x="211" y="1344" name="top"/>
  <anchor x="422" y="1490" name="raccent"/>
  <outline>
    <contour>
      <point x="510" y="1056" type="line"/>
      <point x="216" y="1056" type="line"/>
      <point x="216" y="910" type="line"/>
      <point x="510" y="910" type="line"/>
    </contour>
    <component base="_part.t_base" xOffset="-74"/>
  </outline>
</glyph>
<glyph name="u" format="2">
  <advance width="1120"/>
  <unicode hex="0075"/>
  <anchor x="568" y="0" name="bottom"/>
  <anchor x="994" y="0" name="ogonek"/>
  <anchor x="824" y="1056" name="rtophorn"/>
  <anchor x="560" y="1056" name="top"/>
  <outline>
    <contour>
      <point x="514" y="-20" type="curve" smooth="yes"/>
      <point x="681" y="-20"/>
      <point x="807" y="66"/>
      <point x="876" y="256" type="curve"/>
      <point x="828" y="256" type="line"/>
      <point x="828" y="0" type="line"/>
      <point x="994" y="0" type="line"/>
      <point x="994" y="1056" type="line"/>
      <point x="824" y="1056" type="line"/>
      <point x="824" y="438" type="line" smooth="yes"/>
      <point x="824" y="225"/>
      <point x="700" y="136"/>
      <point x="546" y="136" type="curve" smooth="yes"/>
      <point x="388" y="136"/>
      <point x="296" y="229"/>
      <point x="296" y="412" type="curve" smooth="yes"/>
      <point x="296" y="1056" type="line"/>
      <point x="126" y="1056" type="line"/>
      <point x="126" y="400" type="line" smooth="yes"/>
      <point x="126" y="119"/>
      <point x="301" y="-20"/>
    </contour>
  </outline>
</glyph>
<glyph name="v" format="2">
  <advance width="1048"/>
  <unicode hex="0076"/>
  <anchor x="524" y="0" name="bottom"/>
  <anchor x="524" y="1056" name="top"/>
  <outline>
    <contour>
      <point x="438" y="0" type="line"/>
      <point x="610" y="0" type="line"/>
      <point x="1018" y="1056" type="line"/>
      <point x="837" y="1056" type="line"/>
      <point x="612" y="448" type="line" smooth="yes"/>
      <point x="575" y="347"/>
      <point x="541" y="245"/>
      <point x="507" y="144" type="curve"/>
      <point x="548" y="144" type="line"/>
      <point x="514" y="245"/>
      <point x="480" y="347"/>
      <point x="442" y="448" type="curve" smooth="yes"/>
      <point x="214" y="1056" type="line"/>
      <point x="30" y="1056" type="line"/>
    </contour>
  </outline>
</glyph>
<glyph name="w" format="2">
  <advance width="1540"/>
  <unicode hex="0077"/>
  <anchor x="770" y="0" name="bottom"/>
  <anchor x="770" y="1056" name="top"/>
  <outline>
    <contour>
      <point x="358" y="0" type="line"/>
      <point x="532" y="0" type="line"/>
      <point x="674" y="480" type="line" smooth="yes"/>
      <point x="716" y="623"/>
      <point x="753" y="777"/>
      <point x="793" y="921" type="curve"/>
      <point x="748" y="921" type="line"/>
      <point x="787" y="777"/>
      <point x="824" y="623"/>
      <point x="865" y="480" type="curve" smooth="yes"/>
      <point x="1004" y="0" type="line"/>
      <point x="1182" y="0" type="line"/>
      <point x="1510" y="1056" type="line"/>
      <point x="1332" y="1056" type="line"/>
      <point x="1196" y="592" type="line" smooth="yes"/>
      <point x="1154" y="449"/>
      <point x="1116" y="297"/>
      <point x="1076" y="153" type="curve"/>
      <point x="1103" y="153" type="line"/>
      <point x="1064" y="297"/>
      <point x="1027" y="449"/>
      <point x="986" y="592" type="curve" smooth="yes"/>
      <point x="854" y="1056" type="line"/>
      <point x="686" y="1056" type="line"/>
      <point x="552" y="592" type="line" smooth="yes"/>
      <point x="511" y="449"/>
      <point x="473" y="297"/>
      <point x="434" y="153" type="curve"/>
      <point x="458" y="153" type="line"/>
      <point x="419" y="297"/>
      <point x="382" y="449"/>
      <point x="341" y="592" type="curve" smooth="yes"/>
      <point x="208" y="1056" type="line"/>
      <point x="30" y="1056" type="line"/>
    </contour>
  </outline>
</glyph>
<glyph name="x" format="2">
  <advance width="1038"/>
  <unicode hex="0078"/>
  <anchor x="519" y="0" name="bottom"/>
  <anchor x="961" y="0" name="cyrtic"/>
  <anchor x="843" y="0" name="right"/>
  <anchor x="519" y="1056" name="top"/>
  <outline>
    <contour>
      <point x="30" y="0" type="line"/>
      <point x="228" y="0" type="line"/>
      <point x="398" y="240" type="line" smooth="yes"/>
      <point x="454" y="320"/>
      <point x="508" y="398"/>
      <point x="563" y="479" type="curve"/>
      <point x="478" y="479" type="line"/>
      <point x="533" y="398"/>
      <point x="585" y="320"/>
      <point x="641" y="240" type="curve" smooth="yes"/>
      <point x="809" y="0" type="line"/>
      <point x="1008" y="0" type="line"/>
      <point x="571" y="605" type="line"/>
      <point x="571" y="473" type="line"/>
      <point x="990" y="1056" type="line"/>
      <point x="793" y="1056" type="line"/>
      <point x="648" y="848" type="line" smooth="yes"/>
      <point x="590" y="765"/>
      <point x="536" y="684"/>
      <point x="479" y="600" type="curve"/>
      <point x="563" y="600" type="line"/>
      <point x="507" y="684"/>
      <point x="453" y="765"/>
      <point x="396" y="848" type="curve" smooth="yes"/>
      <point x="253" y="1056" type="line"/>
      <point x="53" y="1056" type="line"/>
      <point x="471" y="473" type="line"/>
      <point x="472" y="604" type="line"/>
    </contour>
  </outline>
</glyph>
<glyph name="y" format="2">
  <advance width="1048"/>
  <unicode hex="0079"/>
  <anchor x="797" y="0" name="bottom"/>
  <anchor x="605" y="0" name="ogonek"/>
  <anchor x="524" y="1056" name="top"/>
  <outline>
    <contour>
      <point x="134" y="-418" type="line"/>
      <point x="169" y="-418"/>
      <point x="203" y="-418"/>
      <point x="238" y="-418" type="curve" smooth="yes"/>
      <point x="371" y="-418"/>
      <point x="476" y="-338"/>
      <point x="531" y="-196" type="curve" smooth="yes"/>
      <point x="1018" y="1056" type="line"/>
      <point x="837" y="1056" type="line"/>
      <point x="613" y="448" type="line" smooth="yes"/>
      <point x="576" y="347"/>
      <point x="538" y="245"/>
      <point x="505" y="144" type="curve"/>
      <point x="550" y="144" type="line"/>
      <point x="516" y="245"/>
      <point x="480" y="347"/>
      <point x="442" y="448" type="curve" smooth="yes"/>
      <point x="214" y="1056" type="line"/>
      <point x="30" y="1056" type="line"/>
      <point x="439" y="9" type="line"/>
      <point x="381" y="-141" type="line" smooth="yes"/>
      <point x="347" y="-229"/>
      <point x="303" y="-268"/>
      <point x="238" y="-268" type="curve" smooth="yes"/>
      <point x="134" y="-268" type="line"/>
    </contour>
  </outline>
</glyph>
<glyph name="z" format="2">
  <advance width="980"/>
  <unicode hex="007A"/>
  <anchor x="489" y="0" name="bottom"/>
  <anchor x="886" y="0" name="bottomr"/>
  <anchor x="512" y="558" name="cross"/>
  <anchor x="488" y="1056" name="top"/>
  <outline>
    <contour>
      <point x="94" y="0" type="line"/>
      <point x="886" y="0" type="line"/>
      <point x="886" y="152" type="line"/>
      <point x="310" y="152" type="line"/>
      <point x="310" y="156" type="line"/>
      <point x="882" y="920" type="line"/>
      <point x="882" y="1056" type="line"/>
      <point x="94" y="1056" type="line"/>
      <point x="94" y="904" type="line"/>
      <point x="672" y="904" type="line"/>
      <point x="672" y="900" type="line"/>
      <point x="94" y="130" type="line"/>
    </contour>
  </outline>
</glyph>
<glyph name="braceleft" format="2">
  <advance width="788"/>
  <unicode hex="007B"/>
  <outline>
    <contour>
      <point x="113" y="608" type="line"/>
      <point x="427" y="608"/>
      <point x="495" y="733"/>
      <point x="495" y="884" type="curve" smooth="yes"/>
      <point x="495" y="1176" type="line" smooth="yes"/>
      <point x="495" y="1346"/>
      <point x="540" y="1420"/>
      <point x="709" y="1420" type="curve"/>
      <point x="709" y="1566" type="line"/>
      <point x="424" y="1566"/>
      <point x="331" y="1443"/>
      <point x="331" y="1176" type="curve" smooth="yes"/>
      <point x="331" y="942" type="line" smooth="yes"/>
      <point x="331" y="783"/>
      <point x="275" y="722"/>
      <point x="113" y="722" type="curve"/>
    </contour>
    <contour>
      <point x="709" y="-294" type="curve"/>
      <point x="709" y="-148" type="line"/>
      <point x="540" y="-148"/>
      <point x="495" y="-75"/>
      <point x="495" y="96" type="curve" smooth="yes"/>
      <point x="495" y="386" type="line" smooth="yes"/>
      <point x="495" y="536"/>
      <point x="427" y="664"/>
      <point x="113" y="664" type="curve"/>
      <point x="113" y="550" type="line"/>
      <point x="275" y="550"/>
      <point x="331" y="487"/>
      <point x="331" y="328" type="curve" smooth="yes"/>
      <point x="331" y="96" type="line" smooth="yes"/>
      <point x="331" y="-172"/>
      <point x="424" y="-294"/>
    </contour>
    <contour>
      <point x="113" y="549" type="line"/>
      <point x="287" y="549" type="line"/>
      <point x="287" y="723" type="line"/>
      <point x="113" y="723" type="line"/>
    </contour>
  </outline>
</glyph>
<glyph name="braceright" format="2">
  <advance width="788"/>
  <unicode hex="007D"/>
  <outline>
    <contour>
      <point x="675" y="608" type="curve"/>
      <point x="675" y="722" type="line"/>
      <point x="513" y="722"/>
      <point x="457" y="783"/>
      <point x="457" y="942" type="curve" smooth="yes"/>
      <point x="457" y="1176" type="line" smooth="yes"/>
      <point x="457" y="1443"/>
      <point x="364" y="1566"/>
      <point x="79" y="1566" type="curve"/>
      <point x="79" y="1420" type="line"/>
      <point x="248" y="1420"/>
      <point x="293" y="1346"/>
      <point x="293" y="1176" type="curve" smooth="yes"/>
      <point x="293" y="884" type="line" smooth="yes"/>
      <point x="293" y="733"/>
      <point x="361" y="608"/>
    </contour>
    <contour>
      <point x="79" y="-294" type="line"/>
      <point x="364" y="-294"/>
      <point x="457" y="-172"/>
      <point x="457" y="96" type="curve" smooth="yes"/>
      <point x="457" y="328" type="line" smooth="yes"/>
      <point x="457" y="487"/>
      <point x="513" y="549"/>
      <point x="675" y="550" type="curve"/>
      <point x="675" y="664" type="line"/>
      <point x="361" y="664"/>
      <point x="293" y="536"/>
      <point x="293" y="386" type="curve" smooth="yes"/>
      <point x="293" y="96" type="line" smooth="yes"/>
      <point x="293" y="-75"/>
      <point x="248" y="-148"/>
      <point x="79" y="-148" type="curve"/>
    </contour>
    <contour>
      <point x="675" y="550" type="line"/>
      <point x="675" y="722" type="line"/>
      <point x="501" y="723" type="line"/>
      <point x="501" y="549" type="line"/>
    </contour>
  </outline>
</glyph>
<glyph name="asciitilde" format="2">
  <advance width="1286"/>
  <unicode hex="007E"/>
  <outline>
    <contour>
      <point x="136" y="442" type="curve"/>
      <point x="294" y="442" type="line"/>
      <point x="292" y="569"/>
      <point x="349" y="620"/>
      <point x="428" y="620" type="curve" smooth="yes"/>
      <point x="479" y="620"/>
      <point x="513" y="597"/>
      <point x="584" y="536" type="curve" smooth="yes"/>
      <point x="691" y="443"/>
      <point x="762" y="402"/>
      <point x="862" y="402" type="curve" smooth="yes"/>
      <point x="1009" y="402"/>
      <point x="1153" y="495"/>
      <point x="1150" y="736" type="curve"/>
      <point x="992" y="736" type="line"/>
      <point x="994" y="620"/>
      <point x="941" y="558"/>
      <point x="858" y="558" type="curve" smooth="yes"/>
      <point x="807" y="558"/>
      <point x="772" y="581"/>
      <point x="702" y="642" type="curve" smooth="yes"/>
      <point x="595" y="735"/>
      <point x="524" y="776"/>
      <point x="424" y="776" type="curve" smooth="yes"/>
      <point x="276" y="776"/>
      <point x="132" y="684"/>
    </contour>
  </outline>
</glyph>
<glyph name="exclamdown" format="2">
  <advance width="462"/>
  <unicode hex="00A1"/>
  <outline>
    <contour>
      <point x="132" y="-418" type="line"/>
      <point x="330" y="-418" type="line"/>
      <point x="316" y="654" type="line"/>
      <point x="146" y="654" type="line"/>
    </contour>
    <contour>
      <point x="230" y="818" type="curve" smooth="yes"/>
      <point x="302" y="818"/>
      <point x="362" y="877"/>
      <point x="362" y="948" type="curve" smooth="yes"/>
      <point x="362" y="1021"/>
      <point x="302" y="1080"/>
      <point x="230" y="1080" type="curve" smooth="yes"/>
      <point x="158" y="1080"/>
      <point x="100" y="1021"/>
      <point x="100" y="948" type="curve" smooth="yes"/>
      <point x="100" y="877"/>
      <point x="158" y="818"/>
    </contour>
  </outline>
</glyph>
<glyph name="cent" format="2">
  <advance width="1071"/>
  <unicode hex="00A2"/>
  <anchor x="562" y="216" name="bottom"/>
  <anchor x="562" y="216" name="cedilla"/>
  <anchor x="562" y="744" name="center"/>
  <anchor x="562" y="1272" name="top"/>
  <anchor x="1007" y="928" name="topr"/>
  <outline>
    <contour>
      <point x="485" y="0" type="line"/>
      <point x="631" y="0" type="line"/>
      <point x="631" y="1490" type="line"/>
      <point x="485" y="1490" type="line"/>
    </contour>
    <component base="c" yOffset="216"/>
  </outline>
</glyph>
<glyph name="currency" format="2">
  <advance width="1416"/>
  <unicode hex="00A4"/>
  <outline>
    <contour>
      <point x="704" y="-20" type="curve" smooth="yes"/>
      <point x="1033" y="-20"/>
      <point x="1300" y="253"/>
      <point x="1300" y="608" type="curve" smooth="yes"/>
      <point x="1300" y="963"/>
      <point x="1033" y="1234"/>
      <point x="704" y="1234" type="curve" smooth="yes"/>
      <point x="375" y="1234"/>
      <point x="110" y="963"/>
      <point x="110" y="608" type="curve"/>
      <point x="110" y="253"/>
      <point x="375" y="-20"/>
    </contour>
    <contour>
      <point x="704" y="140" type="curve" smooth="yes"/>
      <point x="465" y="140"/>
      <point x="270" y="352"/>
      <point x="270" y="608" type="curve"/>
      <point x="270" y="867"/>
      <point x="465" y="1076"/>
      <point x="704" y="1076" type="curve" smooth="yes"/>
      <point x="943" y="1076"/>
      <point x="1134" y="867"/>
      <point x="1134" y="608" type="curve" smooth="yes"/>
      <point x="1134" y="352"/>
      <point x="943" y="140"/>
    </contour>
    <contour>
      <point x="1126" y="926" type="line"/>
      <point x="1330" y="1132" type="line"/>
      <point x="1210" y="1254" type="line"/>
      <point x="1010" y="1048" type="line"/>
    </contour>
    <contour>
      <point x="1210" y="-14" type="line"/>
      <point x="1330" y="108" type="line"/>
      <point x="1126" y="312" type="line"/>
      <point x="1010" y="192" type="line"/>
    </contour>
    <contour>
      <point x="204" y="-14" type="line"/>
      <point x="408" y="192" type="line"/>
      <point x="288" y="312" type="line"/>
      <point x="88" y="108" type="line"/>
    </contour>
    <contour>
      <point x="288" y="926" type="line"/>
      <point x="408" y="1048" type="line"/>
      <point x="204" y="1254" type="line"/>
      <point x="88" y="1132" type="line"/>
    </contour>
  </outline>
</glyph>
<glyph name="yen" format="2">
  <advance width="1058"/>
  <unicode hex="00A5"/>
  <outline>
    <contour>
      <point x="198" y="1490" type="line"/>
      <point x="-2" y="1490" type="line"/>
      <point x="440" y="602" type="line"/>
      <point x="578" y="660" type="line"/>
    </contour>
    <contour>
      <point x="480" y="660" type="line"/>
      <point x="620" y="602" type="line"/>
      <point x="1062" y="1490" type="line"/>
      <point x="862" y="1490" type="line"/>
    </contour>
    <contour>
      <point x="620" y="782" type="line"/>
      <point x="440" y="782" type="line"/>
      <point x="440" y="0" type="line"/>
      <point x="620" y="0" type="line"/>
    </contour>
    <contour>
      <point x="946" y="742" type="line"/>
      <point x="114" y="742" type="line"/>
      <point x="114" y="610" type="line"/>
      <point x="946" y="610" type="line"/>
    </contour>
    <contour>
      <point x="946" y="454" type="line"/>
      <point x="114" y="454" type="line"/>
      <point x="114" y="322" type="line"/>
      <point x="946" y="322" type="line"/>
    </contour>
  </outline>
</glyph>
<glyph name="brokenbar" format="2">
  <advance width="480"/>
  <unicode hex="00A6"/>
  <outline>
    <contour>
      <point x="160" y="402" type="line"/>
      <point x="160" y="-280" type="line"/>
      <point x="320" y="-280" type="line"/>
      <point x="320" y="402" type="line"/>
    </contour>
    <contour>
      <point x="320" y="1490" type="line"/>
      <point x="160" y="1490" type="line"/>
      <point x="160" y="812" type="line"/>
      <point x="320" y="812" type="line"/>
    </contour>
  </outline>
</glyph>
<glyph name="section" format="2">
  <advance width="1100"/>
  <unicode hex="00A7"/>
  <outline>
    <contour>
      <point x="532" y="-302" type="curve" smooth="yes"/>
      <point x="766" y="-302"/>
      <point x="918" y="-181"/>
      <point x="918" y="8" type="curve" smooth="yes"/>
      <point x="918" y="105"/>
      <point x="878" y="185"/>
      <point x="806" y="249" type="curve"/>
      <point x="806" y="250" type="line"/>
      <point x="927" y="268"/>
      <point x="1010" y="389"/>
      <point x="1010" y="512" type="curve" smooth="yes"/>
      <point x="1010" y="633"/>
      <point x="930" y="752"/>
      <point x="798" y="830" type="curve" smooth="yes"/>
      <point x="516" y="996" type="line" smooth="yes"/>
      <point x="446" y="1037"/>
      <point x="358" y="1091"/>
      <point x="358" y="1196" type="curve" smooth="yes"/>
      <point x="358" y="1294"/>
      <point x="434" y="1356"/>
      <point x="554" y="1356" type="curve" smooth="yes"/>
      <point x="687" y="1356"/>
      <point x="762" y="1280"/>
      <point x="762" y="1154" type="curve"/>
      <point x="932" y="1154" type="line"/>
      <point x="932" y="1375"/>
      <point x="789" y="1510"/>
      <point x="554" y="1510" type="curve" smooth="yes"/>
      <point x="333" y="1510"/>
      <point x="186" y="1391"/>
      <point x="186" y="1199" type="curve" smooth="yes"/>
      <point x="186" y="1097"/>
      <point x="227" y="1032"/>
      <point x="294" y="963" type="curve"/>
      <point x="294" y="962" type="line"/>
      <point x="165" y="946"/>
      <point x="90" y="816"/>
      <point x="90" y="698" type="curve" smooth="yes"/>
      <point x="90" y="574"/>
      <point x="172" y="453"/>
      <point x="304" y="376" type="curve" smooth="yes"/>
      <point x="586" y="212" type="line" smooth="yes"/>
      <point x="653" y="173"/>
      <point x="742" y="121"/>
      <point x="742" y="12" type="curve" smooth="yes"/>
      <point x="742" y="-93"/>
      <point x="660" y="-148"/>
      <point x="532" y="-148" type="curve" smooth="yes"/>
      <point x="388" y="-148"/>
      <point x="304" y="-79"/>
      <point x="304" y="52" type="curve"/>
      <point x="132" y="52" type="line"/>
      <point x="132" y="-169"/>
      <point x="286" y="-302"/>
    </contour>
    <contour>
      <point x="660" y="350" type="curve" smooth="yes"/>
      <point x="390" y="506" type="line" smooth="yes"/>
      <point x="293" y="562"/>
      <point x="250" y="629"/>
      <point x="250" y="709" type="curve" smooth="yes"/>
      <point x="250" y="839"/>
      <point x="363" y="903"/>
      <point x="428" y="866" type="curve" smooth="yes"/>
      <point x="714" y="702" type="line" smooth="yes"/>
      <point x="803" y="651"/>
      <point x="850" y="586"/>
      <point x="850" y="505" type="curve" smooth="yes"/>
      <point x="850" y="372"/>
      <point x="722" y="314"/>
    </contour>
  </outline>
</glyph>
<glyph name="copyright" format="2">
  <advance width="1808"/>
  <unicode hex="00A9"/>
  <outline>
    <contour>
      <point x="480" y="744" type="curve" smooth="yes"/>
      <point x="480" y="506"/>
      <point x="673" y="312"/>
      <point x="912" y="312" type="curve" smooth="yes"/>
      <point x="1119" y="312"/>
      <point x="1277" y="458"/>
      <point x="1304" y="652" type="curve"/>
      <point x="1128" y="652" type="line"/>
      <point x="1108" y="552"/>
      <point x="1024" y="482"/>
      <point x="912" y="482" type="curve" smooth="yes"/>
      <point x="767" y="482"/>
      <point x="648" y="599"/>
      <point x="648" y="744" type="curve" smooth="yes"/>
      <point x="648" y="890"/>
      <point x="767" y="1008"/>
      <point x="912" y="1008" type="curve" smooth="yes"/>
      <point x="1024" y="1008"/>
      <point x="1124" y="937"/>
      <point x="1144" y="838" type="curve"/>
      <point x="1320" y="838" type="line"/>
      <point x="1292" y="1031"/>
      <point x="1119" y="1176"/>
      <point x="912" y="1176" type="curve" smooth="yes"/>
      <point x="673" y="1176"/>
      <point x="480" y="983"/>
    </contour>
    <component base="circlewhite"/>
  </outline>
</glyph>
<glyph name="ordfeminine" format="2">
  <advance width="864"/>
  <unicode hex="00AA"/>
  <anchor x="427" y="653" name="bottom"/>
  <anchor x="768" y="653" name="ogonek"/>
  <anchor x="427" y="1498" name="top"/>
  <outline>
    <contour>
      <point x="353" y="640" type="curve" smooth="yes"/>
      <point x="500" y="640"/>
      <point x="568" y="706"/>
      <point x="603" y="773" type="curve"/>
      <point x="607" y="773" type="line"/>
      <point x="607" y="653" type="line"/>
      <point x="768" y="653" type="line"/>
      <point x="768" y="1233" type="line" smooth="yes"/>
      <point x="768" y="1403"/>
      <point x="641" y="1514"/>
      <point x="434" y="1514" type="curve" smooth="yes"/>
      <point x="224" y="1514"/>
      <point x="88" y="1400"/>
      <point x="80" y="1241" type="curve"/>
      <point x="242" y="1241" type="line"/>
      <point x="248" y="1319"/>
      <point x="322" y="1379"/>
      <point x="432" y="1379" type="curve" smooth="yes"/>
      <point x="541" y="1379"/>
      <point x="606" y="1319"/>
      <point x="606" y="1235" type="curve" smooth="yes"/>
      <point x="606" y="1228" type="line" smooth="yes"/>
      <point x="606" y="1165"/>
      <point x="550" y="1168"/>
      <point x="395" y="1149" type="curve" smooth="yes"/>
      <point x="224" y="1128"/>
      <point x="60" y="1088"/>
      <point x="60" y="895" type="curve" smooth="yes"/>
      <point x="60" y="726"/>
      <point x="186" y="640"/>
    </contour>
    <contour>
      <point x="385" y="773" type="curve" smooth="yes"/>
      <point x="286" y="773"/>
      <point x="223" y="817"/>
      <point x="223" y="891" type="curve" smooth="yes"/>
      <point x="223" y="979"/>
      <point x="309" y="1011"/>
      <point x="398" y="1024" type="curve" smooth="yes"/>
      <point x="494" y="1038"/>
      <point x="584" y="1052"/>
      <point x="606" y="1070" type="curve"/>
      <point x="606" y="970" type="line" smooth="yes"/>
      <point x="606" y="865"/>
      <point x="537" y="773"/>
    </contour>
  </outline>
</glyph>
<glyph name="logicalnot" format="2">
  <advance width="1286"/>
  <unicode hex="00AC"/>
  <outline>
    <contour>
      <point x="882" y="315" type="line"/>
      <point x="1044" y="315" type="line"/>
      <point x="1044" y="745" type="line"/>
      <point x="208" y="745" type="line"/>
      <point x="208" y="589" type="line"/>
      <point x="882" y="589" type="line"/>
    </contour>
  </outline>
</glyph>
<glyph name="registered" format="2">
  <advance width="1292"/>
  <unicode hex="00AE"/>
  <outline>
    <contour>
      <point x="646" y="346" type="curve" smooth="yes"/>
      <point x="968" y="346"/>
      <point x="1228" y="607"/>
      <point x="1228" y="928" type="curve" smooth="yes"/>
      <point x="1228" y="1249"/>
      <point x="968" y="1510"/>
      <point x="646" y="1510" type="curve" smooth="yes"/>
      <point x="325" y="1510"/>
      <point x="64" y="1249"/>
      <point x="64" y="928" type="curve" smooth="yes"/>
      <point x="64" y="607"/>
      <point x="325" y="346"/>
    </contour>
    <contour>
      <point x="646" y="486" type="curve" smooth="yes"/>
      <point x="402" y="486"/>
      <point x="204" y="684"/>
      <point x="204" y="928" type="curve" smooth="yes"/>
      <point x="204" y="1172"/>
      <point x="402" y="1370"/>
      <point x="646" y="1370" type="curve" smooth="yes"/>
      <point x="891" y="1370"/>
      <point x="1088" y="1172"/>
      <point x="1088" y="928" type="curve" smooth="yes"/>
      <point x="1088" y="684"/>
      <point x="891" y="486"/>
    </contour>
    <contour>
      <point x="749" y="663" type="line"/>
      <point x="895" y="663" type="line"/>
      <point x="766" y="906" type="line"/>
      <point x="623" y="906" type="line"/>
    </contour>
    <contour>
      <point x="432" y="663" type="line"/>
      <point x="566" y="663" type="line"/>
      <point x="566" y="1086" type="line"/>
      <point x="656" y="1086" type="line" smooth="yes"/>
      <point x="710" y="1086"/>
      <point x="745" y="1058"/>
      <point x="745" y="1015" type="curve" smooth="yes"/>
      <point x="745" y="973"/>
      <point x="710" y="945"/>
      <point x="656" y="945" type="curve" smooth="yes"/>
      <point x="516" y="945" type="line"/>
      <point x="516" y="836" type="line"/>
      <point x="658" y="836" type="line" smooth="yes"/>
      <point x="793" y="836"/>
      <point x="880" y="905"/>
      <point x="880" y="1015" type="curve" smooth="yes"/>
      <point x="880" y="1128"/>
      <point x="797" y="1199"/>
      <point x="666" y="1199" type="curve" smooth="yes"/>
      <point x="432" y="1199" type="line"/>
    </contour>
  </outline>
</glyph>
<glyph name="degree" format="2">
  <advance width="866"/>
  <unicode hex="00B0"/>
  <outline>
    <contour>
      <point x="434" y="832" type="curve" smooth="yes"/>
      <point x="618" y="832"/>
      <point x="768" y="982"/>
      <point x="768" y="1166" type="curve" smooth="yes"/>
      <point x="768" y="1351"/>
      <point x="618" y="1502"/>
      <point x="434" y="1502" type="curve" smooth="yes"/>
      <point x="249" y="1502"/>
      <point x="98" y="1351"/>
      <point x="98" y="1166" type="curve" smooth="yes"/>
      <point x="98" y="982"/>
      <point x="249" y="832"/>
    </contour>
    <contour>
      <point x="434" y="978" type="curve" smooth="yes"/>
      <point x="329" y="977"/>
      <point x="244" y="1062"/>
      <point x="244" y="1166" type="curve" smooth="yes"/>
      <point x="244" y="1271"/>
      <point x="329" y="1356"/>
      <point x="434" y="1356" type="curve" smooth="yes"/>
      <point x="538" y="1356"/>
      <point x="622" y="1271"/>
      <point x="622" y="1166" type="curve" smooth="yes"/>
      <point x="622" y="1062"/>
      <point x="538" y="977"/>
    </contour>
  </outline>
</glyph>
<glyph name="plusminus" format="2">
  <advance width="1286"/>
  <unicode hex="00B1"/>
  <outline>
    <contour>
      <point x="174" y="70" type="line"/>
      <point x="1112" y="70" type="line"/>
      <point x="1112" y="232" type="line"/>
      <point x="174" y="232" type="line"/>
    </contour>
    <contour>
      <point x="174" y="658" type="line"/>
      <point x="1112" y="658" type="line"/>
      <point x="1112" y="820" type="line"/>
      <point x="174" y="820" type="line"/>
    </contour>
    <contour>
      <point x="562" y="360" type="line"/>
      <point x="724" y="360" type="line"/>
      <point x="724" y="1118" type="line"/>
      <point x="562" y="1118" type="line"/>
    </contour>
  </outline>
</glyph>
<glyph name="two.sups" format="2">
  <advance width="789"/>
  <unicode hex="00B2"/>
  <anchor x="448" y="1218" name="cross"/>
  <anchor x="392" y="1686" name="top"/>
  <outline>
    <contour>
      <point x="78" y="874" type="line"/>
      <point x="712" y="874" type="line"/>
      <point x="712" y="1014" type="line"/>
      <point x="314" y="1014" type="line"/>
      <point x="314" y="1015" type="line"/>
      <point x="510" y="1160" type="line" smooth="yes"/>
      <point x="641" y="1257"/>
      <point x="708" y="1332"/>
      <point x="708" y="1446" type="curve" smooth="yes"/>
      <point x="708" y="1600"/>
      <point x="577" y="1699"/>
      <point x="396" y="1699" type="curve" smooth="yes"/>
      <point x="201" y="1699"/>
      <point x="76" y="1583"/>
      <point x="76" y="1405" type="curve"/>
      <point x="236" y="1405" type="line"/>
      <point x="236" y="1502"/>
      <point x="297" y="1560"/>
      <point x="396" y="1560" type="curve" smooth="yes"/>
      <point x="486" y="1560"/>
      <point x="545" y="1512"/>
      <point x="545" y="1437" type="curve" smooth="yes"/>
      <point x="545" y="1363"/>
      <point x="489" y="1319"/>
      <point x="405" y="1254" type="curve" smooth="yes"/>
      <point x="78" y="1001" type="line"/>
    </contour>
  </outline>
</glyph>
<glyph name="three.sups" format="2">
  <advance width="822"/>
  <unicode hex="00B3"/>
  <anchor x="416" y="1686" name="top"/>
  <outline>
    <contour>
      <point x="416" y="861" type="curve" smooth="yes"/>
      <point x="613" y="861"/>
      <point x="752" y="963"/>
      <point x="752" y="1103" type="curve" smooth="yes"/>
      <point x="752" y="1198"/>
      <point x="681" y="1281"/>
      <point x="555" y="1296" type="curve"/>
      <point x="555" y="1298" type="line"/>
      <point x="658" y="1316"/>
      <point x="725" y="1382"/>
      <point x="725" y="1473" type="curve" smooth="yes"/>
      <point x="725" y="1605"/>
      <point x="593" y="1699"/>
      <point x="413" y="1699" type="curve" smooth="yes"/>
      <point x="222" y="1699"/>
      <point x="97" y="1590"/>
      <point x="97" y="1442" type="curve"/>
      <point x="261" y="1442" type="line"/>
      <point x="261" y="1518"/>
      <point x="321" y="1567"/>
      <point x="413" y="1567" type="curve" smooth="yes"/>
      <point x="502" y="1567"/>
      <point x="562" y="1522"/>
      <point x="562" y="1454" type="curve" smooth="yes"/>
      <point x="562" y="1391"/>
      <point x="498" y="1351"/>
      <point x="399" y="1351" type="curve" smooth="yes"/>
      <point x="320" y="1351" type="line"/>
      <point x="320" y="1225" type="line"/>
      <point x="399" y="1225" type="line" smooth="yes"/>
      <point x="507" y="1225"/>
      <point x="581" y="1181"/>
      <point x="581" y="1113" type="curve" smooth="yes"/>
      <point x="581" y="1043"/>
      <point x="513" y="996"/>
      <point x="414" y="996" type="curve" smooth="yes"/>
      <point x="308" y="996"/>
      <point x="246" y="1051"/>
      <point x="246" y="1143" type="curve"/>
      <point x="79" y="1143" type="line"/>
      <point x="79" y="989"/>
      <point x="198" y="861"/>
    </contour>
  </outline>
</glyph>
<glyph name="micro" format="2">
  <advance width="1132"/>
  <unicode hex="00B5"/>
  <outline>
    <contour>
      <point x="126" y="-418" type="line"/>
      <point x="296" y="-418" type="line"/>
      <point x="296" y="349" type="line"/>
      <point x="256" y="349" type="line"/>
      <point x="256" y="54"/>
      <point x="442" y="-18"/>
      <point x="562" y="-18" type="curve" smooth="yes"/>
      <point x="682" y="-18"/>
      <point x="869" y="54"/>
      <point x="869" y="349" type="curve"/>
      <point x="828" y="349" type="line"/>
      <point x="828" y="248" type="line" smooth="yes"/>
      <point x="828" y="86"/>
      <point x="919" y="0"/>
      <point x="1104" y="0" type="curve" smooth="yes"/>
      <point x="1132" y="0" type="line"/>
      <point x="1132" y="148" type="line"/>
      <point x="1104" y="148" type="line" smooth="yes"/>
      <point x="1022" y="148"/>
      <point x="994" y="173"/>
      <point x="994" y="248" type="curve" smooth="yes"/>
      <point x="994" y="1056" type="line"/>
      <point x="824" y="1056" type="line"/>
      <point x="824" y="438" type="line" smooth="yes"/>
      <point x="824" y="225"/>
      <point x="718" y="136"/>
      <point x="564" y="136" type="curve" smooth="yes"/>
      <point x="410" y="136"/>
      <point x="296" y="225"/>
      <point x="296" y="438" type="curve" smooth="yes"/>
      <point x="296" y="1056" type="line"/>
      <point x="126" y="1056" type="line"/>
    </contour>
  </outline>
</glyph>
<glyph name="paragraph" format="2">
  <advance width="1151"/>
  <unicode hex="00B6"/>
  <outline>
    <contour>
      <point x="995" y="1330" type="line"/>
      <point x="995" y="1490" type="line"/>
      <point x="557" y="1490" type="line" smooth="yes"/>
      <point x="240" y="1490"/>
      <point x="65" y="1289"/>
      <point x="65" y="1022" type="curve" smooth="yes"/>
      <point x="65" y="751"/>
      <point x="240" y="552"/>
      <point x="557" y="552" type="curve" smooth="yes"/>
      <point x="641" y="552" type="line"/>
      <point x="641" y="1330" type="line"/>
    </contour>
    <contour>
      <point x="821" y="0" type="line"/>
      <point x="1003" y="0" type="line"/>
      <point x="1003" y="1490" type="line"/>
      <point x="821" y="1490" type="line"/>
    </contour>
  </outline>
</glyph>
<glyph name="one.sups" format="2">
  <advance width="534"/>
  <unicode hex="00B9"/>
  <outline>
    <contour>
      <point x="434" y="1686" type="line"/>
      <point x="276" y="1686" type="line"/>
      <point x="54" y="1559" type="line"/>
      <point x="54" y="1407" type="line"/>
      <point x="266" y="1527" type="line"/>
      <point x="267" y="1527" type="line"/>
      <point x="267" y="874" type="line"/>
      <point x="434" y="874" type="line"/>
    </contour>
  </outline>
</glyph>
<glyph name="ordmasculine" format="2">
  <advance width="913"/>
  <unicode hex="00BA"/>
  <anchor x="456" y="653" name="bottom"/>
  <anchor x="456" y="1075" name="center"/>
  <anchor x="859" y="1074" name="ogonek"/>
  <anchor x="456" y="1498" name="top"/>
  <anchor x="456" y="1517" name="tophorn"/>
  <outline>
    <contour>
      <point x="456" y="634" type="curve" smooth="yes"/>
      <point x="697" y="634"/>
      <point x="859" y="815"/>
      <point x="859" y="1074" type="curve" smooth="yes"/>
      <point x="859" y="1335"/>
      <point x="697" y="1517"/>
      <point x="456" y="1517" type="curve" smooth="yes"/>
      <point x="216" y="1517"/>
      <point x="54" y="1335"/>
      <point x="54" y="1074" type="curve" smooth="yes"/>
      <point x="54" y="815"/>
      <point x="216" y="634"/>
    </contour>
    <contour>
      <point x="456" y="776" type="curve" smooth="yes"/>
      <point x="309" y="776"/>
      <point x="219" y="892"/>
      <point x="219" y="1074" type="curve" smooth="yes"/>
      <point x="219" y="1258"/>
      <point x="310" y="1375"/>
      <point x="456" y="1375" type="curve" smooth="yes"/>
      <point x="603" y="1375"/>
      <point x="693" y="1257"/>
      <point x="693" y="1074" type="curve" smooth="yes"/>
      <point x="693" y="893"/>
      <point x="604" y="776"/>
    </contour>
  </outline>
</glyph>
<glyph name="AE" format="2">
  <advance width="1981"/>
  <unicode hex="00C6"/>
  <anchor x="1312" y="1490" name="top"/>
  <outline>
    <contour>
      <point x="20" y="0" type="line"/>
      <point x="209" y="0" type="line"/>
      <point x="802" y="1330" type="line"/>
      <point x="942" y="1330" type="line"/>
      <point x="942" y="0" type="line"/>
      <point x="1911" y="0" type="line"/>
      <point x="1911" y="160" type="line"/>
      <point x="1122" y="160" type="line"/>
      <point x="1122" y="672" type="line"/>
      <point x="1853" y="672" type="line"/>
      <point x="1853" y="832" type="line"/>
      <point x="1122" y="832" type="line"/>
      <point x="1122" y="1330" type="line"/>
      <point x="1911" y="1330" type="line"/>
      <point x="1911" y="1490" type="line"/>
      <point x="695" y="1490" type="line"/>
    </contour>
    <contour>
      <point x="352" y="448" type="line"/>
      <point x="1034" y="448" type="line"/>
      <point x="1034" y="608" type="line"/>
      <point x="352" y="608" type="line"/>
    </contour>
  </outline>
</glyph>
<glyph name="multiply" format="2">
  <advance width="1286"/>
  <unicode hex="00D7"/>
  <outline>
    <contour>
      <point x="998" y="116" type="line"/>
      <point x="1108" y="226" type="line"/>
      <point x="288" y="1048" type="line"/>
      <point x="178" y="936" type="line"/>
    </contour>
    <contour>
      <point x="288" y="116" type="line"/>
      <point x="1108" y="936" type="line"/>
      <point x="998" y="1048" type="line"/>
      <point x="178" y="226" type="line"/>
    </contour>
  </outline>
</glyph>
<glyph name="Thorn" format="2">
  <advance width="1228"/>
  <unicode hex="00DE"/>
  <outline>
    <contour>
      <point x="136" y="1490" type="line"/>
      <point x="136" y="0" type="line"/>
      <point x="318" y="0" type="line"/>
      <point x="318" y="1490" type="line"/>
    </contour>
    <contour>
      <point x="222" y="1182" type="line"/>
      <point x="222" y="1022" type="line"/>
      <point x="606" y="1022" type="line" smooth="yes"/>
      <point x="812" y="1022"/>
      <point x="926" y="919"/>
      <point x="926" y="750" type="curve" smooth="yes"/>
      <point x="926" y="582"/>
      <point x="812" y="486"/>
      <point x="606" y="486" type="curve" smooth="yes"/>
      <point x="222" y="486" type="line"/>
      <point x="222" y="326" type="line"/>
      <point x="606" y="326" type="line" smooth="yes"/>
      <point x="922" y="326"/>
      <point x="1096" y="518"/>
      <point x="1096" y="754" type="curve" smooth="yes"/>
      <point x="1096" y="989"/>
      <point x="922" y="1181"/>
      <point x="606" y="1182" type="curve" smooth="yes"/>
    </contour>
  </outline>
</glyph>
<glyph name="germandbls" format="2">
  <advance width="1180"/>
  <unicode hex="00DF"/>
  <outline>
    <contour>
      <point x="148" y="0" type="line"/>
      <point x="320" y="0" type="line"/>
      <point x="320" y="1108" type="line" smooth="yes"/>
      <point x="320" y="1251"/>
      <point x="431" y="1350"/>
      <point x="582" y="1350" type="curve" smooth="yes"/>
      <point x="742" y="1350"/>
      <point x="840" y="1239"/>
      <point x="840" y="1100" type="curve" smooth="yes"/>
      <point x="840" y="965"/>
      <point x="749" y="838"/>
      <point x="602" y="838" type="curve" smooth="yes"/>
      <point x="510" y="838" type="line"/>
      <point x="510" y="674" type="line"/>
      <point x="640" y="674" type="line" smooth="yes"/>
      <point x="817" y="674"/>
      <point x="928" y="564"/>
      <point x="928" y="410" type="curve" smooth="yes"/>
      <point x="928" y="264"/>
      <point x="827" y="160"/>
      <point x="670" y="160" type="curve" smooth="yes"/>
      <point x="504" y="160" type="line"/>
      <point x="504" y="0" type="line"/>
      <point x="666" y="0" type="line" smooth="yes"/>
      <point x="928" y="0"/>
      <point x="1100" y="175"/>
      <point x="1100" y="410" type="curve" smooth="yes"/>
      <point x="1100" y="617"/>
      <point x="966" y="755"/>
      <point x="776" y="774" type="curve"/>
      <point x="776" y="788" type="line"/>
      <point x="916" y="837"/>
      <point x="1012" y="956"/>
      <point x="1012" y="1126" type="curve" smooth="yes"/>
      <point x="1012" y="1364"/>
      <point x="826" y="1510"/>
      <point x="578" y="1510" type="curve" smooth="yes"/>
      <point x="326" y="1510"/>
      <point x="148" y="1357"/>
      <point x="148" y="1108" type="curve" smooth="yes"/>
    </contour>
  </outline>
</glyph>
<glyph name="ae" format="2">
  <advance width="1785"/>
  <unicode hex="00E6"/>
  <anchor x="860" y="1056" name="top"/>
  <outline>
    <contour>
      <point x="472" y="-14" type="curve" smooth="yes"/>
      <point x="680" y="-14"/>
      <point x="814" y="68"/>
      <point x="869" y="231" type="curve"/>
      <point x="886" y="231" type="line"/>
      <point x="910" y="728" type="line"/>
      <point x="910" y="937"/>
      <point x="778" y="1076"/>
      <point x="532" y="1076" type="curve" smooth="yes"/>
      <point x="282" y="1076"/>
      <point x="111" y="933"/>
      <point x="102" y="740" type="curve"/>
      <point x="275" y="740" type="line"/>
      <point x="283" y="845"/>
      <point x="385" y="926"/>
      <point x="532" y="926" type="curve" smooth="yes"/>
      <point x="680" y="926"/>
      <point x="766" y="843"/>
      <point x="766" y="728" type="curve" smooth="yes"/>
      <point x="766" y="400" type="line" smooth="yes"/>
      <point x="766" y="262"/>
      <point x="680" y="138"/>
      <point x="472" y="138" type="curve" smooth="yes"/>
      <point x="337" y="138"/>
      <point x="254" y="191"/>
      <point x="254" y="302" type="curve" smooth="yes"/>
      <point x="254" y="418"/>
      <point x="360" y="479"/>
      <point x="561" y="479" type="curve" smooth="yes"/>
      <point x="1717" y="479" type="line"/>
      <point x="1717" y="526" type="line" smooth="yes"/>
      <point x="1717" y="854"/>
      <point x="1531" y="1080"/>
      <point x="1237" y="1080" type="curve" smooth="yes"/>
      <point x="1027" y="1080"/>
      <point x="863" y="948"/>
      <point x="794" y="747" type="curve"/>
      <point x="794" y="300" type="line"/>
      <point x="860" y="104"/>
      <point x="1019" y="-24"/>
      <point x="1249" y="-24" type="curve" smooth="yes"/>
      <point x="1479" y="-24"/>
      <point x="1659" y="114"/>
      <point x="1699" y="316" type="curve"/>
      <point x="1529" y="316" type="line"/>
      <point x="1497" y="206"/>
      <point x="1399" y="130"/>
      <point x="1249" y="130" type="curve" smooth="yes"/>
      <point x="1042" y="130"/>
      <point x="927" y="283"/>
      <point x="927" y="502" type="curve" smooth="yes"/>
      <point x="927" y="574" type="line" smooth="yes"/>
      <point x="927" y="789"/>
      <point x="1049" y="928"/>
      <point x="1237" y="928" type="curve" smooth="yes"/>
      <point x="1426" y="928"/>
      <point x="1549" y="789"/>
      <point x="1549" y="574" type="curve"/>
      <point x="1622" y="625" type="line"/>
      <point x="561" y="625" type="line" smooth="yes"/>
      <point x="260" y="625"/>
      <point x="80" y="505"/>
      <point x="80" y="304" type="curve" smooth="yes"/>
      <point x="80" y="119"/>
      <point x="224" y="-14"/>
    </contour>
  </outline>
</glyph>
<glyph name="eth" format="2">
  <advance width="1122"/>
  <unicode hex="00F0"/>
  <outline>
    <contour>
      <point x="934" y="1416" type="line"/>
      <point x="884" y="1524" type="line"/>
      <point x="288" y="1236" type="line"/>
      <point x="338" y="1128" type="line"/>
    </contour>
    <contour>
      <point x="562" y="-24" type="curve" smooth="yes"/>
      <point x="855" y="-23"/>
      <point x="1050" y="186"/>
      <point x="1050" y="546" type="curve" smooth="yes"/>
      <point x="1050" y="1056"/>
      <point x="701" y="1414"/>
      <point x="376" y="1582" type="curve"/>
      <point x="300" y="1460" type="line"/>
      <point x="646" y="1283"/>
      <point x="791" y="1039"/>
      <point x="856" y="858" type="curve"/>
      <point x="840" y="858" type="line"/>
      <point x="791" y="945"/>
      <point x="687" y="1048"/>
      <point x="518" y="1048" type="curve" smooth="yes"/>
      <point x="271" y="1048"/>
      <point x="72" y="829"/>
      <point x="72" y="512" type="curve" smooth="yes"/>
      <point x="72" y="201"/>
      <point x="262" y="-23"/>
    </contour>
    <contour>
      <point x="562" y="130" type="curve" smooth="yes"/>
      <point x="337" y="131"/>
      <point x="244" y="314"/>
      <point x="244" y="512" type="curve" smooth="yes"/>
      <point x="244" y="721"/>
      <point x="349" y="904"/>
      <point x="562" y="904" type="curve" smooth="yes"/>
      <point x="791" y="904"/>
      <point x="884" y="689"/>
      <point x="884" y="500" type="curve" smooth="yes"/>
      <point x="884" y="294"/>
      <point x="774" y="131"/>
    </contour>
  </outline>
</glyph>
<glyph name="divide" format="2">
  <advance width="1286"/>
  <unicode hex="00F7"/>
  <outline>
    <contour>
      <point x="1108" y="664" type="line"/>
      <point x="178" y="664" type="line"/>
      <point x="178" y="500" type="line"/>
      <point x="1108" y="500" type="line"/>
    </contour>
    <contour>
      <point x="642" y="76" type="curve" smooth="yes"/>
      <point x="713" y="76"/>
      <point x="770" y="134"/>
      <point x="770" y="206" type="curve" smooth="yes"/>
      <point x="770" y="276"/>
      <point x="713" y="334"/>
      <point x="642" y="334" type="curve" smooth="yes"/>
      <point x="570" y="334"/>
      <point x="512" y="276"/>
      <point x="512" y="206" type="curve" smooth="yes"/>
      <point x="512" y="134"/>
      <point x="570" y="76"/>
    </contour>
    <contour>
      <point x="642" y="830" type="curve" smooth="yes"/>
      <point x="713" y="829"/>
      <point x="770" y="887"/>
      <point x="770" y="960" type="curve" smooth="yes"/>
      <point x="770" y="1030"/>
      <point x="713" y="1088"/>
      <point x="642" y="1088" type="curve" smooth="yes"/>
      <point x="570" y="1088"/>
      <point x="512" y="1030"/>
      <point x="512" y="960" type="curve" smooth="yes"/>
      <point x="512" y="887"/>
      <point x="570" y="829"/>
    </contour>
  </outline>
</glyph>
<glyph name="thorn" format="2">
  <advance width="1158"/>
  <unicode hex="00FE"/>
  <outline>
    <contour>
      <point x="628" y="-20" type="curve" smooth="yes"/>
      <point x="903" y="-20"/>
      <point x="1086" y="203"/>
      <point x="1086" y="528" type="curve" smooth="yes"/>
      <point x="1086" y="854"/>
      <point x="903" y="1076"/>
      <point x="628" y="1076" type="curve" smooth="yes"/>
      <point x="491" y="1076"/>
      <point x="366" y="1018"/>
      <point x="298" y="900" type="curve"/>
      <point x="296" y="900" type="line"/>
      <point x="296" y="1490" type="line"/>
      <point x="126" y="1490" type="line"/>
      <point x="126" y="-418" type="line"/>
      <point x="296" y="-418" type="line"/>
      <point x="296" y="160" type="line"/>
      <point x="298" y="160" type="line"/>
      <point x="374" y="38"/>
      <point x="491" y="-20"/>
    </contour>
    <contour>
      <point x="602" y="133" type="curve" smooth="yes"/>
      <point x="406" y="133"/>
      <point x="282" y="289"/>
      <point x="282" y="528" type="curve" smooth="yes"/>
      <point x="282" y="767"/>
      <point x="406" y="924"/>
      <point x="602" y="924" type="curve" smooth="yes"/>
      <point x="785" y="924"/>
      <point x="914" y="787"/>
      <point x="914" y="528" type="curve" smooth="yes"/>
      <point x="914" y="269"/>
      <point x="785" y="133"/>
    </contour>
  </outline>
</glyph>
<glyph name="Hbar" format="2">
  <advance width="1494"/>
  <unicode hex="0126"/>
  <anchor x="747" y="0" name="bottom"/>
  <anchor x="259" y="0" name="cedilla"/>
  <anchor x="1324" y="0" name="cyrtic"/>
  <anchor x="1144" y="0" name="lfthook"/>
  <anchor x="1326" y="0" name="right"/>
  <anchor x="170" y="1490" name="tonos"/>
  <anchor x="747" y="1490" name="top"/>
  <outline>
    <contour>
      <point x="1444" y="1176" type="line"/>
      <point x="50" y="1176" type="line"/>
      <point x="50" y="1024" type="line"/>
      <point x="1444" y="1024" type="line"/>
    </contour>
    <component base="H" xOffset="22"/>
  </outline>
</glyph>
<glyph name="idotless" format="2">
  <advance width="422"/>
  <unicode hex="0131"/>
  <anchor x="211" y="0" name="bottom"/>
  <anchor x="212" y="594" name="cross"/>
  <anchor x="296" y="0" name="ogonek"/>
  <anchor x="211" y="1056" name="top"/>
  <outline>
    <contour>
      <point x="126" y="0" type="line"/>
      <point x="296" y="0" type="line"/>
      <point x="296" y="1056" type="line"/>
      <point x="126" y="1056" type="line"/>
    </contour>
  </outline>
</glyph>
<glyph name="kgreenlandic" format="2">
  <advance width="997"/>
  <unicode hex="0138"/>
  <outline>
    <contour>
      <point x="296" y="1056" type="line"/>
      <point x="126" y="1056" type="line"/>
      <point x="126" y="0" type="line"/>
      <point x="296" y="0" type="line"/>
    </contour>
    <contour>
      <point x="1001" y="1056" type="line"/>
      <point x="794" y="1056" type="line"/>
      <point x="396" y="604" type="line"/>
      <point x="228" y="604" type="line"/>
      <point x="228" y="450" type="line"/>
      <point x="459" y="450" type="line"/>
    </contour>
    <contour>
      <point x="784" y="0" type="line"/>
      <point x="995" y="0" type="line"/>
      <point x="453" y="597" type="line"/>
      <point x="368" y="455" type="line"/>
    </contour>
  </outline>
</glyph>
<glyph name="OE" format="2">
  <advance width="2023"/>
  <unicode hex="0152"/>
  <anchor x="1468" y="0" name="bottom"/>
  <anchor x="1479" y="0" name="cedilla"/>
  <anchor x="1953" y="0" name="ogonek"/>
  <anchor x="984" y="1490" name="tonos"/>
  <anchor x="1468" y="1490" name="top"/>
  <outline>
    <contour>
      <point x="800" y="0" type="curve" smooth="yes"/>
      <point x="1062" y="0" type="line"/>
      <point x="1062" y="160" type="line"/>
      <point x="812" y="160" type="line" smooth="yes"/>
      <point x="442" y="160"/>
      <point x="264" y="384"/>
      <point x="264" y="748" type="curve" smooth="yes"/>
      <point x="264" y="1108"/>
      <point x="442" y="1330"/>
      <point x="792" y="1330" type="curve" smooth="yes"/>
      <point x="1070" y="1330" type="line"/>
      <point x="1070" y="1490" type="line"/>
      <point x="780" y="1490" type="line" smooth="yes"/>
      <point x="346" y="1490"/>
      <point x="90" y="1210"/>
      <point x="90" y="748" type="curve" smooth="yes"/>
      <point x="90" y="282"/>
      <point x="346" y="0"/>
    </contour>
    <component base="E" xOffset="836"/>
  </outline>
</glyph>
<glyph name="tbar" format="2">
  <advance width="637"/>
  <unicode hex="0167"/>
  <anchor x="387" y="0" name="bottom"/>
  <anchor x="401" y="0" name="cedilla"/>
  <anchor x="587" y="0" name="lfthook"/>
  <anchor x="288" y="1344" name="top"/>
  <anchor x="499" y="1490" name="raccent"/>
  <outline>
    <contour>
      <point x="587" y="745" type="line"/>
      <point x="15" y="745" type="line"/>
      <point x="15" y="599" type="line"/>
      <point x="587" y="599" type="line"/>
    </contour>
    <component base="t"/>
  </outline>
</glyph>
<glyph name="Btopbar" format="2">
  <advance width="1274"/>
  <unicode hex="0182"/>
  <outline>
    <contour>
      <point x="148" y="0" type="line"/>
      <point x="706" y="0" type="line" smooth="yes"/>
      <point x="1027" y="0"/>
      <point x="1202" y="180"/>
      <point x="1202" y="440" type="curve" smooth="yes"/>
      <point x="1202" y="698"/>
      <point x="1027" y="864"/>
      <point x="706" y="864" type="curve" smooth="yes"/>
      <point x="328" y="864" type="line"/>
      <point x="328" y="1330" type="line"/>
      <point x="1048" y="1330" type="line"/>
      <point x="1048" y="1490" type="line"/>
      <point x="148" y="1490" type="line"/>
    </contour>
    <contour>
      <point x="328" y="158" type="line"/>
      <point x="328" y="704" type="line"/>
      <point x="706" y="704" type="line" smooth="yes"/>
      <point x="911" y="704"/>
      <point x="1024" y="585"/>
      <point x="1024" y="442" type="curve" smooth="yes"/>
      <point x="1024" y="297"/>
      <point x="911" y="157"/>
      <point x="706" y="158" type="curve" smooth="yes"/>
    </contour>
  </outline>
</glyph>
<glyph name="tonesix" format="2">
  <advance width="1285"/>
  <unicode hex="0185"/>
  <outline>
    <contour>
      <point x="168.418" y="604.236" type="line"/>
      <point x="427" y="1056" type="line"/>
      <point x="242.805" y="1056" type="line"/>
      <point x="29.582" y="683.764" type="line"/>
    </contour>
    <component base="softsigncyrillic" xOffset="215"/>
  </outline>
</glyph>
<glyph name="Dtopbar" format="2">
  <advance width="1228"/>
  <unicode hex="018B"/>
  <outline>
    <contour>
      <point x="1140" y="0" type="line"/>
      <point x="1140" y="1458" type="line"/>
      <point x="244" y="1458" type="line"/>
      <point x="244" y="1288" type="line"/>
      <point x="934" y="1288" type="line"/>
      <point x="934" y="870" type="line"/>
      <point x="584" y="870" type="line" smooth="yes"/>
      <point x="265" y="870"/>
      <point x="88" y="698"/>
      <point x="88" y="440" type="curve" smooth="yes"/>
      <point x="88" y="180"/>
      <point x="265" y="0"/>
      <point x="584" y="0" type="curve" smooth="yes"/>
    </contour>
    <contour>
      <point x="934" y="166" type="line"/>
      <point x="584" y="166" type="line" smooth="yes"/>
      <point x="378" y="166"/>
      <point x="296" y="297"/>
      <point x="296" y="442" type="curve" smooth="yes"/>
      <point x="296" y="585"/>
      <point x="378" y="701"/>
      <point x="584" y="702" type="curve" smooth="yes"/>
      <point x="934" y="702" type="line"/>
    </contour>
  </outline>
</glyph>
<glyph name="deltaturn" format="2">
  <advance width="1042"/>
  <unicode hex="018D"/>
  <outline>
    <contour>
      <point x="866" y="-376" type="line"/>
      <point x="866" y="-256" type="line"/>
      <point x="771" y="-145"/>
      <point x="637" y="-35"/>
      <point x="520" y="72" type="curve"/>
      <point x="535" y="72"/>
      <point x="535" y="73"/>
      <point x="556" y="76" type="curve" smooth="yes"/>
      <point x="841" y="111"/>
      <point x="1007" y="311"/>
      <point x="1006" y="550" type="curve" smooth="yes"/>
      <point x="1006" y="570" type="line" smooth="yes"/>
      <point x="1006" y="902"/>
      <point x="826" y="1132"/>
      <point x="520" y="1132" type="curve" smooth="yes"/>
      <point x="215" y="1132"/>
      <point x="38" y="902"/>
      <point x="38" y="570" type="curve" smooth="yes"/>
      <point x="38" y="550" type="line" smooth="yes"/>
      <point x="38" y="323"/>
      <point x="189" y="151"/>
      <point x="404" y="-34" type="curve" smooth="yes"/>
      <point x="468" y="-87"/>
      <point x="576" y="-189"/>
      <point x="600" y="-222" type="curve"/>
      <point x="158" y="-222" type="line"/>
      <point x="158" y="-376" type="line"/>
    </contour>
    <contour>
      <point x="806" y="550" type="line"/>
      <point x="806" y="364"/>
      <point x="713" y="198"/>
      <point x="504" y="198" type="curve" smooth="yes"/>
      <point x="468" y="198"/>
      <point x="442" y="201"/>
      <point x="416" y="210" type="curve"/>
      <point x="323" y="271"/>
      <point x="236" y="393"/>
      <point x="236" y="550" type="curve" smooth="yes"/>
      <point x="236" y="570" type="line" smooth="yes"/>
      <point x="236" y="800"/>
      <point x="323" y="972"/>
      <point x="520" y="972" type="curve" smooth="yes"/>
      <point x="721" y="972"/>
      <point x="806" y="800"/>
      <point x="806" y="570" type="curve" smooth="yes"/>
    </contour>
  </outline>
</glyph>
<glyph name="Schwa" format="2">
  <advance width="1496"/>
  <unicode hex="018F"/>
  <outline>
    <contour>
      <point x="733" y="-24" type="curve" smooth="yes"/>
      <point x="1129" y="-24"/>
      <point x="1406" y="296"/>
      <point x="1406" y="744" type="curve" smooth="yes"/>
      <point x="1406" y="1195"/>
      <point x="1122" y="1514"/>
      <point x="725" y="1514" type="curve" smooth="yes"/>
      <point x="409" y="1514"/>
      <point x="157" y="1306"/>
      <point x="105" y="1008" type="curve"/>
      <point x="287" y="1008" type="line"/>
      <point x="333" y="1208"/>
      <point x="506" y="1346"/>
      <point x="725" y="1346" type="curve" smooth="yes"/>
      <point x="1023" y="1346"/>
      <point x="1226" y="1100"/>
      <point x="1226" y="744" type="curve" smooth="yes"/>
      <point x="1226" y="390"/>
      <point x="1031" y="144"/>
      <point x="733" y="144" type="curve" smooth="yes"/>
      <point x="484" y="144"/>
      <point x="274" y="324"/>
      <point x="274" y="588" type="curve"/>
      <point x="216" y="585" type="line"/>
      <point x="1300" y="585" type="line"/>
      <point x="1300" y="745" type="line"/>
      <point x="96" y="745" type="line"/>
      <point x="96" y="584" type="line" smooth="yes"/>
      <point x="96" y="236"/>
      <point x="378" y="-24"/>
    </contour>
  </outline>
</glyph>
<glyph name="florin" format="2">
  <advance width="728"/>
  <unicode hex="0192"/>
  <outline>
    <contour>
      <point x="632" y="1082" type="line"/>
      <point x="428" y="1082" type="line"/>
      <point x="428" y="1192" type="line" smooth="yes"/>
      <point x="428" y="1321"/>
      <point x="489" y="1384"/>
      <point x="606" y="1384" type="curve" smooth="yes"/>
      <point x="640" y="1384"/>
      <point x="666" y="1379"/>
      <point x="686" y="1374" type="curve"/>
      <point x="730" y="1530" type="line"/>
      <point x="692" y="1545"/>
      <point x="614" y="1556"/>
      <point x="558" y="1556" type="curve" smooth="yes"/>
      <point x="378" y="1556"/>
      <point x="247" y="1428"/>
      <point x="248" y="1192" type="curve" smooth="yes"/>
      <point x="248" y="1082" type="line"/>
      <point x="66" y="1082" type="line"/>
      <point x="66" y="934" type="line"/>
      <point x="248" y="934" type="line"/>
      <point x="248" y="-72" type="line" smooth="yes"/>
      <point x="248" y="-189"/>
      <point x="189" y="-258"/>
      <point x="110" y="-258" type="curve" smooth="yes"/>
      <point x="93" y="-258"/>
      <point x="32" y="-256"/>
      <point x="12" y="-248" type="curve"/>
      <point x="-2" y="-404" type="line"/>
      <point x="35" y="-416"/>
      <point x="70" y="-418"/>
      <point x="110" y="-418" type="curve" smooth="yes"/>
      <point x="314" y="-418"/>
      <point x="428" y="-297"/>
      <point x="428" y="-72" type="curve" smooth="yes"/>
      <point x="428" y="934" type="line"/>
      <point x="632" y="934" type="line"/>
    </contour>
  </outline>
</glyph>
<glyph name="Gamma1" format="2">
  <advance width="1228"/>
  <unicode hex="0194"/>
  <outline>
    <contour>
      <point x="-12" y="1490" type="line"/>
      <point x="584" y="114" type="line" smooth="yes"/>
      <point x="660" y="-61"/>
      <point x="702" y="-140"/>
      <point x="702" y="-198" type="curve" smooth="yes"/>
      <point x="702" y="-241"/>
      <point x="666" y="-280"/>
      <point x="614" y="-280" type="curve" smooth="yes"/>
      <point x="561" y="-280"/>
      <point x="526" y="-244"/>
      <point x="526" y="-198" type="curve" smooth="yes"/>
      <point x="526" y="-140"/>
      <point x="573" y="-55"/>
      <point x="646" y="114" type="curve" smooth="yes"/>
      <point x="1240" y="1490" type="line"/>
      <point x="1044" y="1490" type="line"/>
      <point x="530" y="282" type="line" smooth="yes"/>
      <point x="416" y="15"/>
      <point x="344" y="-99"/>
      <point x="344" y="-198" type="curve" smooth="yes"/>
      <point x="344" y="-355"/>
      <point x="445" y="-442"/>
      <point x="614" y="-442" type="curve" smooth="yes"/>
      <point x="783" y="-442"/>
      <point x="884" y="-355"/>
      <point x="884" y="-198" type="curve" smooth="yes"/>
      <point x="884" y="-105"/>
      <point x="806" y="15"/>
      <point x="692" y="282" type="curve" smooth="yes"/>
      <point x="184" y="1490" type="line"/>
    </contour>
  </outline>
</glyph>
<glyph name="hv" format="2">
  <advance width="1864"/>
  <unicode hex="0195"/>
  <outline>
    <contour>
      <point x="1212" y="-20" type="curve" smooth="yes"/>
      <point x="1509" y="-20"/>
      <point x="1738" y="251"/>
      <point x="1738" y="966" type="curve" smooth="yes"/>
      <point x="1738" y="1056" type="line"/>
      <point x="1568" y="1056" type="line"/>
      <point x="1568" y="966" type="line" smooth="yes"/>
      <point x="1568" y="348"/>
      <point x="1405" y="134"/>
      <point x="1224" y="134" type="curve" smooth="yes"/>
      <point x="1137" y="134"/>
      <point x="1010" y="180"/>
      <point x="1010" y="442" type="curve" smooth="yes"/>
      <point x="1010" y="656" type="line" smooth="yes"/>
      <point x="1010" y="937"/>
      <point x="828" y="1076"/>
      <point x="615" y="1076" type="curve" smooth="yes"/>
      <point x="448" y="1076"/>
      <point x="346" y="988"/>
      <point x="300" y="886" type="curve"/>
      <point x="296" y="886" type="line"/>
      <point x="296" y="1490" type="line"/>
      <point x="126" y="1490" type="line"/>
      <point x="126" y="0" type="line"/>
      <point x="296" y="0" type="line"/>
      <point x="296" y="618" type="line" smooth="yes"/>
      <point x="296" y="831"/>
      <point x="426" y="920"/>
      <point x="580" y="920" type="curve" smooth="yes"/>
      <point x="738" y="920"/>
      <point x="840" y="827"/>
      <point x="840" y="644" type="curve" smooth="yes"/>
      <point x="840" y="442" type="line" smooth="yes"/>
      <point x="840" y="120"/>
      <point x="1005" y="-20"/>
    </contour>
  </outline>
</glyph>
<glyph name="Khook" format="2">
  <advance width="1312"/>
  <unicode hex="0198"/>
  <outline>
    <contour>
      <point x="148" y="0" type="line"/>
      <point x="328" y="0" type="line"/>
      <point x="328" y="482" type="line"/>
      <point x="514" y="692" type="line"/>
      <point x="1032" y="0" type="line"/>
      <point x="1250" y="0" type="line"/>
      <point x="626" y="818" type="line"/>
      <point x="1050" y="1274" type="line" smooth="yes"/>
      <point x="1124" y="1354"/>
      <point x="1190" y="1359"/>
      <point x="1254" y="1318" type="curve"/>
      <point x="1326" y="1452" type="line"/>
      <point x="1207" y="1536"/>
      <point x="1053" y="1530"/>
      <point x="936" y="1402" type="curve" smooth="yes"/>
      <point x="346" y="750" type="line"/>
      <point x="328" y="750" type="line"/>
      <point x="328" y="1490" type="line"/>
      <point x="148" y="1490" type="line"/>
    </contour>
  </outline>
</glyph>
<glyph name="mcapturn" format="2">
  <advance width="1786"/>
  <unicode hex="019C"/>
  <outline>
    <contour>
      <point x="1454" y="212" type="line"/>
      <point x="1464" y="0" type="line"/>
      <point x="1652" y="0" type="line"/>
      <point x="1652" y="1490" type="line"/>
      <point x="1454" y="1490" type="line"/>
    </contour>
    <contour>
      <point x="1470" y="504" type="line"/>
      <point x="1469" y="303"/>
      <point x="1396" y="146"/>
      <point x="1182" y="146" type="curve" smooth="yes"/>
      <point x="1088" y="146"/>
      <point x="992" y="204"/>
      <point x="992" y="442" type="curve"/>
      <point x="992" y="1490" type="line"/>
      <point x="794" y="1490" type="line"/>
      <point x="794" y="442" type="line"/>
      <point x="794" y="93"/>
      <point x="937" y="-20"/>
      <point x="1150" y="-20" type="curve" smooth="yes"/>
      <point x="1446" y="-20"/>
      <point x="1562" y="204"/>
      <point x="1562" y="506" type="curve"/>
    </contour>
    <contour>
      <point x="812" y="504" type="line"/>
      <point x="812" y="303"/>
      <point x="736" y="146"/>
      <point x="520" y="146" type="curve" smooth="yes"/>
      <point x="428" y="146"/>
      <point x="335" y="204"/>
      <point x="334" y="442" type="curve" smooth="yes"/>
      <point x="334" y="1490" type="line"/>
      <point x="134" y="1490" type="line"/>
      <point x="134" y="442" type="line" smooth="yes"/>
      <point x="134" y="96"/>
      <point x="273" y="-20"/>
      <point x="488" y="-20" type="curve" smooth="yes"/>
      <point x="785" y="-20"/>
      <point x="905" y="204"/>
      <point x="904" y="506" type="curve"/>
    </contour>
  </outline>
</glyph>
<glyph name="Ohorn" format="2">
  <advance width="1534"/>
  <unicode hex="01A0"/>
  <anchor x="767" y="0" name="bottom"/>
  <anchor x="767" y="745" name="center"/>
  <anchor x="1444" y="744" name="ogonek"/>
  <anchor x="257" y="1490" name="tonos"/>
  <anchor x="767" y="1490" name="top"/>
  <anchor x="767" y="1514" name="tophorn"/>
  <outline>
    <contour>
      <point x="767" y="1366" type="line"/>
      <point x="1128" y="1366"/>
      <point x="1159" y="1350"/>
      <point x="1274" y="1350" type="curve" smooth="yes"/>
      <point x="1388" y="1350"/>
      <point x="1444" y="1406"/>
      <point x="1444" y="1520" type="curve" smooth="yes"/>
      <point x="1444" y="1730" type="line"/>
      <point x="1274" y="1730" type="line"/>
      <point x="1274" y="1508" type="line" smooth="yes"/>
      <point x="1274" y="1497"/>
      <point x="1267" y="1490"/>
      <point x="1256" y="1490" type="curve" smooth="yes"/>
      <point x="957" y="1490"/>
      <point x="930" y="1514"/>
      <point x="767" y="1514" type="curve"/>
    </contour>
    <component base="O"/>
  </outline>
</glyph>
<glyph name="ohorn" format="2">
  <advance width="1124"/>
  <unicode hex="01A1"/>
  <anchor x="562" y="0" name="bottom"/>
  <anchor x="562" y="528" name="center"/>
  <anchor x="1052" y="526" name="ogonek"/>
  <anchor x="562" y="1056" name="top"/>
  <anchor x="562" y="1080" name="tophorn"/>
  <outline>
    <contour>
      <point x="562" y="960" type="line"/>
      <point x="676" y="960"/>
      <point x="783" y="960"/>
      <point x="897" y="960" type="curve" smooth="yes"/>
      <point x="1015" y="960"/>
      <point x="1067" y="1004"/>
      <point x="1067" y="1106" type="curve" smooth="yes"/>
      <point x="1067" y="1296" type="line"/>
      <point x="907" y="1296" type="line"/>
      <point x="907" y="1094" type="line" smooth="yes"/>
      <point x="907" y="1075"/>
      <point x="895" y="1064"/>
      <point x="873" y="1064" type="curve" smooth="yes"/>
      <point x="647" y="1064"/>
      <point x="692" y="1080"/>
      <point x="562" y="1080" type="curve"/>
    </contour>
    <component base="o"/>
  </outline>
</glyph>
<glyph name="OI" format="2">
  <advance width="1704"/>
  <unicode hex="01A2"/>
  <outline>
    <contour>
      <point x="1214" y="760" type="line" name="hr00"/>
      <point x="1016" y="760" type="line"/>
      <point x="1016" y="250" type="line"/>
      <point x="950" y="180"/>
      <point x="842" y="146"/>
      <point x="724" y="146" type="curve" smooth="yes"/>
      <point x="440" y="146"/>
      <point x="297" y="342"/>
      <point x="296" y="678" type="curve" smooth="yes"/>
      <point x="296" y="806" type="line"/>
      <point x="90" y="802" type="line"/>
      <point x="90" y="678" type="line" smooth="yes"/>
      <point x="90" y="249"/>
      <point x="321" y="-20"/>
      <point x="712" y="-20" type="curve" smooth="yes"/>
      <point x="930" y="-20"/>
      <point x="1124" y="60"/>
      <point x="1214" y="198" type="curve"/>
    </contour>
    <contour>
      <point x="1214" y="1292" type="line"/>
      <point x="1128" y="1424"/>
      <point x="938" y="1510"/>
      <point x="730" y="1510" type="curve" smooth="yes"/>
      <point x="329" y="1510"/>
      <point x="90" y="1249"/>
      <point x="90" y="812" type="curve" smooth="yes"/>
      <point x="90" y="696" type="line"/>
      <point x="296" y="696" type="line"/>
      <point x="296" y="812" type="line" smooth="yes"/>
      <point x="296" y="1159"/>
      <point x="444" y="1342"/>
      <point x="728" y="1342" type="curve" smooth="yes"/>
      <point x="850" y="1342"/>
      <point x="959" y="1301"/>
      <point x="1016" y="1236" type="curve"/>
      <point x="1016" y="742" type="line"/>
      <point x="1214" y="742" type="line"/>
    </contour>
    <contour>
      <point x="1556" y="1490" type="line"/>
      <point x="1402" y="1490" type="line"/>
      <point x="1122" y="1376" type="line"/>
      <point x="1122" y="1208" type="line"/>
      <point x="1356" y="1292" type="line"/>
      <point x="1356" y="-418" type="line"/>
      <point x="1556" y="-418" type="line"/>
    </contour>
  </outline>
</glyph>
<glyph name="oi" format="2">
  <advance width="1228"/>
  <unicode hex="01A3"/>
  <outline>
    <contour>
      <point x="524" y="140" type="curve" smooth="yes"/>
      <point x="349" y="140"/>
      <point x="239" y="279"/>
      <point x="238" y="520" type="curve" smooth="yes"/>
      <point x="238" y="562" type="line" smooth="yes"/>
      <point x="238" y="774"/>
      <point x="300" y="972"/>
      <point x="518" y="972" type="curve" smooth="yes"/>
      <point x="582" y="972"/>
      <point x="631" y="954"/>
      <point x="670" y="926" type="curve"/>
      <point x="670" y="510" type="line"/>
      <point x="870" y="510" type="line"/>
      <point x="870" y="978" type="line"/>
      <point x="794" y="1073"/>
      <point x="675" y="1132"/>
      <point x="524" y="1132" type="curve" smooth="yes"/>
      <point x="195" y="1132"/>
      <point x="38" y="879"/>
      <point x="38" y="562" type="curve" smooth="yes"/>
      <point x="38" y="520" type="line" smooth="yes"/>
      <point x="38" y="233"/>
      <point x="201" y="-20"/>
      <point x="514" y="-20" type="curve" smooth="yes"/>
      <point x="672" y="-20"/>
      <point x="791" y="44"/>
      <point x="870" y="136" type="curve"/>
      <point x="870" y="544" type="line"/>
      <point x="670" y="544" type="line"/>
      <point x="670" y="184" type="line"/>
      <point x="628" y="157"/>
      <point x="585" y="140"/>
    </contour>
    <contour>
      <point x="1190" y="1118" type="line"/>
      <point x="1032" y="1118" type="line"/>
      <point x="774" y="984" type="line"/>
      <point x="774" y="730" type="line"/>
      <point x="992" y="858" type="line"/>
      <point x="992" y="-418" type="line"/>
      <point x="1190" y="-418" type="line"/>
    </contour>
  </outline>
</glyph>
<glyph name="YR" format="2">
  <advance width="1414"/>
  <unicode hex="01A6"/>
  <outline>
    <contour>
      <point x="78" y="1390" type="line" name="hr00"/>
      <point x="288" y="1390" type="line"/>
      <point x="288" y="1592" type="line"/>
      <point x="78" y="1592" type="line"/>
    </contour>
    <contour>
      <point x="78" y="1490" type="line"/>
      <point x="78" y="0" type="line"/>
      <point x="288" y="0" type="line"/>
      <point x="288" y="1322" type="line"/>
      <point x="564" y="1322" type="line" smooth="yes"/>
      <point x="783" y="1322"/>
      <point x="870" y="1215"/>
      <point x="870" y="1052" type="curve" smooth="yes"/>
      <point x="870" y="903"/>
      <point x="768" y="787"/>
      <point x="564" y="786" type="curve" smooth="yes"/>
      <point x="242" y="786" type="line"/>
      <point x="242" y="622" type="line"/>
      <point x="684" y="622" type="line"/>
      <point x="738" y="642" type="line"/>
      <point x="951" y="700"/>
      <point x="1076" y="851"/>
      <point x="1076" y="1052" type="curve" smooth="yes"/>
      <point x="1076" y="1337"/>
      <point x="896" y="1491"/>
      <point x="564" y="1490" type="curve" smooth="yes"/>
    </contour>
    <contour>
      <point x="1114" y="-360" type="line"/>
      <point x="1336" y="-360" type="line"/>
      <point x="1336" y="-350" type="line"/>
      <point x="788" y="664" type="line"/>
      <point x="570" y="664" type="line"/>
    </contour>
  </outline>
</glyph>
<glyph name="tonetwo" format="2">
  <advance width="970"/>
  <unicode hex="01A8"/>
  <anchor x="496" y="0" name="bottom"/>
  <anchor x="498" y="0" name="cedilla"/>
  <anchor x="490" y="1056" name="top"/>
  <outline>
    <contour>
      <point x="96" y="740" type="curve"/>
      <point x="262" y="740" type="line"/>
      <point x="264" y="852"/>
      <point x="350" y="924"/>
      <point x="486" y="924" type="curve" smooth="yes"/>
      <point x="616" y="924"/>
      <point x="704" y="862"/>
      <point x="704" y="772" type="curve" smooth="yes"/>
      <point x="704" y="692"/>
      <point x="638" y="644"/>
      <point x="536" y="620" type="curve" smooth="yes"/>
      <point x="366" y="580" type="line" smooth="yes"/>
      <point x="164" y="532"/>
      <point x="74" y="432"/>
      <point x="74" y="288" type="curve" smooth="yes"/>
      <point x="74" y="92"/>
      <point x="246" y="-20"/>
      <point x="476" y="-20" type="curve" smooth="yes"/>
      <point x="702" y="-20"/>
      <point x="880" y="86"/>
      <point x="894" y="316" type="curve"/>
      <point x="726" y="316" type="line"/>
      <point x="714" y="190"/>
      <point x="628" y="132"/>
      <point x="480" y="132" type="curve" smooth="yes"/>
      <point x="334" y="132"/>
      <point x="244" y="190"/>
      <point x="244" y="284" type="curve" smooth="yes"/>
      <point x="244" y="364"/>
      <point x="308" y="406"/>
      <point x="402" y="428" type="curve" smooth="yes"/>
      <point x="572" y="468" type="line" smooth="yes"/>
      <point x="768" y="514"/>
      <point x="870" y="618"/>
      <point x="870" y="772" type="curve" smooth="yes"/>
      <point x="870" y="952"/>
      <point x="712" y="1076"/>
      <point x="486" y="1076" type="curve" smooth="yes"/>
      <point x="266" y="1076"/>
      <point x="102" y="950"/>
    </contour>
  </outline>
</glyph>
<glyph name="eshlooprev" format="2">
  <advance width="1042"/>
  <unicode hex="01AA"/>
  <outline>
    <contour>
      <point x="562" y="1134" type="line" name="hr00"/>
      <point x="562" y="-70" type="line" smooth="yes"/>
      <point x="562" y="-297"/>
      <point x="655" y="-418"/>
      <point x="844" y="-418" type="curve" smooth="yes"/>
      <point x="879" y="-418"/>
      <point x="931" y="-413"/>
      <point x="960" y="-402" type="curve"/>
      <point x="960" y="-244" type="line"/>
      <point x="940" y="-250"/>
      <point x="913" y="-254"/>
      <point x="896" y="-254" type="curve" smooth="yes"/>
      <point x="809" y="-254"/>
      <point x="762" y="-207"/>
      <point x="762" y="-70" type="curve" smooth="yes"/>
      <point x="762" y="1218" type="line"/>
    </contour>
    <contour>
      <point x="82" y="1218" type="curve" smooth="yes"/>
      <point x="81" y="1033"/>
      <point x="233" y="878"/>
      <point x="422" y="878" type="curve" smooth="yes"/>
      <point x="608" y="878"/>
      <point x="762" y="1033"/>
      <point x="762" y="1218" type="curve" smooth="yes"/>
      <point x="762" y="1408"/>
      <point x="608" y="1558"/>
      <point x="422" y="1558" type="curve" smooth="yes"/>
      <point x="233" y="1558"/>
      <point x="81" y="1408"/>
    </contour>
    <contour>
      <point x="422" y="1062" type="curve" smooth="yes"/>
      <point x="335" y="1062"/>
      <point x="268" y="1114"/>
      <point x="268" y="1222" type="curve" smooth="yes"/>
      <point x="268" y="1327"/>
      <point x="335" y="1382"/>
      <point x="422" y="1382" type="curve" smooth="yes"/>
      <point x="506" y="1382"/>
      <point x="574" y="1327"/>
      <point x="574" y="1222" type="curve" smooth="yes"/>
      <point x="574" y="1114"/>
      <point x="506" y="1062"/>
    </contour>
  </outline>
</glyph>
<glyph name="thook" format="2">
  <advance width="607"/>
  <unicode hex="01AD"/>
  <anchor x="339" y="1056" name="_topr"/>
  <anchor x="353" y="0" name="bottom"/>
  <anchor x="295" y="1490" name="top"/>
  <outline>
    <contour>
      <point x="169" y="1056" type="line"/>
      <point x="169" y="246" type="line" smooth="yes"/>
      <point x="169" y="95"/>
      <point x="276" y="0"/>
      <point x="447" y="0" type="curve" smooth="yes"/>
      <point x="482" y="0"/>
      <point x="518" y="0"/>
      <point x="553" y="0" type="curve"/>
      <point x="553" y="146" type="line"/>
      <point x="523" y="146"/>
      <point x="493" y="146"/>
      <point x="463" y="146" type="curve" smooth="yes"/>
      <point x="373" y="146"/>
      <point x="339" y="181"/>
      <point x="339" y="272" type="curve" smooth="yes"/>
      <point x="339" y="1056" type="line"/>
    </contour>
    <contour>
      <point x="553" y="1056" type="line"/>
      <point x="15" y="1056" type="line"/>
      <point x="15" y="910" type="line"/>
      <point x="553" y="910" type="line"/>
    </contour>
    <component base="_part.top_r_hook" xOffset="47"/>
  </outline>
</glyph>
<glyph name="Uhorn" format="2">
  <advance width="1440"/>
  <unicode hex="01AF"/>
  <anchor x="720" y="0" name="bottom"/>
  <anchor x="1300" y="506" name="ogonek"/>
  <anchor x="804" y="0" name="right"/>
  <anchor x="1120" y="1490" name="rtophorn"/>
  <anchor x="720" y="1490" name="top"/>
  <outline>
    <contour>
      <point x="1120" y="1350" type="line"/>
      <point x="1312" y="1350" type="line" smooth="yes"/>
      <point x="1426" y="1350"/>
      <point x="1482" y="1406"/>
      <point x="1482" y="1520" type="curve" smooth="yes"/>
      <point x="1482" y="1730" type="line"/>
      <point x="1312" y="1730" type="line"/>
      <point x="1312" y="1508" type="line" smooth="yes"/>
      <point x="1312" y="1497"/>
      <point x="1305" y="1490"/>
      <point x="1294" y="1490" type="curve" smooth="yes"/>
      <point x="1120" y="1490" type="line"/>
    </contour>
    <component base="U"/>
  </outline>
</glyph>
<glyph name="Upsilon2" format="2">
  <advance width="1496"/>
  <unicode hex="01B1"/>
  <outline>
    <contour>
      <point x="90" y="704" type="curve" smooth="yes"/>
      <point x="90" y="279"/>
      <point x="364" y="-20"/>
      <point x="748" y="-20" type="curve" smooth="yes"/>
      <point x="1132" y="-20"/>
      <point x="1406" y="279"/>
      <point x="1406" y="704" type="curve" smooth="yes"/>
      <point x="1406" y="986"/>
      <point x="1286" y="1196"/>
      <point x="1094" y="1318" type="curve"/>
      <point x="1094" y="1330" type="line"/>
      <point x="1406" y="1330" type="line"/>
      <point x="1406" y="1490" type="line"/>
      <point x="876" y="1490" type="line"/>
      <point x="876" y="1286" type="line"/>
      <point x="1068" y="1204"/>
      <point x="1230" y="983"/>
      <point x="1230" y="704" type="curve" smooth="yes"/>
      <point x="1230" y="393"/>
      <point x="1030" y="148"/>
      <point x="748" y="148" type="curve" smooth="yes"/>
      <point x="465" y="148"/>
      <point x="264" y="393"/>
      <point x="264" y="704" type="curve" smooth="yes"/>
      <point x="264" y="983"/>
      <point x="428" y="1204"/>
      <point x="620" y="1286" type="curve"/>
      <point x="620" y="1490" type="line"/>
      <point x="90" y="1490" type="line"/>
      <point x="90" y="1330" type="line"/>
      <point x="402" y="1330" type="line"/>
      <point x="402" y="1318" type="line"/>
      <point x="209" y="1193"/>
      <point x="90" y="986"/>
    </contour>
  </outline>
</glyph>
<glyph name="Vcursive" format="2">
  <advance width="1228"/>
  <unicode hex="01B2"/>
  <outline>
    <contour>
      <point x="614" y="-20" type="curve" smooth="yes"/>
      <point x="896" y="-20"/>
      <point x="1146" y="143"/>
      <point x="1146" y="472" type="curve" smooth="yes"/>
      <point x="1146" y="1160" type="line" smooth="yes"/>
      <point x="1146" y="1385"/>
      <point x="1008" y="1510"/>
      <point x="830" y="1510" type="curve" smooth="yes"/>
      <point x="784" y="1510"/>
      <point x="736" y="1501"/>
      <point x="706" y="1492" type="curve"/>
      <point x="706" y="1332" type="line"/>
      <point x="724" y="1337"/>
      <point x="756" y="1338"/>
      <point x="774" y="1338" type="curve" smooth="yes"/>
      <point x="877" y="1338"/>
      <point x="937" y="1292"/>
      <point x="936" y="1160" type="curve" smooth="yes"/>
      <point x="936" y="472" type="line" smooth="yes"/>
      <point x="936" y="247"/>
      <point x="809" y="146"/>
      <point x="614" y="146" type="curve" smooth="yes"/>
      <point x="419" y="146"/>
      <point x="291" y="247"/>
      <point x="290" y="472" type="curve" smooth="yes"/>
      <point x="290" y="1490" type="line"/>
      <point x="84" y="1490" type="line"/>
      <point x="84" y="472" type="line" smooth="yes"/>
      <point x="84" y="143"/>
      <point x="314" y="-20"/>
    </contour>
  </outline>
</glyph>
<glyph name="Yhook" format="2">
  <advance width="1382"/>
  <unicode hex="01B3"/>
  <outline>
    <contour>
      <point x="634" y="760" type="line"/>
      <point x="670" y="760" type="line"/>
      <point x="670" y="794" type="line"/>
      <point x="634" y="794" type="line"/>
    </contour>
    <contour>
      <point x="24" y="1490" type="line"/>
      <point x="562" y="614" type="line"/>
      <point x="562" y="0" type="line"/>
      <point x="742" y="0" type="line"/>
      <point x="742" y="614" type="line"/>
      <point x="1140" y="1266" type="line" smooth="yes"/>
      <point x="1193" y="1351"/>
      <point x="1257" y="1361"/>
      <point x="1326" y="1332" type="curve"/>
      <point x="1374" y="1478" type="line"/>
      <point x="1231" y="1545"/>
      <point x="1082" y="1503"/>
      <point x="986" y="1342" type="curve" smooth="yes"/>
      <point x="652" y="780" type="line"/>
      <point x="230" y="1490" type="line"/>
    </contour>
  </outline>
</glyph>
<glyph name="yhook" format="2">
  <advance width="1349"/>
  <unicode hex="01B4"/>
  <anchor x="797" y="0" name="bottom"/>
  <anchor x="605" y="0" name="ogonek"/>
  <anchor x="524" y="1056" name="top"/>
  <outline>
    <contour>
      <point x="837" y="1056" type="line"/>
      <point x="1018" y="1056" type="line"/>
      <point x="1080" y="1219" type="line" smooth="yes"/>
      <point x="1112" y="1304"/>
      <point x="1132" y="1342"/>
      <point x="1209" y="1342" type="curve" smooth="yes"/>
      <point x="1229" y="1342"/>
      <point x="1288" y="1342"/>
      <point x="1309" y="1342" type="curve"/>
      <point x="1309" y="1490" type="line"/>
      <point x="1281" y="1490"/>
      <point x="1249" y="1490"/>
      <point x="1204" y="1490" type="curve" smooth="yes"/>
      <point x="1019" y="1490"/>
      <point x="966" y="1394"/>
      <point x="908" y="1242" type="curve" smooth="yes"/>
    </contour>
    <component base="y"/>
  </outline>
</glyph>
<glyph name="Ezh" format="2">
  <advance width="1312"/>
  <unicode hex="01B7"/>
  <anchor x="650" y="1490" name="top"/>
  <outline>
    <contour>
      <point x="50" y="64" type="line"/>
      <point x="68" y="-235"/>
      <point x="319" y="-440"/>
      <point x="638" y="-440" type="curve" smooth="yes"/>
      <point x="994" y="-440"/>
      <point x="1232" y="-180"/>
      <point x="1232" y="180" type="curve" smooth="yes"/>
      <point x="1232" y="531"/>
      <point x="999" y="780"/>
      <point x="668" y="794" type="curve"/>
      <point x="668" y="808" type="line"/>
      <point x="1194" y="1358" type="line"/>
      <point x="1194" y="1490" type="line"/>
      <point x="136" y="1490" type="line"/>
      <point x="136" y="1326" type="line"/>
      <point x="944" y="1326" type="line"/>
      <point x="944" y="1314" type="line"/>
      <point x="446" y="802" type="line"/>
      <point x="446" y="652" type="line"/>
      <point x="558" y="652" type="line" smooth="yes"/>
      <point x="849" y="652"/>
      <point x="1054" y="468"/>
      <point x="1054" y="178" type="curve" smooth="yes"/>
      <point x="1054" y="-80"/>
      <point x="895" y="-278"/>
      <point x="642" y="-278" type="curve" smooth="yes"/>
      <point x="428" y="-278"/>
      <point x="248" y="-139"/>
      <point x="234" y="64" type="curve"/>
    </contour>
  </outline>
</glyph>
<glyph name="Ezhreversed" format="2">
  <advance width="1312"/>
  <unicode hex="01B8"/>
  <anchor x="662" y="1490" name="top"/>
  <outline>
    <contour>
      <point x="1262" y="64" type="curve"/>
      <point x="1078" y="64" type="line"/>
      <point x="1064" y="-139"/>
      <point x="885" y="-278"/>
      <point x="670" y="-278" type="curve" smooth="yes"/>
      <point x="418" y="-278"/>
      <point x="258" y="-80"/>
      <point x="258" y="178" type="curve" smooth="yes"/>
      <point x="258" y="468"/>
      <point x="464" y="652"/>
      <point x="756" y="652" type="curve" smooth="yes"/>
      <point x="866" y="652" type="line"/>
      <point x="866" y="802" type="line"/>
      <point x="368" y="1314" type="line"/>
      <point x="368" y="1326" type="line"/>
      <point x="1178" y="1326" type="line"/>
      <point x="1178" y="1490" type="line"/>
      <point x="118" y="1490" type="line"/>
      <point x="118" y="1358" type="line"/>
      <point x="644" y="808" type="line"/>
      <point x="644" y="794" type="line"/>
      <point x="314" y="780"/>
      <point x="80" y="531"/>
      <point x="80" y="180" type="curve" smooth="yes"/>
      <point x="80" y="-180"/>
      <point x="318" y="-440"/>
      <point x="674" y="-440" type="curve" smooth="yes"/>
      <point x="993" y="-440"/>
      <point x="1245" y="-235"/>
    </contour>
  </outline>
</glyph>
<glyph name="ezhreversed" format="2">
  <advance width="1226"/>
  <unicode hex="01B9"/>
  <anchor x="590" y="1056" name="top"/>
  <outline>
    <contour>
      <point x="606" y="-458" type="curve" smooth="yes"/>
      <point x="916" y="-458"/>
      <point x="1130" y="-257"/>
      <point x="1130" y="34" type="curve"/>
      <point x="948" y="34" type="line"/>
      <point x="948" y="-175"/>
      <point x="822" y="-300"/>
      <point x="610" y="-300" type="curve" smooth="yes"/>
      <point x="403" y="-300"/>
      <point x="266" y="-183"/>
      <point x="266" y="-6" type="curve" smooth="yes"/>
      <point x="266" y="184"/>
      <point x="401" y="290"/>
      <point x="642" y="290" type="curve" smooth="yes"/>
      <point x="760" y="290" type="line"/>
      <point x="760" y="436" type="line"/>
      <point x="380" y="894" type="line"/>
      <point x="380" y="896" type="line"/>
      <point x="1030" y="896" type="line"/>
      <point x="1030" y="1056" type="line"/>
      <point x="148" y="1056" type="line"/>
      <point x="148" y="924" type="line"/>
      <point x="557" y="432" type="line"/>
      <point x="557" y="430" type="line"/>
      <point x="287" y="415"/>
      <point x="90" y="244"/>
      <point x="90" y="-6" type="curve" smooth="yes"/>
      <point x="90" y="-268"/>
      <point x="306" y="-458"/>
    </contour>
  </outline>
</glyph>
<glyph name="ezhtail" format="2">
  <advance width="1042"/>
  <unicode hex="01BA"/>
  <outline>
    <contour>
      <point x="114" y="1056" type="line" name="hr00"/>
      <point x="114" y="896" type="line"/>
      <point x="694" y="896" type="line"/>
      <point x="312" y="604" type="line"/>
      <point x="312" y="478" type="line"/>
      <point x="416" y="478" type="line"/>
      <point x="984" y="932" type="line"/>
      <point x="984" y="1056" type="line"/>
    </contour>
    <contour>
      <point x="258" y="-133" type="curve" smooth="yes"/>
      <point x="258" y="-61"/>
      <point x="305" y="6"/>
      <point x="492" y="46" type="curve" smooth="yes"/>
      <point x="729" y="97"/>
      <point x="894" y="175"/>
      <point x="894" y="359" type="curve" smooth="yes"/>
      <point x="894" y="542"/>
      <point x="732" y="638"/>
      <point x="486" y="638" type="curve" smooth="yes"/>
      <point x="422" y="638" type="line"/>
      <point x="410" y="478" type="line"/>
      <point x="486" y="478" type="line" smooth="yes"/>
      <point x="637" y="478"/>
      <point x="692" y="432"/>
      <point x="692" y="356" type="curve" smooth="yes"/>
      <point x="692" y="255"/>
      <point x="597" y="240"/>
      <point x="466" y="210" type="curve" smooth="yes"/>
      <point x="297" y="171"/>
      <point x="62" y="106"/>
      <point x="62" y="-121" type="curve" smooth="yes"/>
      <point x="62" y="-313"/>
      <point x="229" y="-444"/>
      <point x="480" y="-444" type="curve" smooth="yes"/>
      <point x="772" y="-444"/>
      <point x="928" y="-266"/>
      <point x="928" y="-86" type="curve"/>
      <point x="730" y="-86" type="line"/>
      <point x="721" y="-237"/>
      <point x="595" y="-284"/>
      <point x="474" y="-284" type="curve" smooth="yes"/>
      <point x="340" y="-284"/>
      <point x="258" y="-227"/>
    </contour>
  </outline>
</glyph>
<glyph name="tonefive" format="2">
  <advance width="1042"/>
  <unicode hex="01BD"/>
  <outline>
    <contour>
      <point x="350" y="472" type="line" name="hr00"/>
      <point x="387" y="527"/>
      <point x="445" y="576"/>
      <point x="558" y="576" type="curve" smooth="yes"/>
      <point x="707" y="576"/>
      <point x="782" y="489"/>
      <point x="782" y="360" type="curve" smooth="yes"/>
      <point x="782" y="236"/>
      <point x="713" y="146"/>
      <point x="552" y="146" type="curve" smooth="yes"/>
      <point x="422" y="146"/>
      <point x="329" y="215"/>
      <point x="328" y="322" type="curve"/>
      <point x="136" y="306" type="line"/>
      <point x="136" y="87"/>
      <point x="367" y="-18"/>
      <point x="552" y="-18" type="curve" smooth="yes"/>
      <point x="858" y="-18"/>
      <point x="980" y="148"/>
      <point x="980" y="360" type="curve" smooth="yes"/>
      <point x="980" y="602"/>
      <point x="838" y="742"/>
      <point x="596" y="736" type="curve"/>
      <point x="521" y="733"/>
      <point x="431" y="704"/>
      <point x="386" y="674" type="curve"/>
      <point x="416" y="910" type="line"/>
      <point x="926" y="910" type="line"/>
      <point x="926" y="1082" type="line"/>
      <point x="248" y="1082" type="line"/>
      <point x="178" y="486" type="line"/>
    </contour>
    <contour>
      <point x="364" y="1082" type="line"/>
      <point x="62" y="1082" type="line"/>
      <point x="62" y="910" type="line"/>
      <point x="364" y="910" type="line"/>
    </contour>
  </outline>
</glyph>
<glyph name="glottalstopbarinv" format="2">
  <advance width="1042"/>
  <unicode hex="01BE"/>
  <outline>
    <contour>
      <point x="756" y="288" type="curve" smooth="yes"/>
      <point x="756" y="204"/>
      <point x="678" y="140"/>
      <point x="536" y="140" type="curve" smooth="yes"/>
      <point x="422" y="140"/>
      <point x="294" y="189"/>
      <point x="288" y="340" type="curve"/>
      <point x="88" y="340" type="line"/>
      <point x="88" y="157"/>
      <point x="244" y="-20"/>
      <point x="536" y="-20" type="curve" smooth="yes"/>
      <point x="788" y="-20"/>
      <point x="958" y="113"/>
      <point x="958" y="306" type="curve" smooth="yes"/>
      <point x="958" y="605"/>
      <point x="593" y="541"/>
      <point x="594" y="788" type="curve" smooth="yes"/>
      <point x="594" y="1342" type="line"/>
      <point x="392" y="1342" type="line"/>
      <point x="392" y="782" type="line" smooth="yes"/>
      <point x="392" y="454"/>
      <point x="756" y="486"/>
    </contour>
    <contour>
      <point x="792" y="1082" type="line"/>
      <point x="198" y="1082" type="line"/>
      <point x="198" y="934" type="line"/>
      <point x="792" y="934" type="line"/>
    </contour>
  </outline>
</glyph>
<glyph name="wynn" format="2">
  <advance width="1228"/>
  <unicode hex="01BF"/>
  <outline>
    <contour>
      <point x="352" y="910" type="line"/>
      <point x="334" y="1118" type="line"/>
      <point x="152" y="1118" type="line"/>
      <point x="152" y="-416" type="line"/>
      <point x="352" y="-416" type="line"/>
    </contour>
    <contour>
      <point x="300" y="684" type="line"/>
      <point x="332" y="832"/>
      <point x="416" y="966"/>
      <point x="590" y="966" type="curve" smooth="yes"/>
      <point x="788" y="966"/>
      <point x="876" y="788"/>
      <point x="876" y="578" type="curve" smooth="yes"/>
      <point x="876" y="530" type="line" smooth="yes"/>
      <point x="876" y="207"/>
      <point x="625" y="61"/>
      <point x="288" y="-20" type="curve"/>
      <point x="288" y="-180" type="line"/>
      <point x="774" y="-44"/>
      <point x="1076" y="113"/>
      <point x="1076" y="530" type="curve" smooth="yes"/>
      <point x="1076" y="578" type="line" smooth="yes"/>
      <point x="1076" y="908"/>
      <point x="928" y="1132"/>
      <point x="652" y="1132" type="curve" smooth="yes"/>
      <point x="375" y="1132"/>
      <point x="236" y="931"/>
      <point x="204" y="602" type="curve"/>
    </contour>
  </outline>
</glyph>
<glyph name="pipe" format="2">
  <advance width="480"/>
  <unicode hex="01C0"/>
  <outline>
    <contour>
      <point x="320" y="1490" type="line"/>
      <point x="160" y="1490" type="line"/>
      <point x="160" y="0" type="line"/>
      <point x="320" y="0" type="line"/>
    </contour>
  </outline>
</glyph>
<glyph name="uni01F6" format="2">
  <advance width="2122"/>
  <unicode hex="01F6"/>
  <outline>
    <contour>
      <point x="1559" y="-20" type="curve" smooth="yes"/>
      <point x="1826" y="-20"/>
      <point x="1996" y="142"/>
      <point x="1996" y="400" type="curve" smooth="yes"/>
      <point x="1996" y="1056" type="line"/>
      <point x="1826" y="1056" type="line"/>
      <point x="1826" y="408" type="line" smooth="yes"/>
      <point x="1826" y="234"/>
      <point x="1728" y="136"/>
      <point x="1559" y="136" type="curve" smooth="yes"/>
      <point x="1390" y="136"/>
      <point x="1302" y="234"/>
      <point x="1302" y="408" type="curve" smooth="yes"/>
      <point x="1302" y="1490" type="line"/>
      <point x="1122" y="1490" type="line"/>
      <point x="1122" y="843" type="line"/>
      <point x="328" y="843" type="line"/>
      <point x="328" y="1490" type="line"/>
      <point x="148" y="1490" type="line"/>
      <point x="148" y="0" type="line"/>
      <point x="328" y="0" type="line"/>
      <point x="328" y="683" type="line"/>
      <point x="1122" y="683" type="line"/>
      <point x="1122" y="400" type="line" smooth="yes"/>
      <point x="1122" y="142"/>
      <point x="1292" y="-20"/>
    </contour>
  </outline>
</glyph>
<glyph name="uni01F7" format="2">
  <advance width="1228"/>
  <unicode hex="01F7"/>
  <outline>
    <contour>
      <point x="290" y="1490" type="line"/>
      <point x="82" y="1490" type="line"/>
      <point x="82" y="-418" type="line"/>
      <point x="290" y="-418" type="line"/>
    </contour>
    <contour>
      <point x="180" y="-180" type="line"/>
      <point x="724" y="-116"/>
      <point x="1146" y="308"/>
      <point x="1146" y="832" type="curve" smooth="yes"/>
      <point x="1146" y="884" type="line" smooth="yes"/>
      <point x="1146" y="1309"/>
      <point x="912" y="1510"/>
      <point x="560" y="1510" type="curve" smooth="yes"/>
      <point x="409" y="1510"/>
      <point x="305" y="1472"/>
      <point x="222" y="1408" type="curve"/>
      <point x="222" y="1016" type="line"/>
      <point x="253" y="1213"/>
      <point x="326" y="1342"/>
      <point x="562" y="1342" type="curve" smooth="yes"/>
      <point x="806" y="1342"/>
      <point x="940" y="1207"/>
      <point x="940" y="888" type="curve" smooth="yes"/>
      <point x="940" y="832" type="line" smooth="yes"/>
      <point x="940" y="477"/>
      <point x="704" y="67"/>
      <point x="180" y="-14" type="curve"/>
    </contour>
  </outline>
</glyph>
<glyph name="uni021C" format="2">
  <advance width="1228"/>
  <unicode hex="021C"/>
  <outline>
    <contour>
      <point x="190" y="338" type="line"/>
      <point x="713" y="451"/>
      <point x="1108" y="720"/>
      <point x="1108" y="1084" type="curve" smooth="yes"/>
      <point x="1108" y="1357"/>
      <point x="897" y="1510"/>
      <point x="610" y="1510" type="curve" smooth="yes"/>
      <point x="313" y="1510"/>
      <point x="99" y="1353"/>
      <point x="98" y="1106" type="curve"/>
      <point x="306" y="1106" type="line"/>
      <point x="306" y="1245"/>
      <point x="425" y="1342"/>
      <point x="610" y="1342" type="curve" smooth="yes"/>
      <point x="797" y="1342"/>
      <point x="902" y="1241"/>
      <point x="902" y="1064" type="curve" smooth="yes"/>
      <point x="902" y="784"/>
      <point x="646" y="625"/>
      <point x="190" y="488" type="curve"/>
    </contour>
    <contour>
      <point x="768" y="648" type="line"/>
      <point x="879" y="605"/>
      <point x="922" y="509"/>
      <point x="922" y="340" type="curve" smooth="yes"/>
      <point x="922" y="-35"/>
      <point x="652" y="-177"/>
      <point x="190" y="-270" type="curve"/>
      <point x="190" y="-436" type="line"/>
      <point x="733" y="-326"/>
      <point x="1132" y="-148"/>
      <point x="1132" y="326" type="curve" smooth="yes"/>
      <point x="1132" y="567"/>
      <point x="1036" y="701"/>
      <point x="870" y="762" type="curve"/>
    </contour>
  </outline>
</glyph>
<glyph name="uni021D" format="2">
  <advance width="1042"/>
  <unicode hex="021D"/>
  <outline>
    <contour>
      <point x="186" y="210" type="line"/>
      <point x="633" y="293"/>
      <point x="922" y="523"/>
      <point x="922" y="794" type="curve" smooth="yes"/>
      <point x="922" y="1001"/>
      <point x="770" y="1132"/>
      <point x="530" y="1132" type="curve" smooth="yes"/>
      <point x="268" y="1132"/>
      <point x="102" y="994"/>
      <point x="102" y="780" type="curve"/>
      <point x="300" y="780" type="line"/>
      <point x="300" y="897"/>
      <point x="387" y="972"/>
      <point x="522" y="972" type="curve" smooth="yes"/>
      <point x="652" y="972"/>
      <point x="722" y="905"/>
      <point x="722" y="784" type="curve" smooth="yes"/>
      <point x="722" y="592"/>
      <point x="530" y="440"/>
      <point x="186" y="358" type="curve"/>
    </contour>
    <contour>
      <point x="614" y="454" type="line"/>
      <point x="695" y="417"/>
      <point x="742" y="320"/>
      <point x="742" y="190" type="curve" smooth="yes"/>
      <point x="742" y="-58"/>
      <point x="583" y="-192"/>
      <point x="186" y="-280" type="curve"/>
      <point x="186" y="-436" type="line"/>
      <point x="692" y="-370"/>
      <point x="942" y="-167"/>
      <point x="942" y="178" type="curve" smooth="yes"/>
      <point x="942" y="365"/>
      <point x="868" y="494"/>
      <point x="724" y="556" type="curve"/>
    </contour>
  </outline>
</glyph>
<glyph name="uni0220" format="2">
  <advance width="1228"/>
  <unicode hex="0220"/>
  <outline>
    <contour>
      <point x="1144" y="-416" type="line"/>
      <point x="1144" y="1018" type="line" smooth="yes"/>
      <point x="1144" y="1347"/>
      <point x="890" y="1510"/>
      <point x="614" y="1510" type="curve" smooth="yes"/>
      <point x="460" y="1510"/>
      <point x="326" y="1460"/>
      <point x="236" y="1400" type="curve"/>
      <point x="236" y="1240" type="line"/>
      <point x="329" y="1303"/>
      <point x="454" y="1344"/>
      <point x="596" y="1344" type="curve" smooth="yes"/>
      <point x="817" y="1344"/>
      <point x="943" y="1245"/>
      <point x="942" y="1018" type="curve" smooth="yes"/>
      <point x="942" y="-416" type="line"/>
    </contour>
    <contour>
      <point x="286" y="1490" type="line"/>
      <point x="88" y="1490" type="line"/>
      <point x="88" y="0" type="line"/>
      <point x="286" y="0" type="line"/>
    </contour>
  </outline>
</glyph>
<glyph name="uni0222" format="2">
  <advance width="1228"/>
  <unicode hex="0222"/>
  <outline>
    <contour>
      <point x="602" y="882" type="line" name="hr00"/>
      <point x="291" y="881"/>
      <point x="50" y="730"/>
      <point x="50" y="434" type="curve" smooth="yes"/>
      <point x="50" y="128"/>
      <point x="291" y="-20"/>
      <point x="602" y="-20" type="curve" smooth="yes"/>
      <point x="626" y="-20" type="line" smooth="yes"/>
      <point x="937" y="-20"/>
      <point x="1178" y="128"/>
      <point x="1178" y="436" type="curve" smooth="yes"/>
      <point x="1178" y="730"/>
      <point x="937" y="881"/>
      <point x="626" y="882" type="curve" smooth="yes"/>
    </contour>
    <contour>
      <point x="626" y="724" type="line"/>
      <point x="835" y="724"/>
      <point x="972" y="631"/>
      <point x="972" y="436" type="curve" smooth="yes"/>
      <point x="972" y="236"/>
      <point x="835" y="151"/>
      <point x="626" y="152" type="curve" smooth="yes"/>
      <point x="602" y="152" type="line" smooth="yes"/>
      <point x="393" y="152"/>
      <point x="256" y="236"/>
      <point x="256" y="434" type="curve" smooth="yes"/>
      <point x="256" y="631"/>
      <point x="393" y="724"/>
      <point x="602" y="724" type="curve" smooth="yes"/>
    </contour>
    <contour>
      <point x="594" y="896" type="line"/>
      <point x="413" y="896"/>
      <point x="256" y="925"/>
      <point x="256" y="1128" type="curve" smooth="yes"/>
      <point x="256" y="1257"/>
      <point x="320" y="1321"/>
      <point x="446" y="1352" type="curve"/>
      <point x="446" y="1510" type="line"/>
      <point x="227" y="1498"/>
      <point x="50" y="1379"/>
      <point x="50" y="1128" type="curve" smooth="yes"/>
      <point x="50" y="826"/>
      <point x="305" y="739"/>
      <point x="594" y="738" type="curve" smooth="yes"/>
      <point x="634" y="738" type="line" smooth="yes"/>
      <point x="922" y="738"/>
      <point x="1178" y="826"/>
      <point x="1178" y="1128" type="curve" smooth="yes"/>
      <point x="1178" y="1379"/>
      <point x="1004" y="1498"/>
      <point x="782" y="1510" type="curve"/>
      <point x="782" y="1352" type="line"/>
      <point x="908" y="1321"/>
      <point x="972" y="1257"/>
      <point x="972" y="1128" type="curve" smooth="yes"/>
      <point x="972" y="925"/>
      <point x="817" y="896"/>
      <point x="634" y="896" type="curve" smooth="yes"/>
    </contour>
  </outline>
</glyph>
<glyph name="uni0223" format="2">
  <advance width="1228"/>
  <unicode hex="0223"/>
  <outline>
    <contour>
      <point x="602" y="878" type="line"/>
      <point x="291" y="879"/>
      <point x="52" y="730"/>
      <point x="52" y="434" type="curve" smooth="yes"/>
      <point x="52" y="128"/>
      <point x="291" y="-20"/>
      <point x="602" y="-20" type="curve" smooth="yes"/>
      <point x="626" y="-20" type="line" smooth="yes"/>
      <point x="937" y="-20"/>
      <point x="1176" y="128"/>
      <point x="1176" y="436" type="curve" smooth="yes"/>
      <point x="1176" y="730"/>
      <point x="937" y="879"/>
      <point x="626" y="878" type="curve" smooth="yes"/>
    </contour>
    <contour>
      <point x="626" y="728" type="line"/>
      <point x="832" y="727"/>
      <point x="974" y="631"/>
      <point x="974" y="436" type="curve" smooth="yes"/>
      <point x="974" y="236"/>
      <point x="832" y="140"/>
      <point x="626" y="140" type="curve" smooth="yes"/>
      <point x="602" y="140" type="line" smooth="yes"/>
      <point x="393" y="140"/>
      <point x="254" y="236"/>
      <point x="254" y="434" type="curve" smooth="yes"/>
      <point x="254" y="631"/>
      <point x="393" y="727"/>
      <point x="602" y="728" type="curve" smooth="yes"/>
    </contour>
    <contour>
      <point x="634" y="888" type="curve"/>
      <point x="594" y="888" type="line" smooth="yes"/>
      <point x="413" y="888"/>
      <point x="254" y="940"/>
      <point x="254" y="1144" type="curve" smooth="yes"/>
      <point x="254" y="1289"/>
      <point x="320" y="1359"/>
      <point x="446" y="1408" type="curve"/>
      <point x="446" y="1556" type="line"/>
      <point x="227" y="1548"/>
      <point x="52" y="1402"/>
      <point x="52" y="1144" type="curve" smooth="yes"/>
      <point x="52" y="844"/>
      <point x="305" y="739"/>
      <point x="594" y="738" type="curve" smooth="yes"/>
      <point x="634" y="738" type="line" smooth="yes"/>
      <point x="922" y="738"/>
      <point x="1176" y="844"/>
      <point x="1176" y="1144" type="curve" smooth="yes"/>
      <point x="1176" y="1402"/>
      <point x="1001" y="1548"/>
      <point x="782" y="1556" type="curve"/>
      <point x="782" y="1408" type="line"/>
      <point x="908" y="1359"/>
      <point x="974" y="1289"/>
      <point x="974" y="1144" type="curve" smooth="yes"/>
      <point x="974" y="940"/>
      <point x="817" y="887"/>
    </contour>
  </outline>
</glyph>
<glyph name="zhook" format="2">
  <advance width="980"/>
  <unicode hex="0225"/>
  <outline>
    <contour>
      <point x="844" y="-208" type="line"/>
      <point x="1000" y="-208" type="line"/>
      <point x="1000" y="-134" type="line" smooth="yes"/>
      <point x="1000" y="32"/>
      <point x="891" y="152"/>
      <point x="702" y="152" type="curve" smooth="yes"/>
      <point x="310" y="152" type="line"/>
      <point x="310" y="156" type="line"/>
      <point x="882" y="920" type="line"/>
      <point x="882" y="1056" type="line"/>
      <point x="94" y="1056" type="line"/>
      <point x="94" y="904" type="line"/>
      <point x="672" y="904" type="line"/>
      <point x="672" y="900" type="line"/>
      <point x="94" y="130" type="line"/>
      <point x="94" y="0" type="line"/>
      <point x="702" y="0" type="line" smooth="yes"/>
      <point x="819" y="0"/>
      <point x="844" y="-84"/>
      <point x="844" y="-178" type="curve" smooth="yes"/>
    </contour>
  </outline>
</glyph>
<glyph name="jdotless" format="2">
  <advance width="422"/>
  <unicode hex="0237"/>
  <anchor x="442" y="0" name="_right"/>
  <anchor x="154" y="-460" name="bottom"/>
  <anchor x="210" y="648" name="cross"/>
  <anchor x="211" y="1056" name="top"/>
  <outline>
    <contour>
      <point x="126" y="1056" type="line"/>
      <point x="126" y="-122" type="line" smooth="yes"/>
      <point x="126" y="-224"/>
      <point x="88" y="-268"/>
      <point x="2" y="-268" type="curve" smooth="yes"/>
      <point x="-56" y="-268" type="line"/>
      <point x="-56" y="-418" type="line"/>
      <point x="18" y="-418" type="line" smooth="yes"/>
      <point x="196" y="-418"/>
      <point x="296" y="-301"/>
      <point x="296" y="-148" type="curve" smooth="yes"/>
      <point x="296" y="1056" type="line"/>
    </contour>
  </outline>
</glyph>
<glyph name="uni0239" format="2">
  <advance width="1784"/>
  <unicode hex="0239"/>
  <outline>
    <contour>
      <point x="792" y="-416" type="line"/>
      <point x="992" y="-416" type="line"/>
      <point x="992" y="910" type="line"/>
      <point x="974" y="1118" type="line"/>
      <point x="808" y="1118" type="line"/>
      <point x="792" y="910" type="line"/>
    </contour>
    <contour>
      <point x="70" y="544" type="line"/>
      <point x="70" y="215"/>
      <point x="237" y="-20"/>
      <point x="510" y="-20" type="curve" smooth="yes"/>
      <point x="767" y="-20"/>
      <point x="908" y="180"/>
      <point x="936" y="524" type="curve"/>
      <point x="936" y="588" type="line"/>
      <point x="908" y="931"/>
      <point x="767" y="1132"/>
      <point x="506" y="1132" type="curve" smooth="yes"/>
      <point x="234" y="1132"/>
      <point x="70" y="908"/>
      <point x="70" y="564" type="curve" smooth="yes"/>
    </contour>
    <contour>
      <point x="270" y="564" type="line"/>
      <point x="271" y="788"/>
      <point x="348" y="966"/>
      <point x="550" y="966" type="curve" smooth="yes"/>
      <point x="723" y="966"/>
      <point x="812" y="832"/>
      <point x="840" y="670" type="curve"/>
      <point x="840" y="442" type="line"/>
      <point x="800" y="276"/>
      <point x="720" y="146"/>
      <point x="546" y="146" type="curve" smooth="yes"/>
      <point x="345" y="146"/>
      <point x="271" y="320"/>
      <point x="270" y="544" type="curve" smooth="yes"/>
    </contour>
    <contour>
      <point x="1714" y="564" type="line" smooth="yes"/>
      <point x="1713" y="908"/>
      <point x="1549" y="1132"/>
      <point x="1278" y="1132" type="curve" smooth="yes"/>
      <point x="1017" y="1132"/>
      <point x="876" y="931"/>
      <point x="846" y="588" type="curve"/>
      <point x="846" y="524" type="line"/>
      <point x="876" y="180"/>
      <point x="1017" y="-20"/>
      <point x="1272" y="-20" type="curve" smooth="yes"/>
      <point x="1546" y="-20"/>
      <point x="1713" y="215"/>
      <point x="1714" y="544" type="curve"/>
    </contour>
    <contour>
      <point x="1512" y="544" type="line" smooth="yes"/>
      <point x="1513" y="320"/>
      <point x="1439" y="146"/>
      <point x="1238" y="146" type="curve" smooth="yes"/>
      <point x="1063" y="146"/>
      <point x="983" y="276"/>
      <point x="942" y="442" type="curve"/>
      <point x="942" y="670" type="line"/>
      <point x="972" y="832"/>
      <point x="1060" y="966"/>
      <point x="1234" y="966" type="curve" smooth="yes"/>
      <point x="1436" y="966"/>
      <point x="1513" y="788"/>
      <point x="1512" y="564" type="curve"/>
    </contour>
  </outline>
</glyph>
<glyph name="uni023A" format="2">
  <advance width="1338"/>
  <unicode hex="023A"/>
  <anchor x="672" y="0" name="bottom"/>
  <anchor x="1318" y="0" name="ogonek"/>
  <anchor x="499" y="1490" name="tonos"/>
  <anchor x="672" y="1490" name="top"/>
  <outline>
    <contour>
      <point x="1112" y="1678" type="line"/>
      <point x="946" y="1678" type="line"/>
      <point x="282" y="-190" type="line"/>
      <point x="448" y="-190" type="line"/>
    </contour>
    <component base="A"/>
  </outline>
</glyph>
<glyph name="Cstroke" format="2">
  <advance width="1479"/>
  <unicode hex="023B"/>
  <anchor x="758" y="0" name="cedilla"/>
  <anchor x="769" y="745" name="center"/>
  <anchor x="758" y="1490" name="top"/>
  <anchor x="1393" y="1008" name="topr"/>
  <outline>
    <contour>
      <point x="306" y="-190" type="line"/>
      <point x="472" y="-190" type="line"/>
      <point x="1134" y="1678" type="line"/>
      <point x="968" y="1678" type="line"/>
    </contour>
    <component base="C"/>
  </outline>
</glyph>
<glyph name="cstroke" format="2">
  <advance width="1071"/>
  <unicode hex="023C"/>
  <anchor x="562" y="0" name="bottom"/>
  <anchor x="562" y="0" name="cedilla"/>
  <anchor x="562" y="528" name="center"/>
  <anchor x="562" y="1056" name="top"/>
  <anchor x="1007" y="712" name="topr"/>
  <outline>
    <contour>
      <point x="88" y="-418" type="line"/>
      <point x="228" y="-418" type="line"/>
      <point x="990" y="1490" type="line"/>
      <point x="852" y="1490" type="line"/>
    </contour>
    <component base="c"/>
  </outline>
</glyph>
<glyph name="uni023E" format="2">
  <advance width="1250"/>
  <unicode hex="023E"/>
  <anchor x="626" y="0" name="bottom"/>
  <anchor x="716" y="0" name="bottomr"/>
  <anchor x="627" y="0" name="cedilla"/>
  <anchor x="626" y="768" name="cross"/>
  <anchor x="716" y="0" name="cyrtic"/>
  <anchor x="666" y="0" name="right"/>
  <anchor x="626" y="1490" name="top"/>
  <outline>
    <contour>
      <point x="176" y="-209" type="line"/>
      <point x="316" y="-209" type="line"/>
      <point x="1078" y="1699" type="line"/>
      <point x="938" y="1699" type="line"/>
    </contour>
    <component base="T"/>
  </outline>
</glyph>
<glyph name="uni023F" format="2">
  <advance width="972"/>
  <unicode hex="023F"/>
  <anchor x="487" y="0" name="bottom"/>
  <anchor x="494" y="0" name="cedilla"/>
  <anchor x="76" y="316" name="rthook"/>
  <anchor x="487" y="1056" name="top"/>
  <outline>
    <contour>
      <point x="226" y="267" type="curve"/>
      <point x="108" y="187" type="line"/>
      <point x="318" y="-186" type="line" smooth="yes"/>
      <point x="401" y="-333"/>
      <point x="483" y="-418"/>
      <point x="610" y="-418" type="curve" smooth="yes"/>
      <point x="689" y="-418"/>
      <point x="771" y="-364"/>
      <point x="814" y="-320" type="curve"/>
      <point x="748" y="-204" type="line"/>
      <point x="716" y="-233"/>
      <point x="663" y="-274"/>
      <point x="610" y="-274" type="curve" smooth="yes"/>
      <point x="532" y="-274"/>
      <point x="479" y="-183"/>
    </contour>
    <component base="s"/>
  </outline>
</glyph>
<glyph name="uni0240" format="2">
  <advance width="980"/>
  <unicode hex="0240"/>
  <outline>
    <contour>
      <point x="94" y="0" type="line"/>
      <point x="310" y="0" type="line"/>
      <point x="310" y="156" type="line"/>
      <point x="882" y="920" type="line"/>
      <point x="882" y="1056" type="line"/>
      <point x="94" y="1056" type="line"/>
      <point x="94" y="904" type="line"/>
      <point x="672" y="904" type="line"/>
      <point x="672" y="900" type="line"/>
      <point x="94" y="130" type="line"/>
    </contour>
    <contour>
      <point x="951" y="-418" type="curve" smooth="yes"/>
      <point x="1006" y="-418"/>
      <point x="1068" y="-400"/>
      <point x="1119" y="-372" type="curve"/>
      <point x="1046" y="-239" type="line"/>
      <point x="1010" y="-259"/>
      <point x="984" y="-266"/>
      <point x="951" y="-266" type="curve" smooth="yes"/>
      <point x="902" y="-266"/>
      <point x="880" y="-250"/>
      <point x="772" y="-94" type="curve" smooth="yes"/>
      <point x="634" y="107"/>
      <point x="557" y="152"/>
      <point x="348" y="152" type="curve" smooth="yes"/>
      <point x="222" y="152" type="line"/>
      <point x="222" y="0" type="line"/>
      <point x="348" y="0" type="line" smooth="yes"/>
      <point x="503" y="0"/>
      <point x="537" y="-20"/>
      <point x="647" y="-180" type="curve" smooth="yes"/>
      <point x="770" y="-358"/>
      <point x="852" y="-418"/>
    </contour>
  </outline>
</glyph>
<glyph name="uni0241" format="2">
  <advance width="1042"/>
  <unicode hex="0241"/>
  <outline>
    <contour>
      <point x="450" y="454" type="line"/>
      <point x="450" y="280" type="line"/>
      <point x="494" y="280" type="line" smooth="yes"/>
      <point x="826" y="280"/>
      <point x="986" y="532"/>
      <point x="986" y="820" type="curve" smooth="yes"/>
      <point x="986" y="968" type="line" smooth="yes"/>
      <point x="986" y="1257"/>
      <point x="826" y="1510"/>
      <point x="494" y="1510" type="curve" smooth="yes"/>
      <point x="236" y="1510"/>
      <point x="64" y="1335"/>
      <point x="56" y="1102" type="curve"/>
      <point x="250" y="1102" type="line"/>
      <point x="259" y="1242"/>
      <point x="349" y="1336"/>
      <point x="494" y="1336" type="curve" smooth="yes"/>
      <point x="719" y="1336"/>
      <point x="780" y="1149"/>
      <point x="780" y="968" type="curve" smooth="yes"/>
      <point x="780" y="820" type="line" smooth="yes"/>
      <point x="780" y="637"/>
      <point x="721" y="454"/>
      <point x="494" y="454" type="curve"/>
    </contour>
    <contour>
      <point x="608" y="454" type="line"/>
      <point x="398" y="454" type="line"/>
      <point x="398" y="0" type="line"/>
      <point x="608" y="0" type="line"/>
    </contour>
  </outline>
</glyph>
<glyph name="uni0242" format="2">
  <advance width="1042"/>
  <unicode hex="0242"/>
  <outline>
    <contour>
      <point x="108" y="702" type="curve"/>
      <point x="308" y="702" type="line"/>
      <point x="308" y="867"/>
      <point x="387" y="972"/>
      <point x="528" y="972" type="curve" smooth="yes"/>
      <point x="678" y="972"/>
      <point x="736" y="855"/>
      <point x="736" y="700" type="curve" smooth="yes"/>
      <point x="736" y="550"/>
      <point x="681" y="448"/>
      <point x="526" y="448" type="curve" smooth="yes"/>
      <point x="482" y="448" type="line"/>
      <point x="482" y="322" type="line"/>
      <point x="530" y="322" type="line" smooth="yes"/>
      <point x="826" y="322"/>
      <point x="934" y="486"/>
      <point x="934" y="710" type="curve" smooth="yes"/>
      <point x="934" y="986"/>
      <point x="780" y="1132"/>
      <point x="530" y="1132" type="curve" smooth="yes"/>
      <point x="282" y="1132"/>
      <point x="108" y="977"/>
    </contour>
    <contour>
      <point x="434" y="448" type="line"/>
      <point x="434" y="0" type="line"/>
      <point x="634" y="0" type="line"/>
      <point x="634" y="448" type="line"/>
    </contour>
  </outline>
</glyph>
<glyph name="uni0244" format="2">
  <advance width="1454"/>
  <unicode hex="0244"/>
  <anchor x="720" y="0" name="bottom"/>
  <anchor x="1300" y="506" name="ogonek"/>
  <anchor x="804" y="0" name="right"/>
  <anchor x="1120" y="1490" name="rtophorn"/>
  <anchor x="720" y="1490" name="top"/>
  <outline>
    <contour>
      <point x="1492" y="864" type="line"/>
      <point x="-38" y="864" type="line"/>
      <point x="-38" y="744" type="line"/>
      <point x="1492" y="744" type="line"/>
    </contour>
    <component base="U"/>
  </outline>
</glyph>
<glyph name="uni0245" format="2">
  <advance width="1414"/>
  <unicode hex="0245"/>
  <outline>
    <contour>
      <point x="1112" y="0" type="line"/>
      <point x="1338" y="0" type="line"/>
      <point x="798" y="1490" type="line"/>
      <point x="638" y="1490" type="line"/>
      <point x="690" y="1260" type="line"/>
    </contour>
    <contour>
      <point x="722" y="1260" type="line"/>
      <point x="776" y="1490" type="line"/>
      <point x="616" y="1490" type="line"/>
      <point x="78" y="0" type="line"/>
      <point x="306" y="0" type="line"/>
    </contour>
  </outline>
</glyph>
<glyph name="uni0246" format="2">
  <advance width="1187"/>
  <unicode hex="0246"/>
  <anchor x="632" y="0" name="bottom"/>
  <anchor x="643" y="0" name="cedilla"/>
  <anchor x="1117" y="0" name="ogonek"/>
  <anchor x="148" y="1490" name="tonos"/>
  <anchor x="632" y="1490" name="top"/>
  <outline>
    <contour>
      <point x="290" y="-190" type="line"/>
      <point x="456" y="-190" type="line"/>
      <point x="994" y="1678" type="line"/>
      <point x="830" y="1678" type="line"/>
    </contour>
    <component base="E"/>
  </outline>
</glyph>
<glyph name="uni0247" format="2">
  <advance width="1098"/>
  <unicode hex="0247"/>
  <anchor x="550" y="0" name="bottom"/>
  <anchor x="556" y="0" name="cedilla"/>
  <anchor x="1012" y="316" name="ogonek"/>
  <anchor x="550" y="1056" name="top"/>
  <outline>
    <contour>
      <point x="102" y="-418" type="line"/>
      <point x="242" y="-418" type="line"/>
      <point x="1004" y="1490" type="line"/>
      <point x="866" y="1490" type="line"/>
    </contour>
    <component base="e"/>
  </outline>
</glyph>
<glyph name="uni024C" format="2">
  <advance width="1262"/>
  <unicode hex="024C"/>
  <anchor x="669" y="0" name="bottom"/>
  <anchor x="660" y="1490" name="top"/>
  <outline>
    <contour>
      <point x="268" y="582" type="line"/>
      <point x="268" y="744" type="line"/>
      <point x="-8" y="744" type="line"/>
      <point x="-8" y="582" type="line"/>
    </contour>
    <component base="R" xOffset="18"/>
  </outline>
</glyph>
<glyph name="uni024E" format="2">
  <advance width="1304"/>
  <unicode hex="024E"/>
  <anchor x="658" y="0" name="bottom"/>
  <anchor x="658" y="392" name="cross"/>
  <anchor x="748" y="0" name="ogonek"/>
  <anchor x="20" y="1490" name="tonos"/>
  <anchor x="658" y="1490" name="top"/>
  <outline>
    <contour>
      <point x="1330" y="1184" type="line"/>
      <point x="-26" y="1184" type="line"/>
      <point x="-26" y="1064" type="line"/>
      <point x="1330" y="1064" type="line"/>
    </contour>
    <component base="Y"/>
  </outline>
</glyph>
<glyph name="uni024F" format="2">
  <advance width="1048"/>
  <unicode hex="024F"/>
  <anchor x="797" y="0" name="bottom"/>
  <anchor x="605" y="0" name="ogonek"/>
  <anchor x="524" y="1056" name="top"/>
  <outline>
    <contour>
      <point x="1013" y="798" type="line"/>
      <point x="35" y="798" type="line"/>
      <point x="35" y="664" type="line"/>
      <point x="1013" y="664" type="line"/>
    </contour>
    <component base="y"/>
  </outline>
</glyph>
<glyph name="bhook" format="2">
  <advance width="1158"/>
  <unicode hex="0253"/>
  <anchor x="296" y="1056" name="_topr"/>
  <anchor x="624" y="0" name="bottom"/>
  <anchor x="386" y="1490" name="top"/>
  <outline>
    <contour>
      <point x="628" y="-20" type="curve" smooth="yes"/>
      <point x="903" y="-20"/>
      <point x="1086" y="203"/>
      <point x="1086" y="528" type="curve" smooth="yes"/>
      <point x="1086" y="854"/>
      <point x="903" y="1076"/>
      <point x="628" y="1076" type="curve" smooth="yes"/>
      <point x="491" y="1076"/>
      <point x="366" y="1018"/>
      <point x="298" y="900" type="curve"/>
      <point x="296" y="900" type="line"/>
      <point x="296" y="1056" type="line"/>
      <point x="126" y="1056" type="line"/>
      <point x="126" y="0" type="line"/>
      <point x="292" y="0" type="line"/>
      <point x="292" y="160" type="line"/>
      <point x="294" y="160" type="line"/>
      <point x="370" y="38"/>
      <point x="491" y="-20"/>
    </contour>
    <contour>
      <point x="602" y="133" type="curve" smooth="yes"/>
      <point x="406" y="133"/>
      <point x="282" y="289"/>
      <point x="282" y="528" type="curve" smooth="yes"/>
      <point x="282" y="767"/>
      <point x="406" y="924"/>
      <point x="602" y="924" type="curve" smooth="yes"/>
      <point x="785" y="924"/>
      <point x="914" y="787"/>
      <point x="914" y="528" type="curve" smooth="yes"/>
      <point x="914" y="269"/>
      <point x="785" y="133"/>
    </contour>
    <component base="_part.top_r_hook" xOffset="4"/>
  </outline>
</glyph>
